LexendDeca-Thin.ufo
<glyph name="exclam" format="2">
  <advance width="254"/>
  <unicode hex="0021"/>
  <note>
exclam
</note>
  <outline>
    <contour>
      <point x="140.0" y="241.0" type="qcurve"/>
      <point x="124.0" y="241.0" type="line"/>
      <point x="120.0" y="335.0"/>
      <point x="121.0" y="537.0"/>
      <point x="121.0" y="630.0" type="qcurve"/>
      <point x="121.0" y="700.0" type="line"/>
      <point x="143.0" y="700.0" type="line"/>
      <point x="143.0" y="630.0" type="line" smooth="yes"/>
      <point x="143.0" y="537.0"/>
      <point x="144.0" y="335.0"/>
    </contour>
    <contour>
      <point x="160.0" y="28.0" type="qcurve" smooth="yes"/>
      <point x="160.0" y="13.0"/>
      <point x="144.0" y="-8.0"/>
      <point x="129.0" y="-8.0" type="qcurve" smooth="yes"/>
      <point x="114.0" y="-8.0"/>
      <point x="98.0" y="11.0"/>
      <point x="98.0" y="28.0" type="qcurve" smooth="yes"/>
      <point x="98.0" y="44.0"/>
      <point x="115.0" y="64.0"/>
      <point x="129.0" y="64.0" type="qcurve" smooth="yes"/>
      <point x="145.0" y="64.0"/>
      <point x="160.0" y="45.0"/>
    </contour>
  </outline>
</glyph>
<glyph name="quotedbl" format="2">
  <advance width="328"/>
  <unicode hex="0022"/>
  <note>
quotedbl
</note>
  <outline>
    <contour>
      <point x="80.0" y="442.0" type="line"/>
      <point x="128.0" y="700.0" type="line"/>
      <point x="155.0" y="700.0" type="line"/>
      <point x="97.0" y="442.0" type="line"/>
    </contour>
    <contour>
      <point x="173.0" y="442.0" type="line"/>
      <point x="221.0" y="700.0" type="line"/>
      <point x="248.0" y="700.0" type="line"/>
      <point x="190.0" y="442.0" type="line"/>
    </contour>
  </outline>
</glyph>
<glyph name="numbersign" format="2">
  <advance width="687"/>
  <unicode hex="0023"/>
  <note>
numbersign
</note>
  <outline>
    <contour>
      <point x="154.0" y="0.0" type="line"/>
      <point x="132.0" y="0.0" type="line"/>
      <point x="252.0" y="700.0" type="line"/>
      <point x="274.0" y="700.0" type="line"/>
    </contour>
    <contour>
      <point x="646.0" y="475.0" type="line"/>
      <point x="79.0" y="475.0" type="line"/>
      <point x="79.0" y="497.0" type="line"/>
      <point x="646.0" y="497.0" type="line"/>
    </contour>
    <contour>
      <point x="433.0" y="0.0" type="line"/>
      <point x="411.0" y="0.0" type="line"/>
      <point x="531.0" y="700.0" type="line"/>
      <point x="553.0" y="700.0" type="line"/>
    </contour>
    <contour>
      <point x="609.0" y="216.0" type="line"/>
      <point x="41.0" y="216.0" type="line"/>
      <point x="41.0" y="238.0" type="line"/>
      <point x="609.0" y="238.0" type="line"/>
    </contour>
  </outline>
</glyph>
<glyph name="dollar" format="2">
  <advance width="578"/>
  <unicode hex="0024"/>
  <note>
dollar
</note>
  <outline>
    <contour>
      <point x="288.0" y="359.0" type="line"/>
      <point x="310.0" y="354.0" type="line"/>
      <point x="310.0" y="-91.0" type="line"/>
      <point x="288.0" y="-91.0" type="line"/>
    </contour>
    <contour>
      <point x="310.0" y="359.0" type="line"/>
      <point x="288.0" y="363.0" type="line"/>
      <point x="288.0" y="782.0" type="line"/>
      <point x="310.0" y="782.0" type="line"/>
    </contour>
    <contour>
      <point x="54.49990876338311" y="91.50069948072945" type="qcurve"/>
      <point x="68.0" y="110.0" type="line"/>
      <point x="109.0" y="62.0"/>
      <point x="226.0" y="12.0"/>
      <point x="298.0" y="12.0" type="qcurve" smooth="yes"/>
      <point x="382.0" y="12.0"/>
      <point x="504.0" y="105.0"/>
      <point x="504.0" y="173.0" type="qcurve" smooth="yes"/>
      <point x="504.0" y="247.0"/>
      <point x="389.0" y="313.0"/>
      <point x="294.0" y="347.0" type="qcurve" smooth="yes"/>
      <point x="190.0" y="384.0"/>
      <point x="88.0" y="454.0"/>
      <point x="88.0" y="529.0" type="qcurve"/>
      <point x="88.0" y="608.0"/>
      <point x="208.0" y="703.0"/>
      <point x="298.0" y="703.0" type="qcurve"/>
      <point x="376.0" y="703.0"/>
      <point x="477.0" y="643.0"/>
      <point x="509.0" y="605.0" type="qcurve"/>
      <point x="494.0" y="590.0" type="line"/>
      <point x="465.0" y="624.0"/>
      <point x="365.0" y="681.0"/>
      <point x="299.0" y="681.0" type="qcurve"/>
      <point x="217.0" y="681.0"/>
      <point x="110.0" y="595.0"/>
      <point x="110.0" y="526.0" type="qcurve"/>
      <point x="110.0" y="466.0"/>
      <point x="203.0" y="403.0"/>
      <point x="307.0" y="366.0" type="qcurve" smooth="yes"/>
      <point x="411.0" y="329.0"/>
      <point x="526.0" y="258.0"/>
      <point x="526.0" y="170.0" type="qcurve" smooth="yes"/>
      <point x="526.0" y="94.0"/>
      <point x="392.0" y="-10.0"/>
      <point x="297.0" y="-10.0" type="qcurve" smooth="yes"/>
      <point x="225.0" y="-10.0"/>
      <point x="95.0" y="44.0"/>
    </contour>
  </outline>
</glyph>
<glyph name="percent" format="2">
  <advance width="831"/>
  <unicode hex="0025"/>
  <note>
percent
</note>
  <outline>
    <contour>
      <point x="347.0" y="518.0" type="qcurve"/>
      <point x="347.0" y="438.0"/>
      <point x="259.0" y="329.0"/>
      <point x="193.0" y="329.0" type="qcurve"/>
      <point x="125.0" y="329.0"/>
      <point x="40.0" y="436.0"/>
      <point x="40.0" y="518.0" type="qcurve"/>
      <point x="40.0" y="601.0"/>
      <point x="125.0" y="709.0"/>
      <point x="193.0" y="709.0" type="qcurve"/>
      <point x="260.0" y="709.0"/>
      <point x="347.0" y="601.0"/>
    </contour>
    <contour>
      <point x="62.0" y="518.0" type="qcurve"/>
      <point x="62.0" y="443.0"/>
      <point x="136.0" y="350.0"/>
      <point x="193.0" y="350.0" type="qcurve"/>
      <point x="249.0" y="350.0"/>
      <point x="325.0" y="443.0"/>
      <point x="325.0" y="518.0" type="qcurve"/>
      <point x="325.0" y="594.0"/>
      <point x="251.0" y="688.0"/>
      <point x="193.0" y="688.0" type="qcurve"/>
      <point x="136.0" y="688.0"/>
      <point x="62.0" y="593.0"/>
    </contour>
    <contour>
      <point x="791.0" y="180.0" type="qcurve"/>
      <point x="791.0" y="100.0"/>
      <point x="703.0" y="-9.0"/>
      <point x="637.0" y="-9.0" type="qcurve"/>
      <point x="569.0" y="-9.0"/>
      <point x="484.0" y="98.0"/>
      <point x="484.0" y="180.0" type="qcurve"/>
      <point x="484.0" y="263.0"/>
      <point x="569.0" y="371.0"/>
      <point x="637.0" y="371.0" type="qcurve"/>
      <point x="704.0" y="371.0"/>
      <point x="791.0" y="263.0"/>
    </contour>
    <contour>
      <point x="506.0" y="180.0" type="qcurve"/>
      <point x="506.0" y="105.0"/>
      <point x="580.0" y="12.0"/>
      <point x="637.0" y="12.0" type="qcurve"/>
      <point x="693.0" y="12.0"/>
      <point x="769.0" y="105.0"/>
      <point x="769.0" y="180.0" type="qcurve"/>
      <point x="769.0" y="256.0"/>
      <point x="695.0" y="350.0"/>
      <point x="637.0" y="350.0" type="qcurve"/>
      <point x="580.0" y="350.0"/>
      <point x="506.0" y="255.0"/>
    </contour>
    <contour>
      <point x="199.0" y="0.0" type="line"/>
      <point x="172.0" y="0.0" type="line"/>
      <point x="420.0" y="379.0" type="line"/>
      <point x="637.0" y="700.0" type="line"/>
      <point x="664.0" y="700.0" type="line"/>
      <point x="417.0" y="333.0" type="line"/>
    </contour>
  </outline>
</glyph>
<glyph name="ampersand" format="2">
  <advance width="656"/>
  <unicode hex="0026"/>
  <note>
ampersand
</note>
  <outline>
    <contour>
      <point x="315.0" y="-10.0" type="qcurve" smooth="yes"/>
      <point x="197.0" y="-10.0"/>
      <point x="50.0" y="113.0"/>
      <point x="50.0" y="221.0" type="qcurve" smooth="yes"/>
      <point x="50.0" y="283.0"/>
      <point x="117.0" y="390.0"/>
      <point x="183.0" y="422.0" type="qcurve"/>
      <point x="195.0" y="404.0" type="line"/>
      <point x="139.0" y="379.0"/>
      <point x="73.0" y="279.0"/>
      <point x="73.0" y="221.0" type="qcurve" smooth="yes"/>
      <point x="73.0" y="129.0"/>
      <point x="211.0" y="12.0"/>
      <point x="319.0" y="12.0" type="qcurve" smooth="yes"/>
      <point x="441.0" y="12.0"/>
      <point x="597.0" y="184.0"/>
      <point x="614.0" y="329.0" type="qcurve"/>
      <point x="636.0" y="329.0" type="line"/>
      <point x="618.0" y="178.0"/>
      <point x="455.0" y="-10.0"/>
    </contour>
    <contour>
      <point x="569.0" y="0.0" type="line"/>
      <point x="540.0" y="0.0" type="line"/>
      <point x="491.0" y="53.0" type="line"/>
      <point x="478.0" y="66.0" type="line"/>
      <point x="253.0" y="309.0" type="line"/>
      <point x="176.0" y="393.0"/>
      <point x="128.0" y="470.0"/>
      <point x="128.0" y="526.0" type="qcurve" smooth="yes"/>
      <point x="128.0" y="604.0"/>
      <point x="236.0" y="703.0"/>
      <point x="323.0" y="703.0" type="qcurve" smooth="yes"/>
      <point x="391.0" y="703.0"/>
      <point x="482.0" y="639.0"/>
      <point x="507.0" y="578.0" type="qcurve"/>
      <point x="488.0" y="567.0" type="line"/>
      <point x="461.0" y="627.0"/>
      <point x="383.0" y="681.0"/>
      <point x="323.0" y="681.0" type="qcurve" smooth="yes"/>
      <point x="244.0" y="681.0"/>
      <point x="151.0" y="594.0"/>
      <point x="151.0" y="528.0" type="qcurve" smooth="yes"/>
      <point x="151.0" y="478.0"/>
      <point x="191.0" y="413.0"/>
      <point x="255.0" y="343.0" type="qcurve" smooth="yes"/>
      <point x="498.0" y="78.0" type="line"/>
      <point x="505.0" y="70.0" type="line"/>
    </contour>
  </outline>
</glyph>
<glyph name="quotesingle" format="2">
  <advance width="187"/>
  <unicode hex="0027"/>
  <note>
quotesingle
</note>
  <outline>
    <contour>
      <point x="56.0" y="442.0" type="line"/>
      <point x="94.0" y="700.0" type="line"/>
      <point x="121.0" y="700.0" type="line"/>
      <point x="74.0" y="442.0" type="line"/>
    </contour>
  </outline>
</glyph>
<glyph name="parenleft" format="2">
  <advance width="335"/>
  <unicode hex="0028"/>
  <note>
parenleft
</note>
  <outline>
    <contour>
      <point x="60.0" y="258.0" type="qcurve" smooth="yes"/>
      <point x="60.0" y="397.0"/>
      <point x="189.0" y="626.0"/>
      <point x="311.0" y="702.0" type="qcurve"/>
      <point x="325.0" y="685.0" type="line"/>
      <point x="204.0" y="606.0"/>
      <point x="83.0" y="390.0"/>
      <point x="83.0" y="258.0" type="qcurve" smooth="yes"/>
      <point x="83.0" y="128.0"/>
      <point x="199.0" y="-86.0"/>
      <point x="325.0" y="-169.0" type="qcurve"/>
      <point x="310.0" y="-186.0" type="line"/>
      <point x="188.0" y="-110.0"/>
      <point x="60.0" y="118.0"/>
    </contour>
  </outline>
</glyph>
<glyph name="asterisk" format="2">
  <advance width="402"/>
  <unicode hex="002A"/>
  <note>
asterisk
</note>
  <outline>
    <contour>
      <point x="211.0" y="376.0" type="line"/>
      <point x="187.0" y="376.0" type="line"/>
      <point x="191.0" y="536.0" type="line"/>
      <point x="201.0" y="531.0" type="line"/>
      <point x="66.0" y="455.0" type="line"/>
      <point x="53.0" y="475.0" type="line"/>
      <point x="195.0" y="545.0" type="line"/>
      <point x="196.0" y="531.0" type="line"/>
      <point x="53.0" y="603.0" type="line"/>
      <point x="66.0" y="625.0" type="line"/>
      <point x="203.0" y="544.0" type="line"/>
      <point x="191.0" y="528.0" type="line"/>
      <point x="187.0" y="700.0" type="line"/>
      <point x="211.0" y="700.0" type="line"/>
      <point x="207.0" y="539.0" type="line"/>
      <point x="193.0" y="543.0" type="line"/>
      <point x="334.0" y="625.0" type="line"/>
      <point x="347.0" y="603.0" type="line"/>
      <point x="208.0" y="534.0" type="line"/>
      <point x="208.0" y="545.0" type="line"/>
      <point x="347.0" y="475.0" type="line"/>
      <point x="334.0" y="455.0" type="line"/>
      <point x="199.0" y="532.0" type="line"/>
      <point x="207.0" y="534.0" type="line"/>
    </contour>
  </outline>
</glyph>
<glyph name="plus" format="2">
  <advance width="590"/>
  <unicode hex="002B"/>
  <note>
plus
</note>
  <outline>
    <contour>
      <point x="530.0" y="277.0" type="line"/>
      <point x="60.0" y="277.0" type="line"/>
      <point x="60.0" y="299.0" type="line"/>
      <point x="530.0" y="299.0" type="line"/>
    </contour>
    <contour>
      <point x="306.0" y="42.0" type="line"/>
      <point x="284.0" y="42.0" type="line"/>
      <point x="284.0" y="525.0" type="line"/>
      <point x="306.0" y="525.0" type="line"/>
    </contour>
  </outline>
</glyph>
<glyph name="comma" format="2">
  <advance width="216"/>
  <unicode hex="002C"/>
  <note>
comma
</note>
  <outline>
    <contour>
      <point x="104.0" y="54.0" type="qcurve"/>
      <point x="126.0" y="54.0"/>
      <point x="150.0" y="23.0"/>
      <point x="150.0" y="-7.0" type="qcurve" smooth="yes"/>
      <point x="150.0" y="-41.0"/>
      <point x="121.0" y="-89.0"/>
      <point x="86.0" y="-122.0" type="qcurve"/>
      <point x="77.0" y="-110.0" type="line"/>
      <point x="96.0" y="-89.0"/>
      <point x="122.0" y="-49.0"/>
      <point x="122.0" y="-36.0" type="qcurve" smooth="yes"/>
      <point x="122.0" y="-20.0"/>
      <point x="107.0" y="-8.0"/>
      <point x="93.0" y="-3.0" type="qcurve" smooth="yes"/>
      <point x="85.0" y="0.0"/>
      <point x="74.0" y="15.0"/>
      <point x="74.0" y="26.0" type="qcurve"/>
      <point x="74.0" y="38.0"/>
      <point x="89.0" y="54.0"/>
    </contour>
  </outline>
</glyph>
<glyph name="period" format="2">
  <advance width="228"/>
  <unicode hex="002E"/>
  <note>
period
</note>
  <outline>
    <contour>
      <point x="144.0" y="26.0" type="qcurve" smooth="yes"/>
      <point x="144.0" y="13.0"/>
      <point x="128.0" y="-5.0"/>
      <point x="114.0" y="-5.0" type="qcurve" smooth="yes"/>
      <point x="100.0" y="-5.0"/>
      <point x="84.0" y="11.0"/>
      <point x="84.0" y="26.0" type="qcurve" smooth="yes"/>
      <point x="84.0" y="40.0"/>
      <point x="100.0" y="57.0"/>
      <point x="114.0" y="57.0" type="qcurve" smooth="yes"/>
      <point x="128.0" y="57.0"/>
      <point x="144.0" y="41.0"/>
    </contour>
  </outline>
</glyph>
<glyph name="slash" format="2">
  <advance width="566"/>
  <unicode hex="002F"/>
  <note>
slash
</note>
  <outline>
    <contour>
      <point x="99.0" y="-95.0" type="line"/>
      <point x="75.0" y="-95.0" type="line"/>
      <point x="469.0" y="700.0" type="line"/>
      <point x="493.0" y="700.0" type="line"/>
    </contour>
  </outline>
</glyph>
<glyph name="zero" format="2">
  <advance width="620"/>
  <unicode hex="0030"/>
  <outline>
    <contour>
      <point x="568.0" y="350.0" type="qcurve"/>
      <point x="568.0" y="174.0"/>
      <point x="436.0" y="-10.0"/>
      <point x="310.0" y="-10.0" type="qcurve"/>
      <point x="184.0" y="-10.0"/>
      <point x="52.0" y="174.0"/>
      <point x="52.0" y="350.0" type="qcurve"/>
      <point x="52.0" y="526.0"/>
      <point x="184.0" y="710.0"/>
      <point x="310.0" y="710.0" type="qcurve"/>
      <point x="436.0" y="710.0"/>
      <point x="568.0" y="526.0"/>
    </contour>
    <contour>
      <point x="75.0" y="350.0" type="qcurve"/>
      <point x="75.0" y="187.0"/>
      <point x="197.0" y="12.0"/>
      <point x="310.0" y="12.0" type="qcurve"/>
      <point x="424.0" y="12.0"/>
      <point x="545.0" y="187.0"/>
      <point x="545.0" y="350.0" type="qcurve"/>
      <point x="545.0" y="513.0"/>
      <point x="424.0" y="688.0"/>
      <point x="310.0" y="688.0" type="qcurve"/>
      <point x="197.0" y="688.0"/>
      <point x="75.0" y="513.0"/>
    </contour>
  </outline>
</glyph>
<glyph name="one" format="2">
  <advance width="379"/>
  <unicode hex="0031"/>
  <outline>
    <contour>
      <point x="201.0" y="8.0" type="line"/>
      <point x="179.0" y="8.0" type="line"/>
      <point x="179.0" y="678.0" type="line"/>
      <point x="184.0" y="678.0" type="line"/>
      <point x="45.0" y="585.0" type="line"/>
      <point x="39.0" y="605.0" type="line"/>
      <point x="191.0" y="710.0" type="line"/>
      <point x="201.0" y="710.0" type="line"/>
    </contour>
    <contour>
      <point x="319.0" y="22.0" type="line"/>
      <point x="319.0" y="0.0" type="line"/>
      <point x="62.0" y="0.0" type="line"/>
      <point x="62.0" y="22.0" type="line"/>
    </contour>
  </outline>
</glyph>
<glyph name="two" format="2">
  <advance width="548"/>
  <unicode hex="0032"/>
  <outline>
    <contour>
      <point x="94.0" y="22.0" type="line"/>
      <point x="506.0" y="22.0" type="line"/>
      <point x="506.0" y="0.0" type="line"/>
      <point x="78.0" y="0.0" type="line"/>
      <point x="72.0" y="13.0" type="line"/>
      <point x="362.0" y="323.0" type="line" smooth="yes"/>
      <point x="393.0" y="356.0"/>
      <point x="471.0" y="470.0"/>
      <point x="471.0" y="535.0" type="qcurve"/>
      <point x="471.0" y="600.0"/>
      <point x="364.13684210526316" y="688.0"/>
      <point x="283.0" y="688.0" type="qcurve"/>
      <point x="223.42156862745097" y="688.0"/>
      <point x="105.95172595165592" y="612.8352023866875"/>
      <point x="77.0" y="514.0" type="qcurve"/>
      <point x="56.0" y="524.0" type="line"/>
      <point x="84.90676598985685" y="621.6849333450335"/>
      <point x="206.31277533039648" y="710.0"/>
      <point x="285.0" y="710.0" type="qcurve" smooth="yes"/>
      <point x="373.1563981042654" y="710.0"/>
      <point x="494.0" y="612.0"/>
      <point x="494.0" y="536.0" type="qcurve" smooth="yes"/>
      <point x="494.0" y="470.1095890410959"/>
      <point x="424.0" y="356.0"/>
      <point x="385.0" y="314.0" type="qcurve"/>
      <point x="94.0" y="4.0" type="line"/>
    </contour>
  </outline>
</glyph>
<glyph name="three" format="2">
  <advance width="529"/>
  <unicode hex="0033"/>
  <outline>
    <contour>
      <point x="20.0" y="138.0" type="qcurve"/>
      <point x="40.0" y="150.0" type="line"/>
      <point x="90.0" y="68.0"/>
      <point x="202.0" y="12.0"/>
      <point x="266.0" y="12.0" type="qcurve" smooth="yes"/>
      <point x="354.0" y="12.0"/>
      <point x="470.0" y="136.0"/>
      <point x="470.0" y="222.0" type="qcurve"/>
      <point x="470.0" y="308.0"/>
      <point x="359.0" y="423.0"/>
      <point x="280.0" y="423.0" type="qcurve" smooth="yes"/>
      <point x="248.0" y="423.0"/>
      <point x="179.0" y="404.0"/>
      <point x="141.0" y="361.0" type="qcurve"/>
      <point x="127.0" y="383.0" type="line"/>
      <point x="444.0" y="687.0" type="line"/>
      <point x="444.0" y="678.0" type="line"/>
      <point x="89.0" y="678.0" type="line"/>
      <point x="89.0" y="700.0" type="line"/>
      <point x="452.0" y="700.0" type="line"/>
      <point x="465.0" y="676.0" type="line"/>
      <point x="175.0" y="400.0" type="line"/>
      <point x="165.0" y="406.0" type="line"/>
      <point x="191.0" y="425.0"/>
      <point x="242.0" y="445.0"/>
      <point x="280.0" y="445.0" type="qcurve"/>
      <point x="373.0" y="445.0"/>
      <point x="493.0" y="320.0"/>
      <point x="493.0" y="222.0" type="qcurve"/>
      <point x="493.0" y="126.0"/>
      <point x="362.0" y="-10.0"/>
      <point x="264.0" y="-10.0" type="qcurve"/>
      <point x="190.0" y="-10.0"/>
      <point x="68.0" y="57.0"/>
    </contour>
  </outline>
</glyph>
<glyph name="four" format="2">
  <advance width="620"/>
  <unicode hex="0034"/>
  <outline>
    <contour>
      <point x="456.0" y="0.0" type="line"/>
      <point x="434.0" y="0.0" type="line"/>
      <point x="434.0" y="681.0" type="line"/>
      <point x="448.0" y="681.0" type="line"/>
      <point x="57.0" y="204.0" type="line"/>
      <point x="54.0" y="212.0" type="line"/>
      <point x="578.0" y="212.0" type="line"/>
      <point x="578.0" y="190.0" type="line"/>
      <point x="46.0" y="190.0" type="line"/>
      <point x="35.0" y="212.0" type="line"/>
      <point x="436.0" y="700.0" type="line"/>
      <point x="456.0" y="700.0" type="line"/>
    </contour>
  </outline>
</glyph>
<glyph name="six" format="2">
  <advance width="605"/>
  <unicode hex="0036"/>
  <outline>
    <contour>
      <point x="523.0" y="222.0" type="qcurve" smooth="yes"/>
      <point x="523.0" y="125.0"/>
      <point x="391.0" y="-10.0"/>
      <point x="295.0" y="-10.0" type="qcurve"/>
      <point x="201.0" y="-10.0"/>
      <point x="68.0" y="126.0"/>
      <point x="68.0" y="233.0" type="qcurve" smooth="yes"/>
      <point x="66.0" y="290.0"/>
      <point x="108.0" y="426.0"/>
      <point x="156.0" y="501.0" type="qcurve"/>
      <point x="288.0" y="700.0" type="line"/>
      <point x="310.0" y="700.0" type="line"/>
      <point x="312.0" y="695.0" type="line"/>
      <point x="183.0" y="501.0" type="line" smooth="yes"/>
      <point x="141.97967944807775" y="439.3105256816053"/>
      <point x="93.0" y="330.0"/>
      <point x="93.0" y="303.0" type="qcurve"/>
      <point x="87.0" y="306.0" type="line"/>
      <point x="122.02964405337977" y="382.06436994448177"/>
      <point x="230.69082125603865" y="455.0"/>
      <point x="295.0" y="455.0" type="qcurve" smooth="yes"/>
      <point x="391.0" y="455.0"/>
      <point x="523.0" y="321.0"/>
    </contour>
    <contour>
      <point x="92.0" y="221.0" type="qcurve" smooth="yes"/>
      <point x="92.0" y="133.0"/>
      <point x="211.0" y="12.0"/>
      <point x="298.0" y="12.0" type="qcurve"/>
      <point x="382.0" y="12.0"/>
      <point x="500.0" y="134.0"/>
      <point x="500.0" y="223.0" type="qcurve" smooth="yes"/>
      <point x="500.0" y="311.0"/>
      <point x="382.0" y="433.0"/>
      <point x="298.0" y="433.0" type="qcurve" smooth="yes"/>
      <point x="211.0" y="433.0"/>
      <point x="92.0" y="310.0"/>
    </contour>
  </outline>
</glyph>
<glyph name="seven" format="2">
  <advance width="466"/>
  <unicode hex="0037"/>
  <outline>
    <contour>
      <point x="123.00212885439402" y="0.0" type="line"/>
      <point x="98.0" y="0.0" type="line"/>
      <point x="406.0" y="693.0" type="line"/>
      <point x="414.0" y="678.0" type="line"/>
      <point x="0.0" y="678.0" type="line"/>
      <point x="0.0" y="700.0" type="line"/>
      <point x="408.0" y="700.0" type="line"/>
      <point x="424.0" y="680.0" type="line"/>
    </contour>
  </outline>
</glyph>
<glyph name="eight" format="2">
  <advance width="580"/>
  <unicode hex="0038"/>
  <outline>
    <contour>
      <point x="495.0" y="530.0" type="qcurve" smooth="yes"/>
      <point x="495.0" y="477.35"/>
      <point x="416.0131098678077" y="386.00227997701006"/>
      <point x="347.0" y="374.0" type="qcurve"/>
      <point x="351.0" y="386.0" type="line"/>
      <point x="427.97727578548796" y="367.0056072737108"/>
      <point x="526.0" y="266.6185567010309"/>
      <point x="526.0" y="193.0" type="qcurve" smooth="yes"/>
      <point x="526.0" y="109.0"/>
      <point x="389.0" y="-3.0"/>
      <point x="290.0" y="-3.0" type="qcurve"/>
      <point x="192.41525423728814" y="-3.0"/>
      <point x="55.0" y="110.0"/>
      <point x="55.0" y="193.0" type="qcurve" smooth="yes"/>
      <point x="55.0" y="265.62371134020617"/>
      <point x="147.0214840228477" y="367.004978005294"/>
      <point x="229.0" y="386.0" type="qcurve"/>
      <point x="233.0" y="374.0" type="line"/>
      <point x="164.99242335207572" y="383.00100279163706"/>
      <point x="86.0" y="477.35"/>
      <point x="86.0" y="530.0" type="qcurve" smooth="yes"/>
      <point x="86.0" y="610.0"/>
      <point x="205.0" y="710.0"/>
      <point x="290.0" y="710.0" type="qcurve"/>
      <point x="376.0" y="710.0"/>
      <point x="495.0" y="610.0"/>
    </contour>
    <contour>
      <point x="290.0" y="688.0" type="qcurve"/>
      <point x="212.0" y="688.0"/>
      <point x="109.0" y="600.0"/>
      <point x="109.0" y="537.0" type="qcurve"/>
      <point x="109.0" y="473.0"/>
      <point x="212.0" y="388.0"/>
      <point x="290.0" y="388.0" type="qcurve" smooth="yes"/>
      <point x="369.0" y="388.0"/>
      <point x="472.0" y="471.0"/>
      <point x="472.0" y="537.0" type="qcurve"/>
      <point x="472.0" y="600.0"/>
      <point x="369.0" y="688.0"/>
    </contour>
    <contour>
      <point x="78.0" y="191.0" type="qcurve"/>
      <point x="78.0" y="124.0"/>
      <point x="203.0" y="19.0"/>
      <point x="290.0" y="19.0" type="qcurve"/>
      <point x="378.0" y="19.0"/>
      <point x="503.0" y="123.0"/>
      <point x="503.0" y="191.0" type="qcurve"/>
      <point x="503.0" y="269.0"/>
      <point x="382.0" y="368.0"/>
      <point x="290.0" y="368.0" type="qcurve" smooth="yes"/>
      <point x="199.0" y="368.0"/>
      <point x="78.0" y="269.0"/>
    </contour>
  </outline>
</glyph>
<glyph name="nine" format="2">
  <advance width="548"/>
  <unicode hex="0039"/>
  <outline>
    <contour>
      <point x="47.0" y="478.0" type="qcurve" smooth="yes"/>
      <point x="47.0" y="575.0"/>
      <point x="179.0" y="710.0"/>
      <point x="275.0" y="710.0" type="qcurve"/>
      <point x="369.4159292035398" y="710.0"/>
      <point x="502.0" y="579.037037037037"/>
      <point x="502.0" y="476.0" type="qcurve" smooth="yes"/>
      <point x="502.0" y="406.75"/>
      <point x="441.9264691933609" y="268.7870934187281"/>
      <point x="403.0" y="199.0" type="qcurve"/>
      <point x="292.0" y="0.0" type="line"/>
      <point x="270.0" y="0.0" type="line"/>
      <point x="268.0" y="5.0" type="line"/>
      <point x="478.0" y="384.0" type="line"/>
      <point x="481.0" y="387.0" type="line"/>
      <point x="443.0" y="314.0"/>
      <point x="339.0" y="245.0"/>
      <point x="275.0" y="245.0" type="qcurve"/>
      <point x="179.0" y="245.0"/>
      <point x="47.0" y="379.0"/>
    </contour>
    <contour>
      <point x="478.0" y="479.0" type="qcurve" smooth="yes"/>
      <point x="478.0" y="567.0"/>
      <point x="359.0" y="688.0"/>
      <point x="272.0" y="688.0" type="qcurve"/>
      <point x="188.0" y="688.0"/>
      <point x="70.0" y="566.0"/>
      <point x="70.0" y="477.0" type="qcurve" smooth="yes"/>
      <point x="70.0" y="389.0"/>
      <point x="188.0" y="267.0"/>
      <point x="272.0" y="267.0" type="qcurve" smooth="yes"/>
      <point x="359.0" y="267.0"/>
      <point x="478.0" y="390.0"/>
    </contour>
  </outline>
</glyph>
<glyph name="less" format="2">
  <advance width="472"/>
  <unicode hex="003C"/>
  <note>
less
</note>
  <outline>
    <contour>
      <point x="70.0" y="250.0" type="line"/>
      <point x="70.0" y="256.0" type="line"/>
      <point x="416.0" y="56.0" type="line"/>
      <point x="404.0" y="36.0" type="line"/>
      <point x="48.0" y="240.0" type="line"/>
      <point x="48.0" y="266.0" type="line"/>
      <point x="404.0" y="470.0" type="line"/>
      <point x="416.0" y="450.0" type="line"/>
    </contour>
  </outline>
</glyph>
<glyph name="equal" format="2">
  <advance width="566"/>
  <unicode hex="003D"/>
  <note>
equal
</note>
  <outline>
    <contour>
      <point x="501.0" y="347.0" type="line"/>
      <point x="65.0" y="347.0" type="line"/>
      <point x="65.0" y="371.0" type="line"/>
      <point x="501.0" y="371.0" type="line"/>
    </contour>
    <contour>
      <point x="501.0" y="190.0" type="line"/>
      <point x="65.0" y="190.0" type="line"/>
      <point x="65.0" y="214.0" type="line"/>
      <point x="501.0" y="214.0" type="line"/>
    </contour>
  </outline>
</glyph>
<glyph name="greater" format="2">
  <advance width="470"/>
  <unicode hex="003E"/>
  <note>
greater
</note>
  <outline>
    <contour>
      <point x="402.0" y="256.0" type="line"/>
      <point x="402.0" y="250.0" type="line"/>
      <point x="56.0" y="450.0" type="line"/>
      <point x="68.0" y="470.0" type="line"/>
      <point x="424.0" y="266.0" type="line"/>
      <point x="424.0" y="240.0" type="line"/>
      <point x="68.0" y="36.0" type="line"/>
      <point x="56.0" y="56.0" type="line"/>
    </contour>
  </outline>
</glyph>
<glyph name="question" format="2">
  <advance width="438"/>
  <unicode hex="003F"/>
  <note>
question
</note>
  <outline>
    <contour>
      <point x="186.0" y="146.0" type="line"/>
      <point x="184.0" y="315.0" type="line"/>
      <point x="277.0" y="337.0"/>
      <point x="375.0" y="448.0"/>
      <point x="375.0" y="522.0" type="qcurve" smooth="yes"/>
      <point x="375.0" y="587.0"/>
      <point x="282.0" y="688.0"/>
      <point x="201.0" y="688.0" type="qcurve" smooth="yes"/>
      <point x="143.0" y="688.0"/>
      <point x="44.0" y="624.0"/>
      <point x="18.0" y="547.0" type="qcurve"/>
      <point x="0.0" y="559.0" type="line"/>
      <point x="23.0" y="632.0"/>
      <point x="131.0" y="710.0"/>
      <point x="200.0" y="710.0" type="qcurve" smooth="yes"/>
      <point x="288.0" y="710.0"/>
      <point x="398.0" y="601.0"/>
      <point x="398.0" y="522.0" type="qcurve" smooth="yes"/>
      <point x="398.0" y="439.0"/>
      <point x="285.0" y="315.0"/>
      <point x="190.0" y="296.0" type="qcurve"/>
      <point x="208.0" y="306.0" type="line"/>
      <point x="206.0" y="146.0" type="line"/>
    </contour>
    <contour>
      <point x="226.0" y="20.0" type="qcurve" smooth="yes"/>
      <point x="226.0" y="8.0"/>
      <point x="213.0" y="-10.0"/>
      <point x="200.0" y="-10.0" type="qcurve" smooth="yes"/>
      <point x="187.0" y="-10.0"/>
      <point x="174.0" y="6.0"/>
      <point x="174.0" y="20.0" type="qcurve" smooth="yes"/>
      <point x="174.0" y="33.0"/>
      <point x="188.0" y="50.0"/>
      <point x="200.0" y="50.0" type="qcurve" smooth="yes"/>
      <point x="214.0" y="50.0"/>
      <point x="226.0" y="34.0"/>
    </contour>
  </outline>
</glyph>
<glyph name="at" format="2">
  <advance width="986"/>
  <unicode hex="0040"/>
  <note>
at
</note>
  <outline>
    <contour>
      <point x="931.0" y="384.0" type="qcurve"/>
      <point x="931.0" y="229.0"/>
      <point x="784.0" y="55.0"/>
      <point x="699.0" y="55.0" type="qcurve"/>
      <point x="621.0" y="55.0"/>
      <point x="624.0" y="168.0"/>
      <point x="637.0" y="204.0" type="qcurve"/>
      <point x="646.0" y="229.0" type="line"/>
      <point x="656.0" y="218.0" type="line"/>
      <point x="630.429970925188" y="143.1839890033276"/>
      <point x="515.0" y="55.0"/>
      <point x="443.0" y="55.0" type="qcurve"/>
      <point x="370.0" y="55.0"/>
      <point x="274.0" y="152.0"/>
      <point x="274.0" y="231.0" type="qcurve"/>
      <point x="274.0" y="305.31818181818176"/>
      <point x="321.08197282936084" y="413.0776584699208"/>
      <point x="359.0" y="449.0" type="qcurve" smooth="yes"/>
      <point x="392.26767602141143" y="481.2595646268232"/>
      <point x="465.00000000000006" y="510.0"/>
      <point x="501.0" y="510.0" type="qcurve"/>
      <point x="555.0782122905028" y="510.0"/>
      <point x="656.0280946100368" y="450.9050134613041"/>
      <point x="677.0" y="380.0" type="qcurve"/>
      <point x="672.0" y="380.0" type="line"/>
      <point x="693.9982360920735" y="501.0" type="line"/>
      <point x="715.4998479389718" y="501.0" type="line"/>
      <point x="655.0000608244112" y="186.0003041220563" type="line"/>
      <point x="653.0" y="177.0" type="line" smooth="yes"/>
      <point x="637.0" y="106.0"/>
      <point x="664.0" y="77.0"/>
      <point x="697.0" y="77.0" type="qcurve"/>
      <point x="771.0" y="77.0"/>
      <point x="908.0" y="229.0"/>
      <point x="908.0" y="382.0" type="qcurve"/>
      <point x="908.0" y="525.0"/>
      <point x="703.0" y="688.0"/>
      <point x="547.0" y="688.0" type="qcurve"/>
      <point x="335.0" y="688.0"/>
      <point x="78.0" y="400.0"/>
      <point x="78.0" y="231.0" type="qcurve"/>
      <point x="78.0" y="62.0"/>
      <point x="273.0" y="-140.0"/>
      <point x="424.0" y="-140.0" type="qcurve"/>
      <point x="472.0" y="-140.0"/>
      <point x="578.0" y="-115.0"/>
      <point x="625.0" y="-95.0" type="qcurve" smooth="yes"/>
      <point x="639.0" y="-89.0"/>
      <point x="662.9762083257738" y="-75.02379167422609"/>
      <point x="665.0" y="-73.0" type="qcurve"/>
      <point x="677.0" y="-91.0" type="line"/>
      <point x="625.0" y="-123.0"/>
      <point x="485.0" y="-162.0"/>
      <point x="424.0" y="-162.0" type="qcurve"/>
      <point x="261.0" y="-162.0"/>
      <point x="55.0" y="52.0"/>
      <point x="55.0" y="224.0" type="qcurve"/>
      <point x="55.0" y="326.0"/>
      <point x="122.53346746970013" y="483.76738623626454"/>
      <point x="180.0" y="550.0" type="qcurve" smooth="yes"/>
      <point x="242.71597367735643" y="622.6708901340797"/>
      <point x="425.0" y="710.0"/>
      <point x="546.0" y="710.0" type="qcurve"/>
      <point x="716.0" y="710.0"/>
      <point x="931.0" y="526.0"/>
    </contour>
    <contour>
      <point x="297.0" y="232.0" type="qcurve"/>
      <point x="297.0" y="164.0"/>
      <point x="379.1095890410959" y="77.0"/>
      <point x="445.0" y="77.0" type="qcurve"/>
      <point x="528.6093023255814" y="77.0"/>
      <point x="640.0" y="195.0"/>
      <point x="659.0" y="305.0" type="qcurve" smooth="yes"/>
      <point x="660.0" y="312.0"/>
      <point x="662.0" y="324.7142857142857"/>
      <point x="662.0" y="329.0" type="qcurve" smooth="yes"/>
      <point x="662.0" y="398.9216867469879"/>
      <point x="569.0" y="488.0"/>
      <point x="501.0" y="488.0" type="qcurve"/>
      <point x="423.0" y="488.0"/>
      <point x="297.0" y="345.0"/>
    </contour>
  </outline>
</glyph>
<glyph name="A" format="2">
  <advance width="611"/>
  <unicode hex="0041"/>
  <note>
A
</note>
  <outline>
    <contour>
      <point x="304.0" y="682.0" type="qcurve"/>
      <point x="305.0" y="682.0" type="line"/>
      <point x="302.0815149688605" y="672.2717165628684"/>
      <point x="262.2986277661835" y="569.624134902567"/>
      <point x="237.0" y="503.0" type="qcurve"/>
      <point x="46.0" y="0.0" type="line"/>
      <point x="20.0" y="0.0" type="line"/>
      <point x="289.0" y="700.0" type="line"/>
      <point x="322.0" y="700.0" type="line"/>
      <point x="591.0" y="0.0" type="line"/>
      <point x="565.0" y="0.0" type="line"/>
      <point x="372.0" y="504.0" type="line" smooth="yes"/>
      <point x="347.6414537512344" y="567.6098824320096"/>
      <point x="307.89076396276863" y="672.2730900930785"/>
    </contour>
    <contour>
      <point x="299.0" y="230.0" type="line"/>
      <point x="120.0" y="230.0" type="line"/>
      <point x="128.0" y="253.0" type="line"/>
      <point x="299.0" y="253.0" type="line"/>
    </contour>
    <contour>
      <point x="493.0" y="230.0" type="line"/>
      <point x="299.0" y="230.0" type="line"/>
      <point x="299.0" y="253.0" type="line"/>
      <point x="485.0" y="253.0" type="line"/>
    </contour>
  </outline>
</glyph>
<glyph name="B" format="2">
  <advance width="648"/>
  <unicode hex="0042"/>
  <note>
B
</note>
  <outline>
    <contour>
      <point x="110.0" y="700.0" type="line"/>
      <point x="378.0" y="700.0" type="line"/>
      <point x="461.0" y="700.0"/>
      <point x="560.0" y="601.0"/>
      <point x="560.0" y="531.0" type="qcurve"/>
      <point x="560.0" y="459.0"/>
      <point x="451.0" y="359.0"/>
      <point x="365.0" y="359.0" type="qcurve"/>
      <point x="368.0" y="375.0" type="line"/>
      <point x="481.0" y="375.0"/>
      <point x="597.0" y="270.0"/>
      <point x="597.0" y="192.0" type="qcurve"/>
      <point x="597.0" y="111.0"/>
      <point x="492.0" y="0.0"/>
      <point x="371.0" y="0.0" type="qcurve"/>
      <point x="110.0" y="0.0" type="line"/>
    </contour>
    <contour>
      <point x="537.0" y="532.0" type="qcurve"/>
      <point x="537.0" y="593.0"/>
      <point x="450.0" y="678.0"/>
      <point x="375.0" y="678.0" type="qcurve"/>
      <point x="124.0" y="678.0" type="line"/>
      <point x="131.0" y="691.0" type="line"/>
      <point x="131.0" y="364.0" type="line"/>
      <point x="125.0" y="378.0" type="line"/>
      <point x="372.0" y="378.0" type="line"/>
      <point x="440.0" y="378.0"/>
      <point x="537.0" y="468.0"/>
    </contour>
    <contour>
      <point x="574.0" y="188.0" type="qcurve"/>
      <point x="574.0" y="262.0"/>
      <point x="471.0" y="356.0"/>
      <point x="377.0" y="356.0" type="qcurve"/>
      <point x="125.0" y="356.0" type="line"/>
      <point x="131.0" y="370.0" type="line"/>
      <point x="131.0" y="13.0" type="line"/>
      <point x="122.0" y="22.0" type="line"/>
      <point x="372.0" y="22.0" type="line"/>
      <point x="481.0" y="22.0"/>
      <point x="574.0" y="118.0"/>
    </contour>
  </outline>
</glyph>
<glyph name="D" format="2">
  <advance width="737"/>
  <unicode hex="0044"/>
  <note>
D
</note>
  <outline>
    <contour>
      <point x="110.0" y="700.0" type="line"/>
      <point x="357.0" y="700.0" type="line" smooth="yes"/>
      <point x="485.0" y="700.0"/>
      <point x="682.0" y="502.0"/>
      <point x="682.0" y="350.0" type="qcurve" smooth="yes"/>
      <point x="682.0" y="199.0"/>
      <point x="485.0" y="0.0"/>
      <point x="357.0" y="0.0" type="qcurve"/>
      <point x="110.0" y="0.0" type="line"/>
    </contour>
    <contour>
      <point x="122.0" y="22.0" type="line"/>
      <point x="352.0" y="22.0" type="line" smooth="yes"/>
      <point x="473.0" y="22.0"/>
      <point x="659.0" y="211.0"/>
      <point x="659.0" y="350.0" type="qcurve" smooth="yes"/>
      <point x="659.0" y="490.0"/>
      <point x="473.0" y="678.0"/>
      <point x="352.0" y="678.0" type="qcurve"/>
      <point x="121.0" y="678.0" type="line"/>
      <point x="132.0" y="689.0" type="line"/>
      <point x="132.0" y="13.0" type="line"/>
    </contour>
  </outline>
</glyph>
<glyph name="E" format="2">
  <advance width="566"/>
  <unicode hex="0045"/>
  <note>
E
</note>
  <outline>
    <contour>
      <point x="132.0" y="0.0" type="line"/>
      <point x="110.0" y="0.0" type="line"/>
      <point x="110.0" y="700.0" type="line"/>
      <point x="132.0" y="700.0" type="line"/>
    </contour>
    <contour>
      <point x="495.0" y="0.0" type="line"/>
      <point x="124.0" y="0.0" type="line"/>
      <point x="124.0" y="22.0" type="line"/>
      <point x="495.0" y="22.0" type="line"/>
    </contour>
    <contour>
      <point x="443.0" y="351.0" type="line"/>
      <point x="123.0" y="351.0" type="line"/>
      <point x="123.0" y="373.0" type="line"/>
      <point x="443.0" y="373.0" type="line"/>
    </contour>
    <contour>
      <point x="501.0" y="678.0" type="line"/>
      <point x="123.0" y="678.0" type="line"/>
      <point x="123.0" y="700.0" type="line"/>
      <point x="501.0" y="700.0" type="line"/>
    </contour>
  </outline>
</glyph>
<glyph name="F" format="2">
  <advance width="575"/>
  <unicode hex="0046"/>
  <note>
F
</note>
  <outline>
    <contour>
      <point x="110.0" y="0.0" type="line"/>
      <point x="110.0" y="700.0" type="line"/>
      <point x="132.0" y="700.0" type="line"/>
      <point x="132.0" y="0.0" type="line"/>
    </contour>
    <contour>
      <point x="444.0" y="341.0" type="line"/>
      <point x="122.0" y="341.0" type="line"/>
      <point x="122.0" y="363.0" type="line"/>
      <point x="444.0" y="363.0" type="line"/>
    </contour>
    <contour>
      <point x="501.0" y="678.0" type="line"/>
      <point x="123.0" y="678.0" type="line"/>
      <point x="123.0" y="700.0" type="line"/>
      <point x="501.0" y="700.0" type="line"/>
    </contour>
  </outline>
</glyph>
<glyph name="G" format="2">
  <advance width="767"/>
  <unicode hex="0047"/>
  <note>
G
</note>
  <outline>
    <contour>
      <point x="55.0" y="346.0" type="qcurve"/>
      <point x="55.0" y="505.0"/>
      <point x="248.0" y="710.0"/>
      <point x="399.0" y="710.0" type="qcurve" smooth="yes"/>
      <point x="484.0" y="710.0"/>
      <point x="620.0" y="639.0"/>
      <point x="668.0" y="580.0" type="qcurve"/>
      <point x="651.0" y="564.0" type="line"/>
      <point x="608.0" y="621.0"/>
      <point x="478.0" y="688.0"/>
      <point x="399.0" y="688.0" type="qcurve" smooth="yes"/>
      <point x="260.0" y="688.0"/>
      <point x="78.0" y="494.0"/>
      <point x="78.0" y="346.0" type="qcurve"/>
      <point x="78.0" y="200.0"/>
      <point x="261.0" y="12.0"/>
      <point x="400.0" y="12.0" type="qcurve" smooth="yes"/>
      <point x="544.0" y="12.0"/>
      <point x="699.0" y="184.0"/>
      <point x="699.0" y="322.0" type="qcurve" smooth="yes"/>
      <point x="699.0" y="341.0" type="line"/>
      <point x="705.0" y="336.0" type="line"/>
      <point x="409.0" y="336.0" type="line"/>
      <point x="409.0" y="358.0" type="line"/>
      <point x="722.0" y="358.0" type="line"/>
      <point x="722.0" y="352.0"/>
      <point x="722.0" y="345.0"/>
      <point x="722.0" y="339.0" type="qcurve" smooth="yes"/>
      <point x="722.0" y="168.0"/>
      <point x="549.0" y="-10.0"/>
      <point x="400.0" y="-10.0" type="qcurve"/>
      <point x="249.0" y="-10.0"/>
      <point x="55.0" y="189.0"/>
    </contour>
  </outline>
</glyph>
<glyph name="H" format="2">
  <advance width="732"/>
  <unicode hex="0048"/>
  <note>
H
</note>
  <outline>
    <contour>
      <point x="110.0" y="700.0" type="line"/>
      <point x="132.0" y="700.0" type="line"/>
      <point x="132.0" y="0.0" type="line"/>
      <point x="110.0" y="0.0" type="line"/>
    </contour>
    <contour>
      <point x="599.0" y="700.0" type="line"/>
      <point x="621.0" y="700.0" type="line"/>
      <point x="621.0" y="0.0" type="line"/>
      <point x="599.0" y="0.0" type="line"/>
    </contour>
    <contour>
      <point x="121.0" y="338.0" type="line"/>
      <point x="121.0" y="360.0" type="line"/>
      <point x="610.0" y="360.0" type="line"/>
      <point x="610.0" y="338.0" type="line"/>
    </contour>
  </outline>
</glyph>
<glyph name="I" format="2">
  <advance width="386"/>
  <unicode hex="0049"/>
  <note>
I
</note>
  <outline>
    <contour>
      <point x="204.0" y="700.0" type="qcurve"/>
      <point x="204.0" y="0.0" type="line"/>
      <point x="182.0" y="0.0" type="line"/>
      <point x="182.0" y="700.0" type="line"/>
      <point x="210.0" y="700.0"/>
      <point x="176.0" y="700.0"/>
    </contour>
    <contour>
      <point x="336.0" y="700.0" type="line"/>
      <point x="336.0" y="678.0" type="line"/>
      <point x="50.0" y="678.0" type="line"/>
      <point x="50.0" y="700.0" type="line"/>
    </contour>
    <contour>
      <point x="336.0" y="22.0" type="line"/>
      <point x="336.0" y="0.0" type="line"/>
      <point x="50.0" y="0.0" type="line"/>
      <point x="50.0" y="22.0" type="line"/>
    </contour>
  </outline>
</glyph>
<glyph name="J" format="2">
  <advance width="559"/>
  <unicode hex="004A"/>
  <note>
J
</note>
  <outline>
    <contour>
      <point x="209.0" y="-10.0" type="qcurve"/>
      <point x="140.0" y="-10.0"/>
      <point x="44.0" y="60.0"/>
      <point x="20.0" y="120.0" type="qcurve"/>
      <point x="36.0" y="135.0" type="line"/>
      <point x="64.0" y="72.0"/>
      <point x="151.0" y="12.0"/>
      <point x="211.0" y="12.0" type="qcurve" smooth="yes"/>
      <point x="286.0" y="12.0"/>
      <point x="381.0" y="107.0"/>
      <point x="381.0" y="213.0" type="qcurve"/>
      <point x="381.0" y="700.0" type="line"/>
      <point x="403.0" y="700.0" type="line"/>
      <point x="403.0" y="213.0" type="line"/>
      <point x="403.0" y="97.0"/>
      <point x="294.0" y="-10.0"/>
    </contour>
    <contour>
      <point x="509.0" y="700.0" type="line"/>
      <point x="509.0" y="678.0" type="line"/>
      <point x="252.0" y="678.0" type="line"/>
      <point x="252.0" y="700.0" type="line"/>
    </contour>
  </outline>
</glyph>
<glyph name="K" format="2">
  <advance width="636"/>
  <unicode hex="004B"/>
  <note>
K
</note>
  <outline>
    <contour>
      <point x="110.0" y="0.0" type="line"/>
      <point x="110.0" y="700.0" type="line"/>
      <point x="132.0" y="700.0" type="line"/>
      <point x="132.0" y="0.0" type="line"/>
    </contour>
    <contour>
      <point x="120.0" y="234.0" type="line"/>
      <point x="120.0" y="265.0" type="line"/>
      <point x="566.0" y="700.0" type="line"/>
      <point x="598.0" y="700.0" type="line"/>
    </contour>
    <contour>
      <point x="587.0" y="0.0" type="line"/>
      <point x="282.0" y="404.0" type="line"/>
      <point x="299.0" y="420.0" type="line"/>
      <point x="616.0" y="0.0" type="line"/>
    </contour>
  </outline>
</glyph>
<glyph name="L" format="2">
  <advance width="493"/>
  <unicode hex="004C"/>
  <note>
L
</note>
  <outline>
    <contour>
      <point x="122.0" y="22.0" type="line"/>
      <point x="483.0" y="22.0" type="line"/>
      <point x="483.0" y="0.0" type="line"/>
      <point x="110.0" y="0.0" type="line"/>
      <point x="110.0" y="700.0" type="line"/>
      <point x="132.0" y="700.0" type="line"/>
      <point x="132.0" y="13.0" type="line"/>
    </contour>
  </outline>
</glyph>
<glyph name="M" format="2">
  <advance width="828"/>
  <unicode hex="004D"/>
  <note>
M
</note>
  <outline>
    <contour>
      <point x="110.0" y="700.0" type="line"/>
      <point x="127.0" y="700.0" type="line"/>
      <point x="421.0" y="232.0" type="line"/>
      <point x="418.0" y="232.0" type="line"/>
      <point x="711.0" y="700.0" type="line"/>
      <point x="728.0" y="700.0" type="line"/>
      <point x="728.0" y="0.0" type="line"/>
      <point x="706.0" y="0.0" type="line"/>
      <point x="706.0" y="383.0" type="line" smooth="yes"/>
      <point x="706.0" y="472.0"/>
      <point x="706.0" y="614.0"/>
      <point x="709.0" y="684.0" type="qcurve"/>
      <point x="725.0" y="679.0" type="line"/>
      <point x="427.0" y="204.0" type="line"/>
      <point x="412.0" y="204.0" type="line"/>
      <point x="119.0" y="672.0" type="line"/>
      <point x="129.0" y="684.0" type="line"/>
      <point x="132.0" y="618.0"/>
      <point x="132.0" y="472.0"/>
      <point x="132.0" y="383.0" type="qcurve"/>
      <point x="132.0" y="0.0" type="line"/>
      <point x="110.0" y="0.0" type="line"/>
    </contour>
  </outline>
</glyph>
<glyph name="N" format="2">
  <advance width="730"/>
  <unicode hex="004E"/>
  <note>
N
</note>
  <outline>
    <contour>
      <point x="598.0" y="241.0" type="qcurve"/>
      <point x="598.0" y="700.0" type="line"/>
      <point x="620.0" y="700.0" type="line"/>
      <point x="620.0" y="0.0" type="line"/>
      <point x="600.0" y="0.0" type="line"/>
      <point x="115.0" y="686.0" type="line"/>
      <point x="130.0" y="686.0" type="line"/>
      <point x="131.0" y="661.0"/>
      <point x="133.0" y="525.0"/>
      <point x="132.0" y="470.0" type="qcurve"/>
      <point x="132.0" y="0.0" type="line"/>
      <point x="110.0" y="0.0" type="line"/>
      <point x="110.0" y="700.0" type="line"/>
      <point x="132.0" y="700.0" type="line"/>
      <point x="605.0" y="31.0" type="line"/>
      <point x="601.0" y="31.0" type="line"/>
      <point x="601.0" y="75.0"/>
      <point x="599.0" y="177.0"/>
    </contour>
  </outline>
</glyph>
<glyph name="O" format="2">
  <advance width="798"/>
  <unicode hex="004F"/>
  <note>
O
</note>
  <outline>
    <contour>
      <point x="399.0" y="710.0" type="qcurve"/>
      <point x="550.0" y="710.0"/>
      <point x="743.0" y="508.0"/>
      <point x="743.0" y="349.0" type="qcurve"/>
      <point x="743.0" y="191.0"/>
      <point x="550.0" y="-10.0"/>
      <point x="399.0" y="-10.0" type="qcurve"/>
      <point x="248.0" y="-10.0"/>
      <point x="55.0" y="191.0"/>
      <point x="55.0" y="349.0" type="qcurve"/>
      <point x="55.0" y="507.0"/>
      <point x="248.0" y="710.0"/>
    </contour>
    <contour>
      <point x="399.0" y="12.0" type="qcurve" smooth="yes"/>
      <point x="539.0" y="12.0"/>
      <point x="720.0" y="202.0"/>
      <point x="720.0" y="349.0" type="qcurve"/>
      <point x="720.0" y="496.0"/>
      <point x="539.0" y="688.0"/>
      <point x="399.0" y="688.0" type="qcurve" smooth="yes"/>
      <point x="260.0" y="688.0"/>
      <point x="78.0" y="496.0"/>
      <point x="78.0" y="349.0" type="qcurve"/>
      <point x="78.0" y="202.0"/>
      <point x="260.0" y="12.0"/>
    </contour>
  </outline>
</glyph>
<glyph name="P" format="2">
  <advance width="600"/>
  <unicode hex="0050"/>
  <note>
P
</note>
  <outline>
    <contour>
      <point x="110.0" y="700.0" type="line"/>
      <point x="361.0" y="700.0" type="line" smooth="yes"/>
      <point x="444.0" y="700.0"/>
      <point x="545.0" y="593.0"/>
      <point x="545.0" y="507.0" type="qcurve" smooth="yes"/>
      <point x="545.0" y="411.0"/>
      <point x="444.0" y="291.0"/>
      <point x="361.0" y="291.0" type="qcurve"/>
      <point x="118.0" y="291.0" type="line"/>
      <point x="132.0" y="300.0" type="line"/>
      <point x="132.0" y="0.0" type="line"/>
      <point x="110.0" y="0.0" type="line"/>
    </contour>
    <contour>
      <point x="117.0" y="313.0" type="line"/>
      <point x="367.0" y="313.0" type="line" smooth="yes"/>
      <point x="437.0" y="313.0"/>
      <point x="522.0" y="421.0"/>
      <point x="522.0" y="507.0" type="qcurve" smooth="yes"/>
      <point x="522.0" y="582.0"/>
      <point x="437.0" y="678.0"/>
      <point x="367.0" y="678.0" type="qcurve"/>
      <point x="119.0" y="678.0" type="line"/>
      <point x="132.0" y="690.0" type="line"/>
      <point x="132.0" y="305.0" type="line"/>
    </contour>
  </outline>
</glyph>
<glyph name="Q" format="2">
  <advance width="798"/>
  <unicode hex="0051"/>
  <note>
Q
</note>
  <outline>
    <contour>
      <point x="399.0" y="710.0" type="qcurve"/>
      <point x="550.0" y="710.0"/>
      <point x="743.0" y="508.0"/>
      <point x="743.0" y="349.0" type="qcurve"/>
      <point x="743.0" y="191.0"/>
      <point x="550.0" y="-10.0"/>
      <point x="399.0" y="-10.0" type="qcurve"/>
      <point x="248.0" y="-10.0"/>
      <point x="55.0" y="191.0"/>
      <point x="55.0" y="349.0" type="qcurve"/>
      <point x="55.0" y="507.0"/>
      <point x="248.0" y="710.0"/>
    </contour>
    <contour>
      <point x="399.0" y="12.0" type="qcurve" smooth="yes"/>
      <point x="539.0" y="12.0"/>
      <point x="720.0" y="202.0"/>
      <point x="720.0" y="349.0" type="qcurve"/>
      <point x="720.0" y="496.0"/>
      <point x="539.0" y="688.0"/>
      <point x="399.0" y="688.0" type="qcurve" smooth="yes"/>
      <point x="260.0" y="688.0"/>
      <point x="78.0" y="496.0"/>
      <point x="78.0" y="349.0" type="qcurve"/>
      <point x="78.0" y="202.0"/>
      <point x="260.0" y="12.0"/>
    </contour>
    <contour>
      <point x="416.0" y="272.0" type="line"/>
      <point x="669.0" y="-65.0" type="line"/>
      <point x="652.0" y="-78.0" type="line"/>
      <point x="398.0" y="260.0" type="line"/>
    </contour>
  </outline>
</glyph>
<glyph name="R" format="2">
  <advance width="609"/>
  <unicode hex="0052"/>
  <note>
R
</note>
  <outline>
    <contour>
      <point x="545.0" y="507.0" type="qcurve"/>
      <point x="545.0" y="411.0"/>
      <point x="444.0" y="291.0"/>
      <point x="361.0" y="291.0" type="qcurve"/>
      <point x="121.0" y="291.0" type="line"/>
      <point x="121.0" y="313.0" type="line"/>
      <point x="367.0" y="313.0" type="line"/>
      <point x="437.0" y="313.0"/>
      <point x="522.0" y="421.0"/>
      <point x="522.0" y="507.0" type="qcurve"/>
      <point x="522.0" y="582.0"/>
      <point x="437.0" y="678.0"/>
      <point x="367.0" y="678.0" type="qcurve"/>
      <point x="119.0" y="678.0" type="line"/>
      <point x="132.0" y="690.0" type="line"/>
      <point x="132.0" y="0.0" type="line"/>
      <point x="110.0" y="0.0" type="line"/>
      <point x="110.0" y="700.0" type="line"/>
      <point x="361.0" y="700.0" type="line"/>
      <point x="444.0" y="700.0"/>
      <point x="545.0" y="593.0"/>
    </contour>
    <contour>
      <point x="368.0" y="298.0" type="line"/>
      <point x="391.0" y="305.0" type="line"/>
      <point x="569.0" y="0.0" type="line"/>
      <point x="543.0" y="0.0" type="line"/>
    </contour>
  </outline>
</glyph>
<glyph name="S" format="2">
  <advance width="567"/>
  <unicode hex="0053"/>
  <note>
S
</note>
  <outline>
    <contour>
      <point x="43.0" y="115.0" type="qcurve"/>
      <point x="61.0" y="131.0" type="line"/>
      <point x="99.0" y="72.0"/>
      <point x="221.0" y="12.0"/>
      <point x="303.0" y="12.0" type="qcurve" smooth="yes"/>
      <point x="387.0" y="12.0"/>
      <point x="504.0" y="102.0"/>
      <point x="504.0" y="172.0" type="qcurve" smooth="yes"/>
      <point x="504.0" y="244.0"/>
      <point x="370.0" y="312.0"/>
      <point x="264.0" y="342.0" type="qcurve" smooth="yes"/>
      <point x="169.7975421396178" y="368.05599898265893"/>
      <point x="65.0" y="450.96089385474863"/>
      <point x="65.0" y="526.0" type="qcurve"/>
      <point x="65.0" y="604.8571428571428"/>
      <point x="196.0" y="710.0"/>
      <point x="292.0" y="710.0" type="qcurve"/>
      <point x="373.0" y="710.0"/>
      <point x="477.0" y="658.0"/>
      <point x="511.0" y="611.0" type="qcurve"/>
      <point x="494.0" y="596.0" type="line"/>
      <point x="461.0" y="640.0"/>
      <point x="366.0" y="688.0"/>
      <point x="292.0" y="688.0" type="qcurve"/>
      <point x="206.0" y="688.0"/>
      <point x="88.0" y="597.0"/>
      <point x="88.0" y="526.0" type="qcurve"/>
      <point x="88.0" y="458.0"/>
      <point x="188.0" y="385.0"/>
      <point x="272.0" y="363.0" type="qcurve" smooth="yes"/>
      <point x="391.0" y="333.0"/>
      <point x="527.0" y="251.0"/>
      <point x="527.0" y="172.0" type="qcurve" smooth="yes"/>
      <point x="527.0" y="94.0"/>
      <point x="398.0" y="-10.0"/>
      <point x="303.0" y="-10.0" type="qcurve" smooth="yes"/>
      <point x="214.0" y="-10.0"/>
      <point x="83.0" y="55.0"/>
    </contour>
  </outline>
</glyph>
<glyph name="T" format="2">
  <advance width="488"/>
  <unicode hex="0054"/>
  <note>
T
</note>
  <outline>
    <contour>
      <point x="255.0" y="0.0" type="line"/>
      <point x="233.0" y="0.0" type="line"/>
      <point x="233.0" y="688.0" type="line"/>
      <point x="255.0" y="688.0" type="line"/>
    </contour>
    <contour>
      <point x="468.0" y="678.0" type="line"/>
      <point x="20.0" y="678.0" type="line"/>
      <point x="20.0" y="700.0" type="line"/>
      <point x="468.0" y="700.0" type="line"/>
    </contour>
  </outline>
</glyph>
<glyph name="U" format="2">
  <advance width="744"/>
  <unicode hex="0055"/>
  <note>
U
</note>
  <outline>
    <contour>
      <point x="612.0" y="700.0" type="line"/>
      <point x="634.0" y="700.0" type="line"/>
      <point x="634.0" y="269.0" type="line"/>
      <point x="634.0" y="149.0"/>
      <point x="484.0" y="-6.0"/>
      <point x="368.0" y="-6.0" type="qcurve"/>
      <point x="255.0" y="-6.0"/>
      <point x="111.0" y="149.0"/>
      <point x="110.0" y="269.0" type="qcurve"/>
      <point x="110.0" y="700.0" type="line"/>
      <point x="132.0" y="700.0" type="line"/>
      <point x="132.0" y="278.0" type="line"/>
      <point x="132.0" y="163.0"/>
      <point x="263.0" y="16.0"/>
      <point x="368.0" y="16.0" type="qcurve"/>
      <point x="476.0" y="16.0"/>
      <point x="612.0" y="163.0"/>
      <point x="612.0" y="278.0" type="qcurve"/>
    </contour>
  </outline>
</glyph>
<glyph name="V" format="2">
  <advance width="604"/>
  <unicode hex="0056"/>
  <note>
V
</note>
  <outline>
    <contour>
      <point x="288.0" y="0.0" type="line"/>
      <point x="20.0" y="700.0" type="line"/>
      <point x="46.0" y="700.0" type="line"/>
      <point x="235.0" y="201.0" type="line"/>
      <point x="260.74212848853966" y="133.03533272073395"/>
      <point x="303.81865415811706" y="18.45336460470736"/>
      <point x="308.0" y="8.0" type="qcurve"/>
      <point x="295.0" y="8.0" type="line"/>
      <point x="298.14649936064853" y="18.48833120216183"/>
      <point x="342.55405410901506" y="129.2974412036676"/>
      <point x="370.0" y="202.0" type="qcurve"/>
      <point x="558.0" y="700.0" type="line"/>
      <point x="584.0" y="700.0" type="line"/>
      <point x="315.0" y="0.0" type="line"/>
    </contour>
  </outline>
</glyph>
<glyph name="W" format="2">
  <advance width="849"/>
  <unicode hex="0057"/>
  <note>
W
</note>
  <outline>
    <contour>
      <point x="216.0" y="0.0" type="line"/>
      <point x="20.0" y="700.0" type="line"/>
      <point x="44.0" y="700.0" type="line"/>
      <point x="186.0" y="193.0" type="line" smooth="yes"/>
      <point x="207.0" y="117.0"/>
      <point x="213.0" y="91.0"/>
      <point x="236.0" y="15.0" type="qcurve"/>
      <point x="224.0" y="15.0" type="line"/>
      <point x="253.73116688386082" y="88.33687831352337"/>
      <point x="283.83961252039546" y="167.12497317904797"/>
      <point x="297.0" y="202.0" type="qcurve"/>
      <point x="417.0" y="520.0" type="line"/>
      <point x="432.0" y="520.0" type="line"/>
      <point x="551.0" y="202.0" type="line" smooth="yes"/>
      <point x="564.0060389603394" y="167.24436647573165"/>
      <point x="596.0" y="88.0"/>
      <point x="625.0" y="15.0" type="qcurve"/>
      <point x="612.0" y="15.0" type="line"/>
      <point x="635.0" y="91.0"/>
      <point x="642.0" y="117.0"/>
      <point x="663.0" y="193.0" type="qcurve"/>
      <point x="805.0" y="700.0" type="line"/>
      <point x="829.0" y="700.0" type="line"/>
      <point x="633.0" y="0.0" type="line"/>
      <point x="607.0" y="0.0" type="line"/>
      <point x="415.0" y="499.0" type="line"/>
      <point x="434.0" y="499.0" type="line"/>
      <point x="242.0" y="0.0" type="line"/>
    </contour>
  </outline>
</glyph>
<glyph name="X" format="2">
  <advance width="584"/>
  <unicode hex="0058"/>
  <note>
X
</note>
  <outline>
    <contour>
      <point x="524.0" y="700.0" type="line"/>
      <point x="552.0" y="700.0" type="line"/>
      <point x="299.0" y="352.0" type="line"/>
      <point x="282.0" y="365.0" type="line"/>
    </contour>
    <contour>
      <point x="27.0" y="700.0" type="line"/>
      <point x="56.0" y="700.0" type="line"/>
      <point x="295.0" y="366.0" type="line"/>
      <point x="562.0" y="0.0" type="line"/>
      <point x="533.0" y="0.0" type="line"/>
      <point x="281.0" y="348.0" type="line"/>
    </contour>
    <contour>
      <point x="50.0" y="0.0" type="line"/>
      <point x="22.0" y="0.0" type="line"/>
      <point x="281.0" y="363.0" type="line"/>
      <point x="297.0" y="350.0" type="line"/>
    </contour>
  </outline>
</glyph>
<glyph name="Y" format="2">
  <advance width="592"/>
  <unicode hex="0059"/>
  <note>
Y
</note>
  <outline>
    <contour>
      <point x="546.0" y="700.0" type="line"/>
      <point x="572.0" y="700.0" type="line"/>
      <point x="302.0" y="300.0" type="line"/>
      <point x="311.0" y="339.0" type="line"/>
      <point x="311.0" y="0.0" type="line"/>
      <point x="289.0" y="0.0" type="line"/>
      <point x="289.0" y="339.0" type="line"/>
      <point x="297.0" y="300.0" type="line"/>
      <point x="20.0" y="700.0" type="line"/>
      <point x="46.0" y="700.0" type="line"/>
      <point x="305.0" y="327.0" type="line"/>
      <point x="294.0" y="327.0" type="line"/>
    </contour>
  </outline>
</glyph>
<glyph name="Z" format="2">
  <advance width="634"/>
  <unicode hex="005A"/>
  <note>
Z
</note>
  <outline>
    <contour>
      <point x="86.0" y="700.0" type="line"/>
      <point x="563.0006082441125" y="700.0" type="line"/>
      <point x="563.0006082441125" y="677.4988747483917" type="line"/>
      <point x="78.0" y="10.0" type="line"/>
      <point x="75.0" y="22.0" type="line"/>
      <point x="574.0" y="22.0" type="line"/>
      <point x="574.0" y="0.0" type="line"/>
      <point x="60.0" y="0.0" type="line"/>
      <point x="60.0" y="23.501125251608265" type="line"/>
      <point x="545.0" y="692.0" type="line"/>
      <point x="557.0" y="678.0" type="line"/>
      <point x="86.0" y="678.0" type="line"/>
    </contour>
  </outline>
</glyph>
<glyph name="bracketleft" format="2">
  <advance width="319"/>
  <unicode hex="005B"/>
  <note>
bracketleft
</note>
  <outline>
    <contour>
      <point x="287.0" y="-190.0" type="line"/>
      <point x="75.0" y="-190.0" type="line"/>
      <point x="75.0" y="700.0" type="line"/>
      <point x="287.0" y="700.0" type="line"/>
      <point x="287.0" y="678.0" type="line"/>
      <point x="88.0" y="678.0" type="line"/>
      <point x="98.0" y="686.0" type="line"/>
      <point x="98.0" y="-180.0" type="line"/>
      <point x="87.0" y="-168.0" type="line"/>
      <point x="287.0" y="-168.0" type="line"/>
    </contour>
  </outline>
</glyph>
<glyph name="backslash" format="2">
  <advance width="521"/>
  <unicode hex="005C"/>
  <note>
backslash
</note>
  <outline>
    <contour>
      <point x="457.0" y="-95.0" type="line"/>
      <point x="431.0" y="-95.0" type="line"/>
      <point x="37.0" y="700.0" type="line"/>
      <point x="63.0" y="700.0" type="line"/>
    </contour>
  </outline>
</glyph>
<glyph name="asciicircum" format="2">
  <advance width="584"/>
  <unicode hex="005E"/>
  <note>
asciicircum
</note>
  <outline>
    <contour>
      <point x="77.0" y="368.0" type="line"/>
      <point x="50.0" y="368.0" type="line"/>
      <point x="281.0" y="727.0" type="line"/>
      <point x="303.0" y="727.0" type="line"/>
      <point x="534.0" y="368.0" type="line"/>
      <point x="507.0" y="368.0" type="line"/>
      <point x="288.0" y="708.0" type="line"/>
      <point x="296.0" y="708.0" type="line"/>
    </contour>
  </outline>
</glyph>
<glyph name="underscore" format="2">
  <advance width="696"/>
  <unicode hex="005F"/>
  <note>
underscore
</note>
  <outline>
    <contour>
      <point x="640.0" y="-105.0" type="line"/>
      <point x="56.0" y="-105.0" type="line"/>
      <point x="56.0" y="-82.0" type="line"/>
      <point x="640.0" y="-82.0" type="line"/>
    </contour>
  </outline>
</glyph>
<glyph name="grave" format="2">
  <advance width="243"/>
  <unicode hex="0060"/>
  <outline>
    <contour>
      <point x="205.0" y="612.0" type="line"/>
      <point x="195.0" y="597.0" type="line"/>
      <point x="51.0" y="701.0" type="line"/>
      <point x="65.0" y="722.0" type="line"/>
    </contour>
  </outline>
</glyph>
<glyph name="a" format="2">
  <advance width="602"/>
  <unicode hex="0061"/>
  <note>
a
</note>
  <outline>
    <contour>
      <point x="512.0" y="525.0" type="line"/>
      <point x="532.0" y="525.0" type="line"/>
      <point x="532.0" y="0.0" type="line"/>
      <point x="510.0" y="0.0" type="line"/>
      <point x="510.0" y="172.0" type="line"/>
      <point x="519.0" y="175.0" type="line"/>
      <point x="501.0" y="94.0"/>
      <point x="377.0" y="-10.0"/>
      <point x="294.0" y="-10.0" type="qcurve"/>
      <point x="184.0" y="-10.0"/>
      <point x="40.0" y="141.0"/>
      <point x="40.0" y="258.0" type="qcurve"/>
      <point x="40.0" y="376.0"/>
      <point x="187.0" y="530.0"/>
      <point x="290.0" y="530.0" type="qcurve"/>
      <point x="374.0" y="530.0"/>
      <point x="502.0" y="430.0"/>
      <point x="516.0" y="350.0" type="qcurve"/>
      <point x="510.0" y="353.0" type="line"/>
    </contour>
    <contour>
      <point x="63.0" y="258.0" type="qcurve"/>
      <point x="63.0" y="152.0"/>
      <point x="191.0" y="12.0"/>
      <point x="294.0" y="12.0" type="qcurve"/>
      <point x="386.0" y="12.0"/>
      <point x="511.0" y="150.0"/>
      <point x="511.0" y="260.0" type="qcurve"/>
      <point x="511.0" y="368.0"/>
      <point x="386.0" y="508.0"/>
      <point x="292.0" y="508.0" type="qcurve"/>
      <point x="191.0" y="508.0"/>
      <point x="63.0" y="367.0"/>
    </contour>
  </outline>
</glyph>
<glyph name="b" format="2">
  <advance width="604"/>
  <unicode hex="0062"/>
  <note>
b
</note>
  <outline>
    <contour>
      <point x="310.0" y="530.0" type="qcurve"/>
      <point x="420.0" y="530.0"/>
      <point x="564.0" y="379.0"/>
      <point x="564.0" y="262.0" type="qcurve"/>
      <point x="564.0" y="144.0"/>
      <point x="417.0" y="-10.0"/>
      <point x="314.0" y="-10.0" type="qcurve"/>
      <point x="234.0" y="-10.0"/>
      <point x="102.0" y="93.0"/>
      <point x="88.0" y="170.0" type="qcurve"/>
      <point x="94.0" y="167.0" type="line"/>
      <point x="92.0" y="0.0" type="line"/>
      <point x="72.0" y="0.0" type="line"/>
      <point x="72.0" y="740.0" type="line"/>
      <point x="94.0" y="740.0" type="line"/>
      <point x="94.0" y="348.0" type="line"/>
      <point x="85.0" y="345.0" type="line"/>
      <point x="105.0" y="426.0"/>
      <point x="229.0" y="530.0"/>
    </contour>
    <contour>
      <point x="542.0" y="262.0" type="qcurve"/>
      <point x="542.0" y="368.0"/>
      <point x="414.0" y="508.0"/>
      <point x="311.0" y="508.0" type="qcurve"/>
      <point x="219.0" y="508.0"/>
      <point x="94.0" y="370.0"/>
      <point x="94.0" y="260.0" type="qcurve"/>
      <point x="94.0" y="152.0"/>
      <point x="219.0" y="12.0"/>
      <point x="313.0" y="12.0" type="qcurve"/>
      <point x="414.0" y="12.0"/>
      <point x="542.0" y="153.0"/>
    </contour>
  </outline>
</glyph>
<glyph name="c" format="2">
  <advance width="526"/>
  <unicode hex="0063"/>
  <note>
c
</note>
  <outline>
    <contour>
      <point x="306.0" y="508.0" type="qcurve" smooth="yes"/>
      <point x="200.0" y="508.0"/>
      <point x="63.00409729338813" y="370.4384103925299"/>
      <point x="62.0" y="263.0" type="qcurve" smooth="yes"/>
      <point x="62.999999330878865" y="153.00007360332526"/>
      <point x="199.869918699187" y="12.0"/>
      <point x="306.0" y="12.0" type="qcurve"/>
      <point x="361.6111111111111" y="12.0"/>
      <point x="454.841863957882" y="54.81790395150048"/>
      <point x="488.0" y="93.0" type="qcurve"/>
      <point x="504.0" y="77.0" type="line"/>
      <point x="467.83514588876074" y="36.81682876528971"/>
      <point x="368.0" y="-10.0"/>
      <point x="306.0" y="-10.0" type="qcurve"/>
      <point x="189.0" y="-10.0"/>
      <point x="40.0" y="144.0"/>
      <point x="40.0" y="263.0" type="qcurve" smooth="yes"/>
      <point x="40.0" y="380.4398496240601"/>
      <point x="189.0" y="530.0"/>
      <point x="306.0" y="530.0" type="qcurve"/>
      <point x="369.0" y="530.0"/>
      <point x="470.61416802696493" y="483.44095082632583"/>
      <point x="506.0" y="443.0" type="qcurve"/>
      <point x="490.0" y="426.0" type="line"/>
      <point x="456.6096386687629" y="464.44950698748517"/>
      <point x="363.0" y="508.0"/>
    </contour>
  </outline>
</glyph>
<glyph name="e" format="2">
  <advance width="545"/>
  <unicode hex="0065"/>
  <note>
e
</note>
  <outline>
    <contour>
      <point x="472.0" y="83.0" type="qcurve"/>
      <point x="484.0" y="65.0" type="line"/>
      <point x="447.0" y="31.0"/>
      <point x="354.0" y="-10.0"/>
      <point x="297.0" y="-10.0" type="qcurve"/>
      <point x="183.0" y="-10.0"/>
      <point x="40.0" y="144.0"/>
      <point x="40.0" y="263.0" type="qcurve"/>
      <point x="40.0" y="380.4398496240601"/>
      <point x="177.0" y="530.0"/>
      <point x="285.0" y="530.0" type="qcurve"/>
      <point x="384.0" y="530.0"/>
      <point x="510.0" y="401.4621848739496"/>
      <point x="510.0" y="291.0" type="qcurve"/>
      <point x="509.0" y="265.0" type="line"/>
      <point x="52.0" y="265.0" type="line"/>
      <point x="52.0" y="287.0" type="line"/>
      <point x="498.0" y="287.0" type="line"/>
      <point x="486.0" y="270.0" type="line"/>
      <point x="488.0" y="295.0" type="line"/>
      <point x="488.0" y="390.4481132075472"/>
      <point x="371.0" y="508.0"/>
      <point x="288.0" y="508.0" type="qcurve"/>
      <point x="186.0" y="508.0"/>
      <point x="63.0" y="370.0"/>
      <point x="62.0" y="263.0" type="qcurve"/>
      <point x="63.0" y="153.0"/>
      <point x="194.0" y="12.0"/>
      <point x="297.0" y="12.0" type="qcurve"/>
      <point x="349.0" y="12.0"/>
      <point x="437.0" y="50.0"/>
    </contour>
  </outline>
</glyph>
<glyph name="f" format="2">
  <advance width="340"/>
  <unicode hex="0066"/>
  <note>
f
</note>
  <outline>
    <contour>
      <point x="314.0" y="525.0" type="line"/>
      <point x="314.0" y="503.0" type="line"/>
      <point x="30.0" y="503.0" type="line"/>
      <point x="30.0" y="525.0" type="line"/>
    </contour>
    <contour>
      <point x="340.0" y="708.0" type="qcurve"/>
      <point x="326.0" y="693.0" type="line"/>
      <point x="308.4618250560607" y="713.4612041012624"/>
      <point x="269.0" y="728.0"/>
      <point x="243.0" y="728.0" type="qcurve" smooth="yes"/>
      <point x="207.0" y="728.0"/>
      <point x="162.0" y="684.0"/>
      <point x="162.0" y="625.0" type="qcurve"/>
      <point x="162.0" y="0.0" type="line" smooth="yes"/>
      <point x="162.0" y="0.0"/>
      <point x="146.0" y="0.0"/>
      <point x="140.0" y="0.0" type="qcurve"/>
      <point x="140.0" y="626.0" type="line" smooth="yes"/>
      <point x="140.0" y="692.0"/>
      <point x="198.0" y="750.0"/>
      <point x="245.0" y="750.0" type="qcurve" smooth="yes"/>
      <point x="281.0" y="750.0"/>
      <point x="326.0" y="727.0"/>
    </contour>
  </outline>
</glyph>
<glyph name="g" format="2">
  <advance width="603"/>
  <unicode hex="0067"/>
  <note>
g
</note>
  <outline>
    <contour>
      <point x="113.0" y="-166.0" type="qcurve"/>
      <point x="124.0" y="-146.0" type="line"/>
      <point x="155.0" y="-179.0"/>
      <point x="240.0" y="-218.0"/>
      <point x="293.0" y="-218.0" type="qcurve"/>
      <point x="379.0" y="-218.0"/>
      <point x="510.0" y="-85.0"/>
      <point x="510.0" y="30.0" type="qcurve"/>
      <point x="510.0" y="172.0" type="line"/>
      <point x="519.0" y="175.0" type="line"/>
      <point x="499.0" y="94.0"/>
      <point x="375.0" y="-10.0"/>
      <point x="294.0" y="-10.0" type="qcurve"/>
      <point x="184.0" y="-10.0"/>
      <point x="40.0" y="141.0"/>
      <point x="40.0" y="258.0" type="qcurve"/>
      <point x="40.0" y="376.0"/>
      <point x="187.0" y="530.0"/>
      <point x="290.0" y="530.0" type="qcurve"/>
      <point x="370.0" y="530.0"/>
      <point x="502.0" y="427.0"/>
      <point x="516.0" y="350.0" type="qcurve"/>
      <point x="510.0" y="353.0" type="line"/>
      <point x="512.0" y="525.0" type="line"/>
      <point x="532.0" y="525.0" type="line"/>
      <point x="532.0" y="21.0" type="line"/>
      <point x="532.0" y="-101.0"/>
      <point x="392.0" y="-240.0"/>
      <point x="294.0" y="-240.0" type="qcurve"/>
      <point x="240.0" y="-240.0"/>
      <point x="145.0" y="-202.0"/>
    </contour>
    <contour>
      <point x="510.0" y="260.0" type="qcurve"/>
      <point x="510.0" y="368.0"/>
      <point x="385.0" y="508.0"/>
      <point x="291.0" y="508.0" type="qcurve"/>
      <point x="190.0" y="508.0"/>
      <point x="62.0" y="367.0"/>
      <point x="62.0" y="258.0" type="qcurve"/>
      <point x="62.0" y="152.0"/>
      <point x="191.0" y="12.0"/>
      <point x="293.0" y="12.0" type="qcurve"/>
      <point x="385.0" y="12.0"/>
      <point x="510.0" y="150.0"/>
    </contour>
  </outline>
</glyph>
<glyph name="h" format="2">
  <advance width="531"/>
  <unicode hex="0068"/>
  <note>
h
</note>
  <outline>
    <contour>
      <point x="283.0" y="530.0" type="qcurve"/>
      <point x="371.0" y="530.0"/>
      <point x="468.0" y="434.0"/>
      <point x="468.0" y="328.0" type="qcurve"/>
      <point x="468.0" y="0.0" type="line"/>
      <point x="446.0" y="0.0" type="line"/>
      <point x="446.0" y="328.0" type="line"/>
      <point x="446.0" y="423.0"/>
      <point x="360.0" y="508.0"/>
      <point x="281.0" y="508.0" type="qcurve"/>
      <point x="196.0" y="508.0"/>
      <point x="87.0" y="407.0"/>
      <point x="87.0" y="376.0" type="qcurve"/>
      <point x="87.0" y="0.0" type="line"/>
      <point x="79.0" y="0.0"/>
      <point x="72.0" y="0.0"/>
      <point x="65.0" y="0.0" type="qcurve"/>
      <point x="65.0" y="740.0" type="line"/>
      <point x="87.0" y="740.0" type="line"/>
      <point x="87.0" y="404.0" type="line"/>
      <point x="78.0" y="402.0" type="line"/>
      <point x="95.0" y="454.0"/>
      <point x="211.0" y="530.0"/>
    </contour>
  </outline>
</glyph>
<glyph name="l" format="2">
  <advance width="166"/>
  <unicode hex="006C"/>
  <note>
l
</note>
  <outline>
    <contour>
      <point x="94.0" y="0.0" type="line"/>
      <point x="72.0" y="0.0" type="line"/>
      <point x="72.0" y="740.0" type="line"/>
      <point x="94.0" y="740.0" type="line"/>
    </contour>
  </outline>
</glyph>
<glyph name="m" format="2">
  <advance width="877"/>
  <unicode hex="006D"/>
  <note>
m
</note>
  <outline>
    <contour>
      <point x="276.0" y="530.0" type="qcurve"/>
      <point x="340.0" y="530.0"/>
      <point x="431.0" y="470.0"/>
      <point x="447.0" y="395.0" type="qcurve"/>
      <point x="435.0" y="389.0" type="line"/>
      <point x="441.0" y="406.0" type="line"/>
      <point x="467.0" y="467.0"/>
      <point x="574.0" y="530.0"/>
      <point x="636.0" y="530.0" type="qcurve"/>
      <point x="721.0" y="530.0"/>
      <point x="814.0" y="434.0"/>
      <point x="814.0" y="328.0" type="qcurve"/>
      <point x="814.0" y="0.0" type="line"/>
      <point x="792.0" y="0.0" type="line"/>
      <point x="792.0" y="328.0" type="line"/>
      <point x="792.0" y="423.0"/>
      <point x="710.0" y="508.0"/>
      <point x="634.0" y="508.0" type="qcurve"/>
      <point x="556.0" y="508.0"/>
      <point x="454.0" y="412.0"/>
      <point x="454.0" y="364.0" type="qcurve"/>
      <point x="454.0" y="0.0" type="line"/>
      <point x="432.0" y="0.0" type="line"/>
      <point x="432.0" y="328.0" type="line"/>
      <point x="432.0" y="423.0"/>
      <point x="350.0" y="508.0"/>
      <point x="274.0" y="508.0" type="qcurve"/>
      <point x="192.0" y="508.0"/>
      <point x="87.0" y="407.0"/>
      <point x="87.0" y="376.0" type="qcurve"/>
      <point x="87.0" y="0.0" type="line"/>
      <point x="65.0" y="0.0" type="line"/>
      <point x="65.0" y="525.0" type="line"/>
      <point x="85.0" y="525.0" type="line"/>
      <point x="88.0" y="393.0" type="line"/>
      <point x="73.0" y="396.0" type="line"/>
      <point x="110.0" y="468.0"/>
      <point x="214.0" y="530.0"/>
    </contour>
  </outline>
</glyph>
<glyph name="n" format="2">
  <advance width="541"/>
  <unicode hex="006E"/>
  <note>
n
</note>
  <outline>
    <contour>
      <point x="288.0" y="530.0" type="qcurve"/>
      <point x="376.0" y="530.0"/>
      <point x="473.0" y="434.0"/>
      <point x="473.0" y="328.0" type="qcurve"/>
      <point x="473.0" y="0.0" type="line"/>
      <point x="451.0" y="0.0" type="line"/>
      <point x="451.0" y="328.0" type="line"/>
      <point x="451.0" y="423.0"/>
      <point x="365.0" y="508.0"/>
      <point x="286.0" y="508.0" type="qcurve"/>
      <point x="201.0" y="508.0"/>
      <point x="92.0" y="407.0"/>
      <point x="92.0" y="376.0" type="qcurve"/>
      <point x="92.0" y="0.0" type="line"/>
      <point x="84.0" y="0.0"/>
      <point x="77.0" y="0.0"/>
      <point x="70.0" y="0.0" type="qcurve"/>
      <point x="70.0" y="525.0" type="line"/>
      <point x="90.0" y="525.0" type="line"/>
      <point x="92.0" y="404.0" type="line"/>
      <point x="83.0" y="401.0" type="line"/>
      <point x="98.8876052317522" y="452.6347170031947"/>
      <point x="215.0" y="530.0"/>
    </contour>
  </outline>
</glyph>
<glyph name="o" format="2">
  <advance width="615"/>
  <unicode hex="006F"/>
  <note>
o
</note>
  <outline>
    <contour>
      <point x="308.0" y="530.0" type="qcurve"/>
      <point x="427.0" y="530.0"/>
      <point x="575.0" y="380.0"/>
      <point x="575.0" y="263.0" type="qcurve"/>
      <point x="575.0" y="144.0"/>
      <point x="427.0" y="-10.0"/>
      <point x="308.0" y="-10.0" type="qcurve"/>
      <point x="190.0" y="-10.0"/>
      <point x="40.0" y="144.0"/>
      <point x="40.0" y="263.0" type="qcurve"/>
      <point x="40.0" y="380.0"/>
      <point x="190.0" y="530.0"/>
    </contour>
    <contour>
      <point x="308.0" y="12.0" type="qcurve"/>
      <point x="414.0" y="12.0"/>
      <point x="553.0" y="153.0"/>
      <point x="553.0" y="263.0" type="qcurve"/>
      <point x="553.0" y="369.0"/>
      <point x="414.0" y="508.0"/>
      <point x="308.0" y="508.0" type="qcurve"/>
      <point x="201.0" y="508.0"/>
      <point x="62.0" y="369.0"/>
      <point x="62.0" y="263.0" type="qcurve"/>
      <point x="62.0" y="153.0"/>
      <point x="201.0" y="12.0"/>
    </contour>
  </outline>
</glyph>
<glyph name="p" format="2">
  <advance width="605"/>
  <unicode hex="0070"/>
  <note>
p
</note>
  <outline>
    <contour>
      <point x="311.0" y="530.0" type="qcurve"/>
      <point x="421.0" y="530.0"/>
      <point x="565.0" y="379.0"/>
      <point x="565.0" y="262.0" type="qcurve"/>
      <point x="565.0" y="144.0"/>
      <point x="418.0" y="-10.0"/>
      <point x="315.0" y="-10.0" type="qcurve"/>
      <point x="235.0" y="-10.0"/>
      <point x="103.0" y="93.0"/>
      <point x="89.0" y="170.0" type="qcurve"/>
      <point x="95.0" y="167.0" type="line"/>
      <point x="95.0" y="-230.0" type="line"/>
      <point x="73.0" y="-230.0" type="line"/>
      <point x="73.0" y="525.0" type="line"/>
      <point x="93.0" y="525.0" type="line"/>
      <point x="95.0" y="348.0" type="line"/>
      <point x="86.0" y="345.0" type="line"/>
      <point x="106.0" y="426.0"/>
      <point x="230.0" y="530.0"/>
    </contour>
    <contour>
      <point x="543.0" y="262.0" type="qcurve"/>
      <point x="543.0" y="368.0"/>
      <point x="415.0" y="508.0"/>
      <point x="312.0" y="508.0" type="qcurve"/>
      <point x="220.0" y="508.0"/>
      <point x="95.0" y="370.0"/>
      <point x="95.0" y="260.0" type="qcurve"/>
      <point x="95.0" y="152.0"/>
      <point x="220.0" y="12.0"/>
      <point x="314.0" y="12.0" type="qcurve"/>
      <point x="415.0" y="12.0"/>
      <point x="543.0" y="153.0"/>
    </contour>
  </outline>
</glyph>
<glyph name="q" format="2">
  <advance width="611"/>
  <unicode hex="0071"/>
  <note>
q
</note>
  <outline>
    <contour>
      <point x="512.0" y="525.0" type="line"/>
      <point x="532.0" y="525.0" type="line"/>
      <point x="532.0" y="-230.0" type="line"/>
      <point x="510.0" y="-230.0" type="line"/>
      <point x="510.0" y="172.0" type="line"/>
      <point x="519.0" y="175.0" type="line"/>
      <point x="499.0" y="94.0"/>
      <point x="375.0" y="-10.0"/>
      <point x="294.0" y="-10.0" type="qcurve"/>
      <point x="184.0" y="-10.0"/>
      <point x="40.0" y="141.0"/>
      <point x="40.0" y="258.0" type="qcurve"/>
      <point x="40.0" y="376.0"/>
      <point x="187.0" y="530.0"/>
      <point x="290.0" y="530.0" type="qcurve"/>
      <point x="370.0" y="530.0"/>
      <point x="502.0" y="427.0"/>
      <point x="516.0" y="350.0" type="qcurve"/>
      <point x="510.0" y="353.0" type="line"/>
    </contour>
    <contour>
      <point x="62.0" y="258.0" type="qcurve"/>
      <point x="62.0" y="152.0"/>
      <point x="190.0" y="12.0"/>
      <point x="293.0" y="12.0" type="qcurve"/>
      <point x="385.0" y="12.0"/>
      <point x="510.0" y="150.0"/>
      <point x="510.0" y="260.0" type="qcurve"/>
      <point x="510.0" y="368.0"/>
      <point x="385.0" y="508.0"/>
      <point x="291.0" y="508.0" type="qcurve"/>
      <point x="190.0" y="508.0"/>
      <point x="62.0" y="367.0"/>
    </contour>
  </outline>
</glyph>
<glyph name="r" format="2">
  <advance width="311"/>
  <unicode hex="0072"/>
  <note>
r
</note>
  <outline>
    <contour>
      <point x="316.0" y="522.0" type="qcurve"/>
      <point x="309.0" y="499.0" type="line"/>
      <point x="293.0" y="504.0"/>
      <point x="264.0" y="508.0"/>
      <point x="253.0" y="508.0" type="qcurve" smooth="yes"/>
      <point x="172.0" y="508.0"/>
      <point x="92.0" y="392.0"/>
      <point x="92.0" y="338.0" type="qcurve"/>
      <point x="92.0" y="0.0" type="line"/>
      <point x="70.0" y="0.0" type="line"/>
      <point x="70.0" y="525.0" type="line"/>
      <point x="90.0" y="525.0" type="line"/>
      <point x="91.0" y="398.0" type="line"/>
      <point x="85.0" y="396.0" type="line"/>
      <point x="95.0" y="445.0"/>
      <point x="183.0" y="530.0"/>
      <point x="258.0" y="530.0" type="qcurve"/>
      <point x="275.0" y="530.0"/>
      <point x="304.0" y="526.0"/>
    </contour>
  </outline>
</glyph>
<glyph name="s" format="2">
  <advance width="479"/>
  <unicode hex="0073"/>
  <note>
s
</note>
  <outline>
    <contour>
      <point x="45.0" y="81.0" type="qcurve"/>
      <point x="63.0" y="97.0" type="line"/>
      <point x="93.69955712647786" y="57.38766822389953"/>
      <point x="192.0" y="12.0"/>
      <point x="250.0" y="12.0" type="qcurve"/>
      <point x="331.0" y="12.0"/>
      <point x="403.0" y="86.0"/>
      <point x="403.0" y="133.0" type="qcurve"/>
      <point x="403.0" y="182.0"/>
      <point x="320.0" y="238.0"/>
      <point x="241.0" y="256.0" type="qcurve"/>
      <point x="154.2874399440242" y="275.93392185194847"/>
      <point x="65.0" y="343.6054421768707"/>
      <point x="65.0" y="393.0" type="qcurve"/>
      <point x="65.0" y="454.9761904761905"/>
      <point x="160.0" y="530.0"/>
      <point x="240.0" y="530.0" type="qcurve"/>
      <point x="293.0" y="530.0"/>
      <point x="386.77806474868487" y="486.09225779320104"/>
      <point x="422.0" y="445.0" type="qcurve"/>
      <point x="406.0" y="427.0" type="line"/>
      <point x="372.83434430072634" y="465.04295800799036"/>
      <point x="290.0" y="508.0"/>
      <point x="240.0" y="508.0" type="qcurve"/>
      <point x="167.0" y="508.0"/>
      <point x="87.0" y="443.43362831858406"/>
      <point x="87.0" y="394.0" type="qcurve"/>
      <point x="87.0" y="354.0"/>
      <point x="167.3034757620929" y="296.9299671318247"/>
      <point x="245.0" y="279.0" type="qcurve"/>
      <point x="336.0" y="258.0"/>
      <point x="425.0" y="193.0"/>
      <point x="425.0" y="133.0" type="qcurve"/>
      <point x="425.0" y="68.0"/>
      <point x="331.0" y="-10.0"/>
      <point x="248.0" y="-10.0" type="qcurve"/>
      <point x="178.0" y="-10.0"/>
      <point x="69.7294216675434" y="45.38963279873749"/>
    </contour>
  </outline>
</glyph>
<glyph name="t" format="2">
  <advance width="350"/>
  <unicode hex="0074"/>
  <note>
t
</note>
  <outline>
    <contour>
      <point x="185.0" y="659.0" type="line"/>
      <point x="185.0" y="0.0" type="line"/>
      <point x="163.0" y="0.0" type="line"/>
      <point x="163.0" y="659.0" type="line"/>
    </contour>
    <contour>
      <point x="335.0" y="525.0" type="line"/>
      <point x="335.0" y="503.0" type="line"/>
      <point x="20.0" y="503.0" type="line"/>
      <point x="20.0" y="525.0" type="line"/>
    </contour>
  </outline>
</glyph>
<glyph name="u" format="2">
  <advance width="538"/>
  <unicode hex="0075"/>
  <note>
u
</note>
  <outline>
    <contour>
      <point x="265.0" y="12.0" type="qcurve" smooth="yes"/>
      <point x="338.0" y="12.0"/>
      <point x="444.0" y="116.82575757575756"/>
      <point x="444.0" y="149.0" type="qcurve"/>
      <point x="444.0" y="525.0" type="line"/>
      <point x="466.0" y="525.0" type="line"/>
      <point x="466.0" y="0.0" type="line"/>
      <point x="446.0" y="0.0" type="line"/>
      <point x="444.0" y="121.0" type="line"/>
      <point x="453.0" y="123.0" type="line"/>
      <point x="435.48201374051837" y="69.41557144158563"/>
      <point x="330.0" y="-10.0"/>
      <point x="263.0" y="-10.0" type="qcurve" smooth="yes"/>
      <point x="172.0" y="-10.0"/>
      <point x="73.0" y="88.37623762376238"/>
      <point x="73.0" y="197.0" type="qcurve"/>
      <point x="73.0" y="525.0" type="line"/>
      <point x="95.0" y="525.0" type="line"/>
      <point x="95.0" y="197.0" type="line"/>
      <point x="95.0" y="99.36111111111111"/>
      <point x="183.0" y="12.0"/>
    </contour>
  </outline>
</glyph>
<glyph name="v" format="2">
  <advance width="467"/>
  <unicode hex="0076"/>
  <note>
v
</note>
  <outline>
    <contour>
      <point x="15.0" y="525.0" type="line"/>
      <point x="40.0" y="525.0" type="line"/>
      <point x="240.0" y="24.0" type="line"/>
      <point x="227.0" y="24.0" type="line"/>
      <point x="427.0" y="525.0" type="line"/>
      <point x="452.0" y="525.0" type="line"/>
      <point x="241.0" y="0.0" type="line"/>
      <point x="226.0" y="0.0" type="line"/>
    </contour>
  </outline>
</glyph>
<glyph name="w" format="2">
  <advance width="743"/>
  <unicode hex="0077"/>
  <note>
w
</note>
  <outline>
    <contour>
      <point x="704.0" y="525.0" type="line"/>
      <point x="728.0" y="525.0" type="line"/>
      <point x="543.0" y="0.0" type="line"/>
      <point x="529.0" y="0.0" type="line"/>
      <point x="364.0" y="422.0" type="line"/>
      <point x="379.0" y="422.0" type="line"/>
      <point x="214.0" y="0.0" type="line"/>
      <point x="200.0" y="0.0" type="line"/>
      <point x="15.0" y="525.0" type="line"/>
      <point x="39.0" y="525.0" type="line"/>
      <point x="215.0" y="24.0" type="line"/>
      <point x="200.0" y="24.0" type="line"/>
      <point x="364.0" y="444.0" type="line"/>
      <point x="379.0" y="444.0" type="line"/>
      <point x="543.0" y="24.0" type="line"/>
      <point x="528.0" y="24.0" type="line"/>
    </contour>
  </outline>
</glyph>
<glyph name="x" format="2">
  <advance width="475"/>
  <unicode hex="0078"/>
  <note>
x
</note>
  <outline>
    <contour>
      <point x="22.0" y="525.0" type="line"/>
      <point x="52.0" y="525.0" type="line"/>
      <point x="251.0" y="267.0" type="line"/>
      <point x="247.0" y="272.0" type="line"/>
      <point x="465.0" y="0.0" type="line"/>
      <point x="435.0" y="0.0" type="line"/>
      <point x="230.0" y="255.0" type="line"/>
      <point x="233.0" y="252.0" type="line"/>
    </contour>
    <contour>
      <point x="40.0" y="0.0" type="line"/>
      <point x="10.0" y="0.0" type="line"/>
      <point x="232.0" y="277.0" type="line"/>
      <point x="248.0" y="262.0" type="line"/>
    </contour>
    <contour>
      <point x="422.0" y="525.0" type="line"/>
      <point x="452.0" y="525.0" type="line"/>
      <point x="247.0" y="261.0" type="line"/>
      <point x="232.0" y="277.0" type="line"/>
    </contour>
  </outline>
</glyph>
<glyph name="y" format="2">
  <advance width="501"/>
  <unicode hex="0079"/>
  <note>
y
</note>
  <outline>
    <contour>
      <point x="268.0" y="22.0" type="qcurve"/>
      <point x="257.0" y="-8.0" type="line"/>
      <point x="15.0" y="525.0" type="line"/>
      <point x="40.0" y="525.0" type="line"/>
      <point x="237.0" y="90.0" type="line" smooth="yes"/>
      <point x="241.0" y="82.0"/>
      <point x="263.0" y="32.0"/>
    </contour>
    <contour>
      <point x="182.0" y="-230.0" type="line"/>
      <point x="157.0" y="-230.0" type="line"/>
      <point x="237.0" y="-29.0" type="line"/>
      <point x="255.0" y="16.0" type="line"/>
      <point x="257.0" y="20.0"/>
      <point x="259.0" y="24.0"/>
      <point x="261.0" y="28.0" type="qcurve"/>
      <point x="461.0" y="525.0" type="line"/>
      <point x="486.0" y="525.0" type="line"/>
      <point x="269.0" y="-13.0" type="line"/>
    </contour>
  </outline>
</glyph>
<glyph name="z" format="2">
  <advance width="429"/>
  <unicode hex="007A"/>
  <note>
z
</note>
  <outline>
    <contour>
      <point x="47.0" y="22.0" type="line"/>
      <point x="394.0" y="22.0" type="line"/>
      <point x="394.0" y="0.0" type="line"/>
      <point x="35.0" y="0.0" type="line"/>
      <point x="35.0" y="26.0" type="line"/>
      <point x="361.0" y="521.0" type="line"/>
      <point x="359.0" y="503.0" type="line"/>
      <point x="35.0" y="503.0" type="line"/>
      <point x="35.0" y="525.0" type="line"/>
      <point x="373.0" y="525.0" type="line"/>
      <point x="373.0" y="497.0" type="line"/>
      <point x="51.0" y="10.0" type="line"/>
    </contour>
  </outline>
</glyph>
<glyph name="braceleft" format="2">
  <advance width="402"/>
  <unicode hex="007B"/>
  <note>
braceleft
</note>
  <outline>
    <contour>
      <point x="349.0" y="-167.0" type="qcurve"/>
      <point x="343.0" y="-186.0" type="line"/>
      <point x="277.0" y="-171.0"/>
      <point x="201.0" y="-84.0"/>
      <point x="201.0" y="-7.0" type="qcurve"/>
      <point x="203.0" y="88.0" type="line"/>
      <point x="203.0" y="158.0"/>
      <point x="141.0" y="236.0"/>
      <point x="83.0" y="237.0" type="qcurve"/>
      <point x="63.0" y="237.0" type="line"/>
      <point x="63.0" y="263.0" type="line"/>
      <point x="83.0" y="263.0" type="line"/>
      <point x="142.0" y="264.0"/>
      <point x="203.0" y="341.0"/>
      <point x="203.0" y="412.0" type="qcurve"/>
      <point x="201.0" y="507.0" type="line"/>
      <point x="201.0" y="584.0"/>
      <point x="277.0" y="671.0"/>
      <point x="343.0" y="686.0" type="qcurve"/>
      <point x="349.0" y="667.0" type="line"/>
      <point x="280.0" y="649.0"/>
      <point x="223.0" y="571.0"/>
      <point x="223.0" y="493.0" type="qcurve"/>
      <point x="225.0" y="398.0" type="line"/>
      <point x="225.0" y="340.0"/>
      <point x="180.0" y="263.0"/>
      <point x="135.0" y="249.0" type="qcurve"/>
      <point x="135.0" y="252.0" type="line"/>
      <point x="181.0" y="235.0"/>
      <point x="225.0" y="159.0"/>
      <point x="225.0" y="102.0" type="qcurve"/>
      <point x="223.0" y="7.0" type="line"/>
      <point x="223.0" y="-71.0"/>
      <point x="280.0" y="-149.0"/>
    </contour>
  </outline>
</glyph>
<glyph name="bar" format="2">
  <advance width="223"/>
  <unicode hex="007C"/>
  <note>
bar
</note>
  <outline>
    <contour>
      <point x="123.0" y="740.0" type="line"/>
      <point x="123.0" y="-193.0" type="line"/>
      <point x="100.0" y="-193.0" type="line"/>
      <point x="100.0" y="740.0" type="line"/>
    </contour>
  </outline>
</glyph>
<glyph name="cent" format="2">
  <advance width="550"/>
  <unicode hex="00A2"/>
  <note>
cent
</note>
  <outline>
    <contour>
      <point x="305.0" y="77.0" type="line"/>
      <point x="305.0" y="0.0" type="line"/>
      <point x="283.0" y="0.0" type="line"/>
      <point x="283.0" y="78.0" type="line"/>
      <point x="283.0" y="111.0" type="line"/>
      <point x="283.0" y="579.0" type="line"/>
      <point x="283.0" y="606.0" type="line"/>
      <point x="283.0" y="700.0" type="line"/>
      <point x="305.0" y="700.0" type="line"/>
      <point x="305.0" y="605.0" type="line"/>
      <point x="305.0" y="579.0" type="line"/>
      <point x="305.0" y="111.0" type="line"/>
    </contour>
    <contour>
      <point x="312.0" y="595.0" type="qcurve" smooth="yes"/>
      <point x="205.0" y="595.0"/>
      <point x="67.0" y="458.0"/>
      <point x="66.0" y="351.0" type="qcurve" smooth="yes"/>
      <point x="67.0" y="241.0"/>
      <point x="205.0" y="100.0"/>
      <point x="312.0" y="100.0" type="qcurve"/>
      <point x="367.0" y="100.0"/>
      <point x="459.0" y="143.0"/>
      <point x="492.0" y="181.0" type="qcurve"/>
      <point x="508.0" y="166.0" type="line"/>
      <point x="472.0" y="126.0"/>
      <point x="373.0" y="78.0"/>
      <point x="312.0" y="78.0" type="qcurve"/>
      <point x="194.0" y="78.0"/>
      <point x="44.0" y="232.0"/>
      <point x="44.0" y="351.0" type="qcurve" smooth="yes"/>
      <point x="44.0" y="468.0"/>
      <point x="194.0" y="617.0"/>
      <point x="312.0" y="617.0" type="qcurve"/>
      <point x="374.0" y="617.0"/>
      <point x="475.0" y="571.0"/>
      <point x="510.0" y="531.0" type="qcurve"/>
      <point x="494.0" y="514.0" type="line"/>
      <point x="460.92149273977066" y="552.0904022996581"/>
      <point x="368.0" y="595.0"/>
    </contour>
  </outline>
</glyph>
<glyph name="sterling" format="2">
  <advance width="610"/>
  <unicode hex="00A3"/>
  <note>
sterling
</note>
  <outline>
    <contour>
      <point x="437.0" y="353.0" type="line"/>
      <point x="59.0" y="353.0" type="line"/>
      <point x="59.0" y="375.0" type="line"/>
      <point x="437.0" y="375.0" type="line"/>
    </contour>
    <contour>
      <point x="199.0" y="69.0" type="qcurve"/>
      <point x="223.2578125" y="69.0"/>
      <point x="280.4410922384543" y="55.80279459185748"/>
      <point x="334.0" y="39.0" type="qcurve" smooth="yes"/>
      <point x="383.0" y="24.0"/>
      <point x="429.0" y="17.0"/>
      <point x="447.0" y="17.0" type="qcurve"/>
      <point x="471.4175824175824" y="17.0"/>
      <point x="522.0" y="33.0"/>
      <point x="548.0" y="49.0" type="qcurve"/>
      <point x="561.500577831907" y="31.000121648822514" type="line"/>
      <point x="535.0004865952901" y="14.999878351177486"/>
      <point x="478.0" y="-5.0"/>
      <point x="447.0" y="-5.0" type="qcurve"/>
      <point x="428.0" y="-5.0"/>
      <point x="372.0" y="3.0"/>
      <point x="313.0" y="20.499665465738083" type="qcurve" smooth="yes"/>
      <point x="260.0" y="36.0"/>
      <point x="214.0" y="47.0"/>
      <point x="199.0" y="47.0" type="qcurve"/>
      <point x="171.0" y="47.0"/>
      <point x="106.0" y="28.0"/>
      <point x="73.0" y="13.0" type="qcurve"/>
      <point x="62.0" y="32.0" type="line"/>
      <point x="92.74541711828385" y="46.41191427419556"/>
      <point x="159.04166666666666" y="69.0"/>
    </contour>
    <contour>
      <point x="230.0" y="202.0" type="qcurve"/>
      <point x="230.0" y="160.84180790960454"/>
      <point x="204.96483313611685" y="86.6695770241254"/>
      <point x="168.0" y="47.0" type="qcurve"/>
      <point x="148.0" y="62.0" type="line"/>
      <point x="172.0" y="75.0"/>
      <point x="207.0" y="153.34289263733262"/>
      <point x="207.0" y="201.0" type="qcurve"/>
      <point x="207.0" y="229.0"/>
      <point x="193.12788273320484" y="291.6145270680477"/>
      <point x="172.99939175588742" y="352.0" type="qcurve" smooth="yes"/>
      <point x="153.49942216809305" y="413.9998783511775"/>
      <point x="144.0" y="475.0"/>
      <point x="144.0" y="502.0" type="qcurve"/>
      <point x="144.0" y="588.0"/>
      <point x="250.0" y="695.0"/>
      <point x="340.0" y="695.0" type="qcurve"/>
      <point x="400.0" y="695.0"/>
      <point x="480.0" y="652.0"/>
      <point x="509.0" y="611.0" type="qcurve"/>
      <point x="491.0" y="597.0" type="line"/>
      <point x="454.0" y="643.0"/>
      <point x="384.0" y="673.0"/>
      <point x="340.0" y="673.0" type="qcurve"/>
      <point x="264.0" y="673.0"/>
      <point x="167.0" y="576.0"/>
      <point x="167.0" y="501.0" type="qcurve"/>
      <point x="167.0" y="477.0"/>
      <point x="179.37064518907502" y="416.40030490986885"/>
      <point x="200.00091236616885" y="353.0" type="qcurve" smooth="yes"/>
      <point x="221.9030636063716" y="288.4462910815076"/>
      <point x="230.0" y="225.41085271317826"/>
    </contour>
  </outline>
</glyph>
<glyph name="currency" format="2">
  <advance width="563"/>
  <unicode hex="00A4"/>
  <note>
currency
</note>
  <outline>
    <contour>
      <point x="457.0" y="302.0" type="qcurve"/>
      <point x="457.0" y="226.0"/>
      <point x="353.0" y="122.0"/>
      <point x="279.0" y="122.0" type="qcurve"/>
      <point x="205.0" y="122.0"/>
      <point x="101.0" y="226.0"/>
      <point x="101.0" y="302.0" type="qcurve"/>
      <point x="101.0" y="378.0"/>
      <point x="205.0" y="482.0"/>
      <point x="279.0" y="482.0" type="qcurve"/>
      <point x="352.0" y="482.0"/>
      <point x="457.0" y="377.0"/>
    </contour>
    <contour>
      <point x="123.0" y="302.0" type="qcurve"/>
      <point x="123.0" y="234.0"/>
      <point x="211.0" y="144.0"/>
      <point x="279.0" y="144.0" type="qcurve"/>
      <point x="348.0" y="144.0"/>
      <point x="435.0" y="234.0"/>
      <point x="435.0" y="302.0" type="qcurve"/>
      <point x="435.0" y="370.0"/>
      <point x="348.0" y="460.0"/>
      <point x="279.0" y="460.0" type="qcurve"/>
      <point x="211.0" y="460.0"/>
      <point x="123.0" y="370.0"/>
    </contour>
    <contour>
      <point x="151.0" y="413.0" type="line"/>
      <point x="80.0" y="479.0" type="line"/>
      <point x="95.0" y="496.0" type="line"/>
      <point x="167.0" y="428.0" type="line"/>
    </contour>
    <contour>
      <point x="463.0" y="110.0" type="line"/>
      <point x="391.0" y="178.0" type="line"/>
      <point x="407.0" y="193.0" type="line"/>
      <point x="478.0" y="127.0" type="line"/>
    </contour>
    <contour>
      <point x="391.0" y="428.0" type="line"/>
      <point x="463.0" y="496.0" type="line"/>
      <point x="478.0" y="479.0" type="line"/>
      <point x="407.0" y="413.0" type="line"/>
    </contour>
    <contour>
      <point x="80.0" y="127.0" type="line"/>
      <point x="151.0" y="193.0" type="line"/>
      <point x="167.0" y="178.0" type="line"/>
      <point x="95.0" y="110.0" type="line"/>
    </contour>
  </outline>
</glyph>
<glyph name="yen" format="2">
  <advance width="632"/>
  <unicode hex="00A5"/>
  <note>
yen
</note>
  <outline>
    <contour>
      <point x="494.0" y="292.0" type="line"/>
      <point x="156.0" y="292.0" type="line"/>
      <point x="156.0" y="314.0" type="line"/>
      <point x="494.0" y="314.0" type="line"/>
    </contour>
    <contour>
      <point x="494.0" y="149.0" type="line"/>
      <point x="156.0" y="149.0" type="line"/>
      <point x="156.0" y="171.0" type="line"/>
      <point x="494.0" y="171.0" type="line"/>
    </contour>
    <contour>
      <point x="570.0" y="700.0" type="line"/>
      <point x="597.0" y="700.0" type="line"/>
      <point x="327.0" y="300.0" type="line"/>
      <point x="336.0" y="339.0" type="line"/>
      <point x="336.0" y="0.0" type="line"/>
      <point x="314.0" y="0.0" type="line"/>
      <point x="314.0" y="339.0" type="line"/>
      <point x="322.0" y="300.0" type="line"/>
      <point x="45.0" y="700.0" type="line"/>
      <point x="72.0" y="700.0" type="line"/>
      <point x="330.0" y="327.0" type="line"/>
      <point x="319.0" y="327.0" type="line"/>
    </contour>
  </outline>
</glyph>
<glyph name="section" format="2">
  <advance width="539"/>
  <unicode hex="00A7"/>
  <note>
section
</note>
  <outline>
    <contour>
      <point x="279.0" y="415.0" type="qcurve" smooth="yes"/>
      <point x="369.0" y="383.0"/>
      <point x="459.0" y="325.0"/>
      <point x="459.0" y="269.0" type="qcurve" smooth="yes"/>
      <point x="459.0" y="225.95652173913044"/>
      <point x="416.0" y="159.0"/>
      <point x="353.0" y="134.0" type="qcurve"/>
      <point x="349.0" y="157.0" type="line"/>
      <point x="406.0" y="124.0"/>
      <point x="437.0" y="78.41592920353983"/>
      <point x="437.0" y="46.0" type="qcurve" smooth="yes"/>
      <point x="437.0" y="-20.0"/>
      <point x="341.0" y="-97.0"/>
      <point x="262.0" y="-97.0" type="qcurve" smooth="yes"/>
      <point x="191.0" y="-97.0"/>
      <point x="82.0" y="-42.0"/>
      <point x="57.0" y="-6.0" type="qcurve"/>
      <point x="75.0" y="10.0" type="line"/>
      <point x="106.0" y="-30.0"/>
      <point x="204.0" y="-75.0"/>
      <point x="262.0" y="-75.0" type="qcurve" smooth="yes"/>
      <point x="329.0" y="-75.0"/>
      <point x="414.0" y="-11.0"/>
      <point x="414.0" y="46.0" type="qcurve" smooth="yes"/>
      <point x="414.0" y="91.0"/>
      <point x="332.0" y="144.0"/>
      <point x="253.0" y="169.0" type="qcurve" smooth="yes"/>
      <point x="166.0" y="197.0"/>
      <point x="77.0" y="263.0"/>
      <point x="77.0" y="310.0" type="qcurve" smooth="yes"/>
      <point x="77.0" y="354.31297709923666"/>
      <point x="134.0" y="421.0"/>
      <point x="204.0" y="439.0" type="qcurve"/>
      <point x="202.0" y="417.0" type="line"/>
      <point x="138.0" y="453.0"/>
      <point x="99.0" y="502.0"/>
      <point x="99.0" y="533.0" type="qcurve" smooth="yes"/>
      <point x="99.0" y="593.0"/>
      <point x="190.0" y="665.0"/>
      <point x="266.0" y="665.0" type="qcurve" smooth="yes"/>
      <point x="321.0" y="665.0"/>
      <point x="420.0" y="623.0"/>
      <point x="456.0" y="581.0" type="qcurve"/>
      <point x="440.0" y="563.0" type="line"/>
      <point x="406.0" y="602.0"/>
      <point x="318.0" y="643.0"/>
      <point x="266.0" y="643.0" type="qcurve" smooth="yes"/>
      <point x="205.0" y="643.0"/>
      <point x="122.0" y="583.0"/>
      <point x="122.0" y="534.0" type="qcurve" smooth="yes"/>
      <point x="122.0" y="497.0"/>
      <point x="202.0" y="442.0"/>
    </contour>
    <contour>
      <point x="100.0" y="311.0" type="qcurve" smooth="yes"/>
      <point x="100.0" y="283.0"/>
      <point x="146.0" y="233.0"/>
      <point x="192.0" y="216.0" type="qcurve"/>
      <point x="333.0" y="164.0" type="line"/>
      <point x="339.0400735407147" y="161.77245514810522"/>
      <point x="351.0" y="157.0"/>
      <point x="353.0" y="157.0" type="qcurve" smooth="yes"/>
      <point x="389.0" y="169.0"/>
      <point x="436.0" y="226.6216216216216"/>
      <point x="436.0" y="269.0" type="qcurve" smooth="yes"/>
      <point x="436.0" y="314.0"/>
      <point x="359.0" y="361.0"/>
      <point x="275.0" y="392.0" type="qcurve"/>
      <point x="212.0" y="415.0" type="line"/>
      <point x="207.0" y="417.0"/>
      <point x="196.87541966127804" y="415.29180655375933"/>
      <point x="193.0" y="414.0" type="qcurve" smooth="yes"/>
      <point x="151.0" y="404.0"/>
      <point x="100.0" y="350.0"/>
    </contour>
  </outline>
</glyph>
<glyph name="dieresis" format="2">
  <advance width="288"/>
  <unicode hex="00A8"/>
  <outline>
    <contour>
      <point x="96.0" y="683.0" type="qcurve" smooth="yes"/>
      <point x="96.0" y="671.0"/>
      <point x="83.0" y="656.0"/>
      <point x="69.0" y="656.0" type="qcurve" smooth="yes"/>
      <point x="57.0" y="656.0"/>
      <point x="42.0" y="671.0"/>
      <point x="42.0" y="683.0" type="qcurve" smooth="yes"/>
      <point x="42.0" y="694.0"/>
      <point x="56.0" y="710.0"/>
      <point x="69.0" y="710.0" type="qcurve" smooth="yes"/>
      <point x="83.0" y="710.0"/>
      <point x="96.0" y="695.0"/>
    </contour>
    <contour>
      <point x="246.0" y="683.0" type="qcurve" smooth="yes"/>
      <point x="246.0" y="671.0"/>
      <point x="233.0" y="656.0"/>
      <point x="219.0" y="656.0" type="qcurve" smooth="yes"/>
      <point x="207.0" y="656.0"/>
      <point x="192.0" y="671.0"/>
      <point x="192.0" y="683.0" type="qcurve" smooth="yes"/>
      <point x="192.0" y="694.0"/>
      <point x="206.0" y="710.0"/>
      <point x="219.0" y="710.0" type="qcurve" smooth="yes"/>
      <point x="233.0" y="710.0"/>
      <point x="246.0" y="695.0"/>
    </contour>
  </outline>
</glyph>
<glyph name="copyright" format="2">
  <advance width="786"/>
  <unicode hex="00A9"/>
  <note>
copyright
</note>
  <outline>
    <contour>
      <point x="750.0" y="349.0" type="qcurve" smooth="yes"/>
      <point x="750.0" y="199.0"/>
      <point x="542.0" y="-8.0"/>
      <point x="392.0" y="-8.0" type="qcurve" smooth="yes"/>
      <point x="242.0" y="-8.0"/>
      <point x="35.0" y="199.0"/>
      <point x="35.0" y="349.0" type="qcurve" smooth="yes"/>
      <point x="35.0" y="499.0"/>
      <point x="242.0" y="707.0"/>
      <point x="392.0" y="707.0" type="qcurve" smooth="yes"/>
      <point x="542.0" y="707.0"/>
      <point x="750.0" y="499.0"/>
    </contour>
    <contour>
      <point x="58.0" y="350.0" type="qcurve" smooth="yes"/>
      <point x="58.0" y="209.0"/>
      <point x="252.0" y="14.0"/>
      <point x="393.0" y="14.0" type="qcurve" smooth="yes"/>
      <point x="533.0" y="14.0"/>
      <point x="727.0" y="209.0"/>
      <point x="727.0" y="350.0" type="qcurve" smooth="yes"/>
      <point x="727.0" y="490.0"/>
      <point x="533.0" y="685.0"/>
      <point x="393.0" y="685.0" type="qcurve" smooth="yes"/>
      <point x="252.0" y="685.0"/>
      <point x="58.0" y="490.0"/>
    </contour>
    <contour>
      <point x="398.0" y="142.0" type="qcurve" smooth="yes"/>
      <point x="312.0" y="142.0"/>
      <point x="194.0" y="260.0"/>
      <point x="194.0" y="350.0" type="qcurve" smooth="yes"/>
      <point x="194.0" y="436.0"/>
      <point x="312.0" y="557.0"/>
      <point x="398.0" y="557.0" type="qcurve" smooth="yes"/>
      <point x="432.0" y="557.0"/>
      <point x="498.0" y="534.0"/>
      <point x="527.0" y="512.0" type="qcurve"/>
      <point x="514.0" y="494.0" type="line"/>
      <point x="499.0" y="506.0"/>
      <point x="439.0" y="535.0"/>
      <point x="398.0" y="535.0" type="qcurve" smooth="yes"/>
      <point x="323.0" y="535.0"/>
      <point x="216.0" y="423.0"/>
      <point x="216.0" y="350.0" type="qcurve" smooth="yes"/>
      <point x="216.0" y="273.0"/>
      <point x="322.0" y="164.0"/>
      <point x="398.0" y="164.0" type="qcurve" smooth="yes"/>
      <point x="436.0" y="164.0"/>
      <point x="492.0" y="183.0"/>
      <point x="519.0" y="201.0" type="qcurve"/>
      <point x="531.0" y="185.0" type="line"/>
      <point x="501.0" y="164.0"/>
      <point x="433.0" y="142.0"/>
    </contour>
  </outline>
</glyph>
<glyph name="ordfeminine" format="2">
  <advance width="365"/>
  <unicode hex="00AA"/>
  <note>
ordfeminine
</note>
  <outline>
    <contour>
      <point x="176.0" y="402.0" type="qcurve"/>
      <point x="114.0" y="402.0"/>
      <point x="30.0" y="493.2603550295858"/>
      <point x="30.0" y="561.0" type="qcurve"/>
      <point x="30.0" y="628.7647058823529"/>
      <point x="114.0" y="721.0"/>
      <point x="176.0" y="721.0" type="qcurve"/>
      <point x="219.0" y="721.0"/>
      <point x="287.13396848332" y="677.5869305097632"/>
      <point x="299.0" y="641.0" type="qcurve"/>
      <point x="290.0" y="644.0" type="line"/>
      <point x="291.0" y="716.0" type="line"/>
      <point x="310.0" y="716.0" type="line"/>
      <point x="310.0" y="403.0" type="line"/>
      <point x="290.0" y="403.0" type="line"/>
      <point x="290.0" y="478.0" type="line"/>
      <point x="299.0" y="484.0" type="line"/>
      <point x="287.13139532553004" y="446.41608519751185"/>
      <point x="219.0" y="402.0"/>
    </contour>
    <contour>
      <point x="50.0" y="561.0" type="qcurve"/>
      <point x="50.0" y="502.2281879194631"/>
      <point x="121.0" y="422.0"/>
      <point x="175.0" y="422.0" type="qcurve"/>
      <point x="225.4310344827586" y="422.0"/>
      <point x="292.0" y="484.0"/>
      <point x="292.0" y="561.0" type="qcurve"/>
      <point x="292.0" y="639.0"/>
      <point x="224.42241379310346" y="701.0"/>
      <point x="175.0" y="701.0" type="qcurve"/>
      <point x="121.0" y="701.0"/>
      <point x="50.0" y="620.7333333333333"/>
    </contour>
  </outline>
</glyph>
<glyph name="logicalnot" format="2">
  <advance width="670"/>
  <unicode hex="00AC"/>
  <note>
logicalnot
</note>
  <outline>
    <contour>
      <point x="605.0" y="117.0" type="line"/>
      <point x="583.0" y="117.0" type="line"/>
      <point x="583.0" y="379.0" type="line"/>
      <point x="594.0" y="367.0" type="line"/>
      <point x="65.0" y="367.0" type="line"/>
      <point x="65.0" y="389.0" type="line"/>
      <point x="605.0" y="389.0" type="line"/>
    </contour>
  </outline>
</glyph>
<glyph name="registered" format="2">
  <advance width="525"/>
  <unicode hex="00AE"/>
  <note>
registered
</note>
  <outline>
    <contour>
      <point x="490.0" y="483.0" type="qcurve" smooth="yes"/>
      <point x="490.0" y="389.0"/>
      <point x="355.0" y="257.0"/>
      <point x="259.0" y="257.0" type="qcurve" smooth="yes"/>
      <point x="164.0" y="257.0"/>
      <point x="28.0" y="389.0"/>
      <point x="28.0" y="483.0" type="qcurve" smooth="yes"/>
      <point x="28.0" y="577.0"/>
      <point x="165.0" y="709.0"/>
      <point x="259.0" y="709.0" type="qcurve" smooth="yes"/>
      <point x="355.0" y="709.0"/>
      <point x="490.0" y="577.0"/>
    </contour>
    <contour>
      <point x="345.0" y="532.0" type="qcurve" smooth="yes"/>
      <point x="345.0" y="502.0"/>
      <point x="301.0" y="464.0"/>
      <point x="268.0" y="464.0" type="qcurve"/>
      <point x="204.0" y="464.0" type="line"/>
      <point x="211.0" y="469.0" type="line"/>
      <point x="211.0" y="367.0" type="line"/>
      <point x="191.0" y="367.0" type="line"/>
      <point x="191.0" y="606.0" type="line"/>
      <point x="268.0" y="606.0" type="line" smooth="yes"/>
      <point x="303.0" y="606.0"/>
      <point x="345.0" y="565.0"/>
    </contour>
    <contour>
      <point x="204.0" y="484.0" type="line"/>
      <point x="263.0" y="484.0" type="line" smooth="yes"/>
      <point x="290.0" y="484.0"/>
      <point x="324.0" y="512.0"/>
      <point x="324.0" y="533.0" type="qcurve" smooth="yes"/>
      <point x="324.0" y="558.0"/>
      <point x="295.0" y="586.0"/>
      <point x="265.0" y="586.0" type="qcurve"/>
      <point x="200.0" y="586.0" type="line"/>
      <point x="211.0" y="594.0" type="line"/>
      <point x="211.0" y="478.0" type="line"/>
    </contour>
    <contour>
      <point x="48.0" y="483.0" type="qcurve" smooth="yes"/>
      <point x="48.0" y="396.58048780487803"/>
      <point x="173.0" y="277.0"/>
      <point x="259.0" y="277.0" type="qcurve" smooth="yes"/>
      <point x="346.4142857142857" y="277.0"/>
      <point x="470.0" y="397.0"/>
      <point x="470.0" y="483.0" type="qcurve" smooth="yes"/>
      <point x="470.0" y="570.0"/>
      <point x="346.4142857142857" y="689.0"/>
      <point x="259.0" y="689.0" type="qcurve" smooth="yes"/>
      <point x="172.59047619047618" y="689.0"/>
      <point x="48.0" y="570.0"/>
    </contour>
    <contour>
      <point x="314.0" y="367.0" type="line"/>
      <point x="273.0" y="471.0" type="line"/>
      <point x="292.0" y="479.0" type="line"/>
      <point x="337.0" y="367.0" type="line"/>
    </contour>
  </outline>
</glyph>
<glyph name="macron" format="2">
  <advance width="424"/>
  <unicode hex="00AF"/>
  <outline>
    <contour>
      <point x="347.0" y="629.0" type="line"/>
      <point x="77.0" y="629.0" type="line"/>
      <point x="77.0" y="651.0" type="line"/>
      <point x="347.0" y="651.0" type="line"/>
    </contour>
  </outline>
</glyph>
<glyph name="plusminus" format="2">
  <advance width="582"/>
  <unicode hex="00B1"/>
  <note>
plusminus
</note>
  <outline>
    <contour>
      <point x="529.0" y="346.0" type="line"/>
      <point x="53.0" y="346.0" type="line"/>
      <point x="53.0" y="368.0" type="line"/>
      <point x="529.0" y="368.0" type="line"/>
    </contour>
    <contour>
      <point x="302.0" y="183.0" type="line"/>
      <point x="279.0" y="183.0" type="line"/>
      <point x="279.0" y="525.0" type="line"/>
      <point x="302.0" y="525.0" type="line"/>
    </contour>
    <contour>
      <point x="529.0" y="68.0" type="line"/>
      <point x="53.0" y="68.0" type="line"/>
      <point x="53.0" y="90.0" type="line"/>
      <point x="529.0" y="90.0" type="line"/>
    </contour>
  </outline>
</glyph>
<glyph name="micro" format="2">
  <advance width="549"/>
  <unicode hex="00B5"/>
  <note>
uni00B5
</note>
  <outline>
    <contour>
      <point x="447.0" y="525.0" type="line"/>
      <point x="469.0" y="525.0" type="line"/>
      <point x="469.0" y="0.0" type="line"/>
      <point x="449.0" y="0.0" type="line"/>
      <point x="442.99951340470994" y="140.49911804603676" type="line"/>
      <point x="462.9991484582424" y="139.99896598500862" type="line"/>
      <point x="432.8354367812142" y="56.54470117652184"/>
      <point x="325.5000110878325" y="-10.0"/>
      <point x="263.0" y="-10.0" type="qcurve" smooth="yes"/>
      <point x="192.06735751295338" y="-10.0"/>
      <point x="89.49307880974318" y="56.01054417571427"/>
      <point x="78.0" y="149.0" type="qcurve"/>
      <point x="95.0" y="103.0" type="line"/>
      <point x="95.0" y="-157.0" type="line"/>
      <point x="73.0" y="-157.0" type="line"/>
      <point x="73.0" y="525.0" type="line"/>
      <point x="95.0" y="525.0" type="line"/>
      <point x="95.0" y="174.0" type="line" smooth="yes"/>
      <point x="95.0" y="99.0"/>
      <point x="176.60000000000002" y="12.0"/>
      <point x="263.0" y="12.0" type="qcurve" smooth="yes"/>
      <point x="341.4090909090909" y="12.0"/>
      <point x="447.0" y="122.05714285714286"/>
      <point x="447.0" y="192.0" type="qcurve"/>
    </contour>
  </outline>
</glyph>
<glyph name="cedilla" format="2">
  <advance width="267"/>
  <unicode hex="00B8"/>
  <outline>
    <contour>
      <point x="81.0" y="-81.0" type="line"/>
      <point x="63.0" y="-78.0" type="line"/>
      <point x="117.0" y="0.0" type="line"/>
      <point x="139.0" y="0.0" type="line"/>
    </contour>
    <contour>
      <point x="196.0" y="-149.0" type="qcurve" smooth="yes"/>
      <point x="196.0" y="-167.0"/>
      <point x="177.0" y="-201.0"/>
      <point x="156.0" y="-211.0" type="qcurve" smooth="yes"/>
      <point x="137.0" y="-220.0"/>
      <point x="84.0" y="-227.0"/>
      <point x="50.0" y="-227.0" type="qcurve"/>
      <point x="48.0" y="-208.0" type="line"/>
      <point x="90.0" y="-209.0"/>
      <point x="176.0" y="-188.0"/>
      <point x="176.0" y="-148.0" type="qcurve" smooth="yes"/>
      <point x="176.0" y="-122.0"/>
      <point x="134.0" y="-88.0"/>
      <point x="76.0" y="-88.0" type="qcurve"/>
      <point x="67.0" y="-82.0" type="line"/>
      <point x="63.0" y="-78.0" type="line"/>
      <point x="82.0" y="-71.0" type="line"/>
      <point x="145.0" y="-72.0"/>
      <point x="196.0" y="-113.0"/>
    </contour>
  </outline>
</glyph>
<glyph name="ordmasculine" format="2">
  <advance width="360"/>
  <unicode hex="00BA"/>
  <note>
ordmasculine
</note>
  <outline>
    <contour>
      <point x="180.0" y="731.0" type="qcurve"/>
      <point x="240.0" y="731.0"/>
      <point x="320.0" y="633.0"/>
      <point x="320.0" y="561.0" type="qcurve"/>
      <point x="320.0" y="489.0"/>
      <point x="240.0" y="392.0"/>
      <point x="180.0" y="392.0" type="qcurve"/>
      <point x="121.0" y="392.0"/>
      <point x="40.0" y="489.0"/>
      <point x="40.0" y="561.0" type="qcurve"/>
      <point x="40.0" y="633.0"/>
      <point x="121.0" y="731.0"/>
    </contour>
    <contour>
      <point x="60.0" y="561.0" type="qcurve"/>
      <point x="60.0" y="498.0"/>
      <point x="128.0" y="412.0"/>
      <point x="179.0" y="412.0" type="qcurve"/>
      <point x="231.0" y="412.0"/>
      <point x="300.0" y="498.0"/>
      <point x="300.0" y="561.0" type="qcurve"/>
      <point x="300.0" y="625.0"/>
      <point x="230.0" y="711.0"/>
      <point x="179.0" y="711.0" type="qcurve"/>
      <point x="128.0" y="711.0"/>
      <point x="60.0" y="625.0"/>
    </contour>
  </outline>
</glyph>
<glyph name="AE" format="2">
  <advance width="926"/>
  <unicode hex="00C6"/>
  <note>
AE
</note>
  <outline>
    <contour>
      <point x="164.0" y="216.0" type="line"/>
      <point x="178.0" y="238.0" type="line"/>
      <point x="502.0" y="238.0" type="line"/>
      <point x="486.0" y="220.0" type="line"/>
      <point x="486.0" y="691.0" type="line"/>
      <point x="495.0" y="691.0" type="line"/>
      <point x="28.0" y="0.0" type="line"/>
      <point x="0.0" y="0.0" type="line"/>
      <point x="476.0" y="700.0" type="line"/>
      <point x="861.0" y="700.0" type="line"/>
      <point x="861.0" y="678.0" type="line"/>
      <point x="499.0" y="678.0" type="line"/>
      <point x="508.0" y="687.0" type="line"/>
      <point x="508.0" y="357.0" type="line"/>
      <point x="498.0" y="372.0" type="line"/>
      <point x="804.0" y="372.0" type="line"/>
      <point x="804.0" y="350.0" type="line"/>
      <point x="499.0" y="350.0" type="line"/>
      <point x="508.0" y="367.0" type="line"/>
      <point x="508.0" y="9.0" type="line"/>
      <point x="497.0" y="22.0" type="line"/>
      <point x="861.0" y="22.0" type="line"/>
      <point x="861.0" y="0.0" type="line"/>
      <point x="486.0" y="0.0" type="line"/>
      <point x="486.0" y="228.0" type="line"/>
      <point x="502.0" y="216.0" type="line"/>
    </contour>
  </outline>
</glyph>
<glyph name="multiply" format="2">
  <advance width="444"/>
  <unicode hex="00D7"/>
  <note>
multiply
</note>
  <outline>
    <contour>
      <point x="404.0" y="123.0" type="line"/>
      <point x="387.0" y="108.0" type="line"/>
      <point x="49.0" y="445.0" type="line"/>
      <point x="66.0" y="460.0" type="line"/>
    </contour>
    <contour>
      <point x="57.0" y="108.0" type="line"/>
      <point x="40.0" y="123.0" type="line"/>
      <point x="378.0" y="460.0" type="line"/>
      <point x="395.0" y="445.0" type="line"/>
    </contour>
  </outline>
</glyph>
<glyph name="Thorn" format="2">
  <advance width="566"/>
  <unicode hex="00DE"/>
  <note>
Thorn
</note>
  <outline>
    <contour>
      <point x="110.0" y="700.0" type="line"/>
      <point x="132.0" y="700.0" type="line"/>
      <point x="132.0" y="0.0" type="line"/>
      <point x="110.0" y="0.0" type="line"/>
    </contour>
    <contour>
      <point x="122.0" y="171.0" type="line"/>
      <point x="122.0" y="193.0" type="line"/>
      <point x="327.0" y="193.0" type="line" smooth="yes"/>
      <point x="404.0" y="193.0"/>
      <point x="489.0" y="294.0"/>
      <point x="489.0" y="358.0" type="qcurve" smooth="yes"/>
      <point x="489.0" y="430.0"/>
      <point x="407.0" y="521.0"/>
      <point x="327.0" y="521.0" type="qcurve"/>
      <point x="122.0" y="521.0" type="line"/>
      <point x="122.0" y="543.0" type="line"/>
      <point x="329.0" y="543.0" type="line" smooth="yes"/>
      <point x="409.0" y="543.0"/>
      <point x="511.0" y="442.0"/>
      <point x="511.0" y="358.0" type="qcurve" smooth="yes"/>
      <point x="511.0" y="280.0"/>
      <point x="408.0" y="171.0"/>
      <point x="328.0" y="171.0" type="qcurve"/>
    </contour>
  </outline>
</glyph>
<glyph name="germandbls" format="2">
  <advance width="604"/>
  <unicode hex="00DF"/>
  <note>
germandbls
</note>
  <outline>
    <contour>
      <point x="138.0" y="416.0" type="line"/>
      <point x="40.0" y="416.0" type="line"/>
      <point x="40.0" y="438.0" type="line"/>
      <point x="138.0" y="438.0" type="line"/>
    </contour>
    <contour>
      <point x="148.0" y="0.0" type="line"/>
      <point x="126.0" y="0.0" type="line"/>
      <point x="126.0" y="494.0" type="line"/>
      <point x="126.0" y="611.0"/>
      <point x="227.64999999999998" y="728.0"/>
      <point x="316.0" y="728.0" type="qcurve"/>
      <point x="399.1912568306011" y="728.0"/>
      <point x="489.0" y="640.0"/>
      <point x="489.0" y="577.0" type="qcurve"/>
      <point x="489.0" y="507.7639751552796"/>
      <point x="388.0" y="420.0"/>
      <point x="318.0" y="420.0" type="qcurve"/>
      <point x="318.0" y="432.0" type="line"/>
      <point x="457.0" y="388.0"/>
      <point x="562.0" y="258.0"/>
      <point x="562.0" y="186.0" type="qcurve" smooth="yes"/>
      <point x="562.0" y="89.0"/>
      <point x="462.4921503061744" y="-8.984617007152842"/>
      <point x="364.0" y="-10.0" type="qcurve" smooth="yes"/>
      <point x="303.0748624206167" y="-9.017336490655108"/>
      <point x="222.02072818510618" y="38.96372567606419"/>
      <point x="194.0" y="88.0" type="qcurve"/>
      <point x="214.0" y="100.0" type="line"/>
      <point x="242.95177620710976" y="50.08314447050044"/>
      <point x="317.24675324675326" y="12.0"/>
      <point x="364.0" y="12.0" type="qcurve"/>
      <point x="444.37790697674416" y="12.0"/>
      <point x="539.0" y="91.0"/>
      <point x="539.0" y="188.0" type="qcurve" smooth="yes"/>
      <point x="539.0" y="264.0"/>
      <point x="422.46216824831413" y="380.6778760745736"/>
      <point x="310.0" y="414.0" type="qcurve"/>
      <point x="310.0" y="437.0" type="line"/>
      <point x="381.003933652711" y="441.00022161423726"/>
      <point x="466.0" y="518.6666666666666"/>
      <point x="466.0" y="577.0" type="qcurve"/>
      <point x="466.0" y="631.0"/>
      <point x="387.4193548387097" y="706.0"/>
      <point x="321.0" y="706.0" type="qcurve"/>
      <point x="237.8087431693989" y="706.0"/>
      <point x="148.0" y="601.0"/>
      <point x="148.0" y="493.0" type="qcurve"/>
    </contour>
  </outline>
</glyph>
<glyph name="ae" format="2">
  <advance width="932"/>
  <unicode hex="00E6"/>
  <note>
ae
</note>
  <outline>
    <contour>
      <point x="272.0" y="530.0" type="qcurve"/>
      <point x="362.0" y="530.0"/>
      <point x="464.0" y="443.0"/>
      <point x="464.0" y="364.0" type="qcurve"/>
      <point x="464.0" y="276.0" type="line"/>
      <point x="442.0" y="276.0" type="line"/>
      <point x="442.0" y="367.0" type="line"/>
      <point x="442.0" y="431.0"/>
      <point x="353.0" y="508.0"/>
      <point x="271.0" y="508.0" type="qcurve"/>
      <point x="214.0" y="508.0"/>
      <point x="115.0" y="458.0"/>
      <point x="79.0" y="412.0" type="qcurve"/>
      <point x="63.0" y="428.0" type="line"/>
      <point x="104.0" y="478.0"/>
      <point x="209.0" y="530.0"/>
    </contour>
    <contour>
      <point x="464.0" y="263.0" type="qcurve"/>
      <point x="465.0" y="153.0"/>
      <point x="596.0" y="12.0"/>
      <point x="699.0" y="12.0" type="qcurve" smooth="yes"/>
      <point x="751.0" y="12.0"/>
      <point x="839.0" y="50.0"/>
      <point x="874.0" y="83.0" type="qcurve"/>
      <point x="886.0" y="65.0" type="line"/>
      <point x="849.0" y="31.0"/>
      <point x="756.0" y="-10.0"/>
      <point x="699.0" y="-10.0" type="qcurve" smooth="yes"/>
      <point x="585.0" y="-10.0"/>
      <point x="442.0" y="144.0"/>
      <point x="442.0" y="263.0" type="qcurve"/>
      <point x="442.0" y="373.0"/>
      <point x="579.0" y="529.0"/>
      <point x="687.0" y="529.0" type="qcurve" smooth="yes"/>
      <point x="786.0" y="529.0"/>
      <point x="912.0" y="401.0"/>
      <point x="912.0" y="291.0" type="qcurve"/>
      <point x="910.0" y="265.0" type="line"/>
      <point x="240.0" y="265.0" type="line" smooth="yes"/>
      <point x="155.0" y="265.0"/>
      <point x="62.0" y="205.0"/>
      <point x="62.0" y="149.0" type="qcurve"/>
      <point x="62.0" y="88.0"/>
      <point x="155.0" y="12.0"/>
      <point x="219.0" y="12.0" type="qcurve"/>
      <point x="297.0" y="12.0"/>
      <point x="425.0" y="96.0"/>
      <point x="459.0" y="165.0" type="qcurve"/>
      <point x="472.0" y="146.0" type="line"/>
      <point x="436.0" y="76.0"/>
      <point x="302.0" y="-10.0"/>
      <point x="218.0" y="-10.0" type="qcurve"/>
      <point x="142.0" y="-10.0"/>
      <point x="40.0" y="77.0"/>
      <point x="40.0" y="149.0" type="qcurve"/>
      <point x="40.0" y="215.0"/>
      <point x="144.0" y="287.0"/>
      <point x="246.0" y="287.0" type="qcurve"/>
      <point x="900.0" y="287.0" type="line"/>
      <point x="890.0" y="272.0" type="line"/>
      <point x="890.0" y="295.0" type="line"/>
      <point x="890.0" y="390.0"/>
      <point x="773.0" y="507.0"/>
      <point x="690.0" y="507.0" type="qcurve"/>
      <point x="588.0" y="507.0"/>
      <point x="465.0" y="370.0"/>
    </contour>
  </outline>
</glyph>
<glyph name="eth" format="2">
  <advance width="574"/>
  <unicode hex="00F0"/>
  <note>
eth
</note>
  <outline>
    <contour>
      <point x="536.0" y="259.0" type="qcurve"/>
      <point x="536.0" y="143.0"/>
      <point x="396.0" y="-10.0"/>
      <point x="288.0" y="-10.0" type="qcurve"/>
      <point x="178.0" y="-10.0"/>
      <point x="40.0" y="142.0"/>
      <point x="40.0" y="263.0" type="qcurve"/>
      <point x="40.0" y="382.0"/>
      <point x="182.0" y="527.0"/>
      <point x="292.0" y="527.0" type="qcurve"/>
      <point x="375.0" y="527.0"/>
      <point x="504.0" y="423.0"/>
      <point x="511.0" y="369.0" type="qcurve"/>
      <point x="501.0" y="371.0" type="line"/>
      <point x="501.0" y="492.0"/>
      <point x="320.0" y="697.0"/>
      <point x="201.0" y="718.0" type="qcurve"/>
      <point x="211.0" y="739.0" type="line"/>
      <point x="361.0" y="707.0"/>
      <point x="536.0" y="465.0"/>
    </contour>
    <contour>
      <point x="63.0" y="263.0" type="qcurve"/>
      <point x="63.0" y="153.0"/>
      <point x="189.0" y="12.0"/>
      <point x="288.0" y="12.0" type="qcurve"/>
      <point x="387.0" y="12.0"/>
      <point x="513.0" y="153.0"/>
      <point x="513.0" y="263.0" type="qcurve"/>
      <point x="513.0" y="370.0"/>
      <point x="387.0" y="505.0"/>
      <point x="288.0" y="505.0" type="qcurve"/>
      <point x="189.0" y="505.0"/>
      <point x="63.0" y="370.0"/>
    </contour>
    <contour>
      <point x="380.0" y="632.0" type="line"/>
      <point x="164.0" y="574.0" type="line"/>
      <point x="160.0" y="596.0" type="line"/>
      <point x="362.0" y="650.0" type="line"/>
      <point x="375.0" y="653.0" type="line"/>
      <point x="487.0" y="684.0" type="line"/>
      <point x="493.0" y="663.0" type="line"/>
      <point x="395.0" y="636.0" type="line"/>
    </contour>
  </outline>
</glyph>
<glyph name="divide" format="2">
  <advance width="588"/>
  <unicode hex="00F7"/>
  <note>
divide
</note>
  <outline>
    <contour>
      <point x="530.0" y="286.0" type="line"/>
      <point x="56.0" y="286.0" type="line"/>
      <point x="56.0" y="308.0" type="line"/>
      <point x="530.0" y="308.0" type="line"/>
    </contour>
    <contour>
      <point x="321.0" y="148.0" type="qcurve" smooth="yes"/>
      <point x="321.0" y="137.0"/>
      <point x="306.0" y="119.0"/>
      <point x="293.0" y="119.0" type="qcurve" smooth="yes"/>
      <point x="280.0" y="119.0"/>
      <point x="265.0" y="136.0"/>
      <point x="265.0" y="148.0" type="qcurve" smooth="yes"/>
      <point x="265.0" y="158.0"/>
      <point x="280.0" y="177.0"/>
      <point x="293.0" y="177.0" type="qcurve" smooth="yes"/>
      <point x="306.0" y="177.0"/>
      <point x="321.0" y="158.0"/>
    </contour>
    <contour>
      <point x="321.0" y="446.0" type="qcurve" smooth="yes"/>
      <point x="321.0" y="435.0"/>
      <point x="306.0" y="417.0"/>
      <point x="293.0" y="417.0" type="qcurve" smooth="yes"/>
      <point x="280.0" y="417.0"/>
      <point x="265.0" y="434.0"/>
      <point x="265.0" y="446.0" type="qcurve" smooth="yes"/>
      <point x="265.0" y="456.0"/>
      <point x="280.0" y="475.0"/>
      <point x="293.0" y="475.0" type="qcurve" smooth="yes"/>
      <point x="306.0" y="475.0"/>
      <point x="321.0" y="456.0"/>
    </contour>
  </outline>
</glyph>
<glyph name="oslash" format="2">
  <advance width="615"/>
  <unicode hex="00F8"/>
  <note>
oslash
</note>
  <outline>
    <contour>
      <point x="81.0" y="-19.0" type="line"/>
      <point x="65.0" y="-5.0" type="line"/>
      <point x="526.0" y="538.0" type="line"/>
      <point x="543.0" y="523.0" type="line"/>
    </contour>
    <contour>
      <point x="308.0" y="529.0" type="qcurve"/>
      <point x="427.0" y="529.0"/>
      <point x="575.0" y="380.0"/>
      <point x="575.0" y="263.0" type="qcurve"/>
      <point x="575.0" y="144.0"/>
      <point x="427.0" y="-10.0"/>
      <point x="308.0" y="-10.0" type="qcurve"/>
      <point x="190.0" y="-10.0"/>
      <point x="40.0" y="144.0"/>
      <point x="40.0" y="263.0" type="qcurve"/>
      <point x="40.0" y="380.0"/>
      <point x="190.0" y="529.0"/>
    </contour>
    <contour>
      <point x="308.0" y="12.0" type="qcurve"/>
      <point x="414.0" y="12.0"/>
      <point x="552.0" y="153.0"/>
      <point x="553.0" y="263.0" type="qcurve"/>
      <point x="552.0" y="369.0"/>
      <point x="414.0" y="507.0"/>
      <point x="308.0" y="507.0" type="qcurve"/>
      <point x="201.0" y="507.0"/>
      <point x="63.0" y="370.0"/>
      <point x="62.0" y="263.0" type="qcurve"/>
      <point x="63.0" y="153.0"/>
      <point x="201.0" y="12.0"/>
    </contour>
  </outline>
</glyph>
<glyph name="thorn" format="2">
  <advance width="615"/>
  <unicode hex="00FE"/>
  <note>
thorn
</note>
  <outline>
    <contour>
      <point x="324.0" y="530.0" type="qcurve"/>
      <point x="427.0" y="530.0"/>
      <point x="575.0" y="377.0"/>
      <point x="575.0" y="259.0" type="qcurve"/>
      <point x="575.0" y="142.0"/>
      <point x="431.0" y="-10.0"/>
      <point x="323.0" y="-10.0" type="qcurve"/>
      <point x="236.0" y="-10.0"/>
      <point x="110.0" y="86.0"/>
      <point x="87.0" y="164.0" type="qcurve"/>
      <point x="95.0" y="164.0" type="line"/>
      <point x="95.0" y="-230.0" type="line"/>
      <point x="73.0" y="-230.0" type="line"/>
      <point x="73.0" y="740.0" type="line"/>
      <point x="95.0" y="740.0" type="line"/>
      <point x="95.0" y="352.0" type="line"/>
      <point x="87.0" y="353.0" type="line"/>
      <point x="111.0" y="431.0"/>
      <point x="237.0" y="530.0"/>
    </contour>
    <contour>
      <point x="553.0" y="259.0" type="qcurve"/>
      <point x="553.0" y="367.0"/>
      <point x="420.0" y="508.0"/>
      <point x="319.0" y="508.0" type="qcurve"/>
      <point x="221.0" y="508.0"/>
      <point x="92.0" y="368.0"/>
      <point x="92.0" y="260.0" type="qcurve"/>
      <point x="92.0" y="150.0"/>
      <point x="222.0" y="12.0"/>
      <point x="319.0" y="12.0" type="qcurve"/>
      <point x="422.0" y="12.0"/>
      <point x="553.0" y="152.0"/>
    </contour>
  </outline>
</glyph>
<glyph name="Aogonek" format="2">
  <advance width="611"/>
  <unicode hex="0104"/>
  <outline>
    <contour>
      <point x="579.0" y="9.0" type="line"/>
      <point x="565.0" y="0.0" type="line"/>
      <point x="372.0" y="504.0" type="line" smooth="yes"/>
      <point x="362.0" y="529.0"/>
      <point x="344.0" y="578.0"/>
      <point x="336.0" y="599.0" type="qcurve" smooth="yes"/>
      <point x="324.0" y="631.0"/>
      <point x="306.0" y="676.0"/>
      <point x="304.0" y="682.0" type="qcurve"/>
      <point x="305.0" y="682.0" type="line"/>
      <point x="303.0" y="676.0"/>
      <point x="286.0" y="632.0"/>
      <point x="274.0" y="599.0" type="qcurve" smooth="yes"/>
      <point x="266.0" y="579.0"/>
      <point x="247.0" y="529.0"/>
      <point x="237.0" y="503.0" type="qcurve" smooth="yes"/>
      <point x="46.0" y="0.0" type="line"/>
      <point x="20.0" y="0.0" type="line"/>
      <point x="289.0" y="700.0" type="line"/>
      <point x="322.0" y="700.0" type="line"/>
      <point x="589.0" y="5.0" type="line"/>
      <point x="588.0" y="0.0" type="line"/>
      <point x="530.0" y="-10.0"/>
      <point x="450.0" y="-77.0"/>
      <point x="450.0" y="-130.0" type="qcurve" smooth="yes"/>
      <point x="450.0" y="-163.0"/>
      <point x="495.0" y="-208.0"/>
      <point x="528.0" y="-208.0" type="qcurve" smooth="yes"/>
      <point x="554.0" y="-208.0"/>
      <point x="592.0" y="-183.0"/>
      <point x="603.0" y="-163.0" type="qcurve"/>
      <point x="618.0" y="-176.0" type="line"/>
      <point x="606.0" y="-200.0"/>
      <point x="558.0" y="-230.0"/>
      <point x="528.0" y="-230.0" type="qcurve" smooth="yes"/>
      <point x="486.0" y="-230.0"/>
      <point x="428.0" y="-172.0"/>
      <point x="428.0" y="-130.0" type="qcurve" smooth="yes"/>
      <point x="428.0" y="-70.0"/>
      <point x="524.0" y="8.0"/>
      <point x="579.0" y="18.0" type="qcurve"/>
    </contour>
    <contour>
      <point x="299.0" y="230.0" type="line"/>
      <point x="120.0" y="230.0" type="line"/>
      <point x="128.0" y="253.0" type="line"/>
      <point x="299.0" y="253.0" type="line"/>
    </contour>
    <contour>
      <point x="493.0" y="230.0" type="line"/>
      <point x="299.0" y="230.0" type="line"/>
      <point x="299.0" y="253.0" type="line"/>
      <point x="485.0" y="253.0" type="line"/>
    </contour>
  </outline>
</glyph>
<glyph name="aogonek" format="2">
  <advance width="602"/>
  <unicode hex="0105"/>
  <note>
aogonek
</note>
  <outline>
    <contour>
      <point x="416.0" y="25.0" type="qcurve" smooth="yes"/>
      <point x="390.0" y="8.0"/>
      <point x="328.0" y="-10.0"/>
      <point x="294.0" y="-10.0" type="qcurve"/>
      <point x="184.0" y="-10.0"/>
      <point x="40.0" y="141.0"/>
      <point x="40.0" y="258.0" type="qcurve"/>
      <point x="40.0" y="376.0"/>
      <point x="187.0" y="530.0"/>
      <point x="290.0" y="530.0" type="qcurve"/>
      <point x="374.0" y="530.0"/>
      <point x="502.0" y="430.0"/>
      <point x="516.0" y="350.0" type="qcurve"/>
      <point x="510.0" y="353.0" type="line"/>
      <point x="512.0" y="525.0" type="line"/>
      <point x="532.0" y="525.0" type="line"/>
      <point x="532.0" y="0.0" type="line"/>
      <point x="476.0" y="-10.0"/>
      <point x="399.0" y="-77.0"/>
      <point x="399.0" y="-130.0" type="qcurve" smooth="yes"/>
      <point x="399.0" y="-163.0"/>
      <point x="441.0" y="-208.0"/>
      <point x="472.0" y="-208.0" type="qcurve" smooth="yes"/>
      <point x="496.0" y="-208.0"/>
      <point x="531.0" y="-183.0"/>
      <point x="542.0" y="-163.0" type="qcurve"/>
      <point x="557.0" y="-176.0" type="line"/>
      <point x="545.0" y="-200.0"/>
      <point x="500.0" y="-230.0"/>
      <point x="472.0" y="-230.0" type="qcurve" smooth="yes"/>
      <point x="430.0" y="-230.0"/>
      <point x="377.0" y="-173.0"/>
      <point x="377.0" y="-130.0" type="qcurve" smooth="yes"/>
      <point x="377.0" y="-70.0"/>
      <point x="470.0" y="8.0"/>
      <point x="527.0" y="18.0" type="qcurve"/>
      <point x="527.0" y="0.0" type="line"/>
      <point x="510.0" y="0.0" type="line"/>
      <point x="510.0" y="172.0" type="line"/>
      <point x="519.0" y="175.0" type="line"/>
      <point x="508.0" y="127.0"/>
      <point x="454.0" y="49.0"/>
    </contour>
    <contour>
      <point x="63.0" y="258.0" type="qcurve"/>
      <point x="63.0" y="152.0"/>
      <point x="191.0" y="12.0"/>
      <point x="294.0" y="12.0" type="qcurve"/>
      <point x="386.0" y="12.0"/>
      <point x="511.0" y="150.0"/>
      <point x="511.0" y="260.0" type="qcurve"/>
      <point x="511.0" y="368.0"/>
      <point x="386.0" y="508.0"/>
      <point x="292.0" y="508.0" type="qcurve"/>
      <point x="191.0" y="508.0"/>
      <point x="63.0" y="367.0"/>
    </contour>
  </outline>
</glyph>
<glyph name="eogonek" format="2">
  <advance width="545"/>
  <unicode hex="0119"/>
  <note>
eogonek
</note>
  <outline>
    <contour>
      <point x="356.0" y="6.0" type="qcurve"/>
      <point x="353.0" y="-9.0" type="line"/>
      <point x="341.0" y="-9.0"/>
      <point x="303.0" y="-10.0"/>
      <point x="297.0" y="-10.0" type="qcurve"/>
      <point x="183.0" y="-10.0"/>
      <point x="40.0" y="144.0"/>
      <point x="40.0" y="263.0" type="qcurve"/>
      <point x="40.0" y="380.0"/>
      <point x="177.0" y="530.0"/>
      <point x="285.0" y="530.0" type="qcurve"/>
      <point x="384.0" y="530.0"/>
      <point x="510.0" y="401.0"/>
      <point x="510.0" y="291.0" type="qcurve"/>
      <point x="509.0" y="265.0" type="line"/>
      <point x="53.0" y="265.0" type="line"/>
      <point x="53.0" y="287.0" type="line"/>
      <point x="497.0" y="287.0" type="line"/>
      <point x="489.0" y="284.0" type="line"/>
      <point x="489.0" y="296.0" type="line"/>
      <point x="485.0" y="392.0"/>
      <point x="372.0" y="508.0"/>
      <point x="288.0" y="508.0" type="qcurve"/>
      <point x="184.0" y="508.0"/>
      <point x="62.0" y="365.0"/>
      <point x="62.0" y="274.0" type="qcurve"/>
      <point x="62.0" y="158.0"/>
      <point x="190.0" y="12.0"/>
      <point x="297.0" y="12.0" type="qcurve"/>
      <point x="349.0" y="12.0"/>
      <point x="437.0" y="50.0"/>
      <point x="472.0" y="83.0" type="qcurve"/>
      <point x="484.0" y="65.0" type="line"/>
      <point x="465.0" y="48.0"/>
      <point x="424.0" y="21.0"/>
      <point x="400.0" y="10.0" type="qcurve" smooth="yes"/>
      <point x="354.0" y="-11.0"/>
      <point x="268.0" y="-78.0"/>
      <point x="268.0" y="-130.0" type="qcurve" smooth="yes"/>
      <point x="268.0" y="-163.0"/>
      <point x="310.0" y="-208.0"/>
      <point x="341.0" y="-208.0" type="qcurve" smooth="yes"/>
      <point x="365.0" y="-208.0"/>
      <point x="400.0" y="-183.0"/>
      <point x="411.0" y="-163.0" type="qcurve"/>
      <point x="426.0" y="-176.0" type="line"/>
      <point x="414.0" y="-200.0"/>
      <point x="369.0" y="-230.0"/>
      <point x="341.0" y="-230.0" type="qcurve" smooth="yes"/>
      <point x="299.0" y="-230.0"/>
      <point x="246.0" y="-173.0"/>
      <point x="246.0" y="-130.0" type="qcurve" smooth="yes"/>
      <point x="246.0" y="-90.0"/>
      <point x="295.0" y="-27.0"/>
    </contour>
  </outline>
</glyph>
<glyph name="Hbar" format="2">
  <advance width="731"/>
  <unicode hex="0126"/>
  <note>
Hbar
</note>
  <outline>
    <contour>
      <point x="110.0" y="541.0" type="line"/>
      <point x="24.0" y="541.0" type="line"/>
      <point x="24.0" y="562.0" type="line"/>
      <point x="110.0" y="562.0" type="line"/>
      <point x="127.0" y="562.0" type="line"/>
      <point x="606.0" y="562.0" type="line"/>
      <point x="621.0" y="562.0" type="line"/>
      <point x="706.0" y="562.0" type="line"/>
      <point x="706.0" y="541.0" type="line"/>
      <point x="621.0" y="541.0" type="line"/>
      <point x="606.0" y="541.0" type="line"/>
      <point x="127.0" y="541.0" type="line"/>
    </contour>
    <contour>
      <point x="110.0" y="700.0" type="line"/>
      <point x="132.0" y="700.0" type="line"/>
      <point x="132.0" y="0.0" type="line"/>
      <point x="110.0" y="0.0" type="line"/>
    </contour>
    <contour>
      <point x="599.0" y="700.0" type="line"/>
      <point x="621.0" y="700.0" type="line"/>
      <point x="621.0" y="0.0" type="line"/>
      <point x="599.0" y="0.0" type="line"/>
    </contour>
    <contour>
      <point x="121.0" y="338.0" type="line"/>
      <point x="121.0" y="360.0" type="line"/>
      <point x="610.0" y="360.0" type="line"/>
      <point x="610.0" y="338.0" type="line"/>
    </contour>
  </outline>
</glyph>
<glyph name="iogonek" format="2">
  <advance width="159"/>
  <unicode hex="012F"/>
  <note>
iogonek
</note>
  <outline>
    <contour>
      <point x="83.0" y="16.0" type="qcurve"/>
      <point x="70.0" y="-2.0" type="line"/>
      <point x="70.0" y="525.0" type="line"/>
      <point x="92.0" y="525.0" type="line"/>
      <point x="92.0" y="0.0" type="line"/>
      <point x="52.0" y="-27.0"/>
      <point x="-1.0" y="-97.0"/>
      <point x="-1.0" y="-130.0" type="qcurve" smooth="yes"/>
      <point x="-1.0" y="-163.0"/>
      <point x="41.0" y="-208.0"/>
      <point x="72.0" y="-208.0" type="qcurve" smooth="yes"/>
      <point x="96.0" y="-208.0"/>
      <point x="131.0" y="-183.0"/>
      <point x="142.0" y="-163.0" type="qcurve"/>
      <point x="157.0" y="-176.0" type="line"/>
      <point x="145.0" y="-200.0"/>
      <point x="100.0" y="-230.0"/>
      <point x="72.0" y="-230.0" type="qcurve" smooth="yes"/>
      <point x="30.0" y="-230.0"/>
      <point x="-23.0" y="-173.0"/>
      <point x="-23.0" y="-130.0" type="qcurve" smooth="yes"/>
      <point x="-23.0" y="-94.0"/>
      <point x="33.0" y="-20.0"/>
    </contour>
    <contour>
      <point x="111.0" y="698.0" type="qcurve" smooth="yes"/>
      <point x="111.0" y="685.0"/>
      <point x="97.0" y="669.0"/>
      <point x="83.0" y="669.0" type="qcurve" smooth="yes"/>
      <point x="69.0" y="669.0"/>
      <point x="55.0" y="685.0"/>
      <point x="55.0" y="698.0" type="qcurve" smooth="yes"/>
      <point x="55.0" y="710.0"/>
      <point x="69.0" y="727.0"/>
      <point x="83.0" y="727.0" type="qcurve" smooth="yes"/>
      <point x="96.0" y="727.0"/>
      <point x="111.0" y="711.0"/>
    </contour>
  </outline>
</glyph>
<glyph name="idotless" format="2">
  <advance width="162"/>
  <unicode hex="0131"/>
  <note>
dotlessi
</note>
  <outline>
    <contour>
      <point x="92.0" y="525.0" type="line"/>
      <point x="92.0" y="0.0" type="line"/>
      <point x="70.0" y="0.0" type="line"/>
      <point x="70.0" y="525.0" type="line"/>
    </contour>
  </outline>
</glyph>
<glyph name="kgreenlandic" format="2">
  <advance width="483"/>
  <unicode hex="0138"/>
  <outline>
    <contour>
      <point x="99.0" y="0.0" type="line"/>
      <point x="77.0" y="0.0" type="line"/>
      <point x="77.0" y="525.0" type="line"/>
      <point x="99.0" y="525.0" type="line"/>
    </contour>
    <contour>
      <point x="408.0" y="525.0" type="line"/>
      <point x="440.0" y="525.0" type="line"/>
      <point x="205.0" y="292.0" type="line"/>
      <point x="91.0" y="179.0" type="line"/>
      <point x="91.0" y="211.0" type="line"/>
    </contour>
    <contour>
      <point x="474.0" y="0.0" type="line"/>
      <point x="443.0" y="0.0" type="line"/>
      <point x="190.0" y="291.0" type="line"/>
      <point x="207.0" y="307.0" type="line"/>
    </contour>
  </outline>
</glyph>
<glyph name="Lslash" format="2">
  <advance width="485"/>
  <unicode hex="0141"/>
  <note>
Lslash
</note>
  <outline>
    <contour>
      <point x="103.0" y="22.0" type="line"/>
      <point x="465.0" y="22.0" type="line"/>
      <point x="465.0" y="0.0" type="line"/>
      <point x="94.0" y="0.0" type="line"/>
      <point x="94.0" y="700.0" type="line"/>
      <point x="116.0" y="700.0" type="line"/>
      <point x="116.0" y="11.0" type="line"/>
    </contour>
    <contour>
      <point x="-1.0" y="312.0" type="line"/>
      <point x="-9.0" y="333.0" type="line"/>
      <point x="256.0" y="454.0" type="line"/>
      <point x="264.0" y="433.0" type="line"/>
    </contour>
  </outline>
</glyph>
<glyph name="lslash" format="2">
  <advance width="292"/>
  <unicode hex="0142"/>
  <note>
lslash
</note>
  <outline>
    <contour>
      <point x="157.0" y="0.0" type="line"/>
      <point x="135.0" y="0.0" type="line"/>
      <point x="135.0" y="740.0" type="line"/>
      <point x="157.0" y="740.0" type="line"/>
    </contour>
    <contour>
      <point x="18.0" y="283.0" type="line"/>
      <point x="10.0" y="304.0" type="line"/>
      <point x="274.0" y="425.0" type="line"/>
      <point x="282.0" y="404.0" type="line"/>
    </contour>
  </outline>
</glyph>
<glyph name="Eng" format="2">
  <advance width="730"/>
  <unicode hex="014A"/>
  <note>
Eng
</note>
  <outline>
    <contour>
      <point x="598.0" y="19.0" type="line"/>
      <point x="600.0" y="0.0" type="line"/>
      <point x="115.0" y="686.0" type="line"/>
      <point x="130.0" y="686.0" type="line"/>
      <point x="131.0" y="673.0"/>
      <point x="132.0" y="618.0"/>
      <point x="132.0" y="585.0" type="qcurve" smooth="yes"/>
      <point x="132.0" y="556.0"/>
      <point x="132.0" y="496.0"/>
      <point x="132.0" y="470.0" type="qcurve"/>
      <point x="132.0" y="0.0" type="line"/>
      <point x="110.0" y="0.0" type="line"/>
      <point x="110.0" y="700.0" type="line"/>
      <point x="132.0" y="700.0" type="line"/>
      <point x="605.0" y="31.0" type="line"/>
      <point x="601.0" y="31.0" type="line"/>
      <point x="601.0" y="75.0"/>
      <point x="599.0" y="177.0"/>
      <point x="598.0" y="241.0" type="qcurve"/>
      <point x="598.0" y="700.0" type="line"/>
      <point x="620.0" y="700.0" type="line"/>
      <point x="620.0" y="0.0" type="line"/>
      <point x="620.0" y="-60.0" type="line" smooth="yes"/>
      <point x="620.0" y="-125.0"/>
      <point x="554.0" y="-194.0"/>
      <point x="494.0" y="-194.0" type="qcurve"/>
      <point x="486.0" y="-173.0" type="line"/>
      <point x="548.0" y="-173.0"/>
      <point x="598.0" y="-108.0"/>
      <point x="598.0" y="-56.0" type="qcurve"/>
    </contour>
  </outline>
</glyph>
<glyph name="eng" format="2">
  <advance width="541"/>
  <unicode hex="014B"/>
  <note>
eng
</note>
  <outline>
    <contour>
      <point x="288.0" y="530.0" type="qcurve"/>
      <point x="376.0" y="530.0"/>
      <point x="473.0" y="434.0"/>
      <point x="473.0" y="328.0" type="qcurve"/>
      <point x="473.0" y="-60.0" type="line" smooth="yes"/>
      <point x="473.0" y="-125.0"/>
      <point x="407.0" y="-194.0"/>
      <point x="347.0" y="-194.0" type="qcurve"/>
      <point x="339.0" y="-173.0" type="line"/>
      <point x="401.0" y="-173.0"/>
      <point x="451.0" y="-108.0"/>
      <point x="451.0" y="-56.0" type="qcurve"/>
      <point x="451.0" y="328.0" type="line"/>
      <point x="451.0" y="423.0"/>
      <point x="365.0" y="508.0"/>
      <point x="286.0" y="508.0" type="qcurve"/>
      <point x="201.0" y="508.0"/>
      <point x="92.0" y="407.0"/>
      <point x="92.0" y="376.0" type="qcurve"/>
      <point x="92.0" y="0.0" type="line"/>
      <point x="70.0" y="0.0" type="line"/>
      <point x="70.0" y="525.0" type="line"/>
      <point x="90.0" y="525.0" type="line"/>
      <point x="92.0" y="420.0" type="line"/>
      <point x="129.0" y="478.0"/>
      <point x="229.0" y="530.0"/>
    </contour>
  </outline>
</glyph>
<glyph name="OE" format="2">
  <advance width="1002"/>
  <unicode hex="0152"/>
  <note>
OE
</note>
  <outline>
    <contour>
      <point x="55.0" y="350.0" type="qcurve" smooth="yes"/>
      <point x="55.0" y="502.0"/>
      <point x="247.0" y="700.0"/>
      <point x="371.0" y="700.0" type="qcurve"/>
      <point x="937.0" y="700.0" type="line"/>
      <point x="937.0" y="678.0" type="line"/>
      <point x="560.0" y="678.0" type="line"/>
      <point x="568.0" y="688.0" type="line"/>
      <point x="568.0" y="355.0" type="line"/>
      <point x="556.0" y="373.0" type="line"/>
      <point x="879.0" y="373.0" type="line"/>
      <point x="879.0" y="351.0" type="line"/>
      <point x="555.0" y="351.0" type="line"/>
      <point x="568.0" y="366.0" type="line"/>
      <point x="568.0" y="13.0" type="line"/>
      <point x="561.0" y="22.0" type="line"/>
      <point x="931.0" y="22.0" type="line"/>
      <point x="931.0" y="0.0" type="line"/>
      <point x="380.0" y="0.0" type="line" smooth="yes"/>
      <point x="253.0" y="0.0"/>
      <point x="55.0" y="199.0"/>
    </contour>
    <contour>
      <point x="554.0" y="22.0" type="line"/>
      <point x="546.0" y="13.0" type="line"/>
      <point x="546.0" y="688.0" type="line"/>
      <point x="555.0" y="678.0" type="line"/>
      <point x="377.0" y="678.0" type="line" smooth="yes"/>
      <point x="262.0" y="678.0"/>
      <point x="78.0" y="490.0"/>
      <point x="78.0" y="350.0" type="qcurve" smooth="yes"/>
      <point x="78.0" y="211.0"/>
      <point x="267.0" y="22.0"/>
      <point x="386.0" y="22.0" type="qcurve" smooth="yes"/>
    </contour>
  </outline>
</glyph>
<glyph name="Uogonek" format="2">
  <advance width="744"/>
  <unicode hex="0172"/>
  <outline>
    <contour>
      <point x="378.0" y="-4.0" type="qcurve" smooth="yes"/>
      <point x="246.0" y="-4.0"/>
      <point x="111.0" y="154.0"/>
      <point x="110.0" y="269.0" type="qcurve"/>
      <point x="110.0" y="700.0" type="line"/>
      <point x="132.0" y="700.0" type="line"/>
      <point x="132.0" y="278.0" type="line" smooth="yes"/>
      <point x="132.0" y="163.0"/>
      <point x="263.0" y="16.0"/>
      <point x="368.0" y="16.0" type="qcurve" smooth="yes"/>
      <point x="476.0" y="16.0"/>
      <point x="612.0" y="163.0"/>
      <point x="612.0" y="278.0" type="qcurve"/>
      <point x="612.0" y="700.0" type="line"/>
      <point x="634.0" y="700.0" type="line"/>
      <point x="634.0" y="269.0" type="line" smooth="yes"/>
      <point x="634.0" y="165.0"/>
      <point x="520.0" y="19.0"/>
      <point x="423.0" y="0.0" type="qcurve" smooth="yes"/>
      <point x="371.0" y="-11.0"/>
      <point x="291.0" y="-77.0"/>
      <point x="291.0" y="-130.0" type="qcurve" smooth="yes"/>
      <point x="291.0" y="-163.0"/>
      <point x="336.0" y="-208.0"/>
      <point x="369.0" y="-208.0" type="qcurve" smooth="yes"/>
      <point x="395.0" y="-208.0"/>
      <point x="433.0" y="-183.0"/>
      <point x="444.0" y="-163.0" type="qcurve"/>
      <point x="459.0" y="-176.0" type="line"/>
      <point x="447.0" y="-200.0"/>
      <point x="399.0" y="-230.0"/>
      <point x="369.0" y="-230.0" type="qcurve" smooth="yes"/>
      <point x="327.0" y="-230.0"/>
      <point x="269.0" y="-172.0"/>
      <point x="269.0" y="-130.0" type="qcurve" smooth="yes"/>
      <point x="269.0" y="-89.0"/>
      <point x="319.0" y="-23.0"/>
      <point x="381.0" y="8.0" type="qcurve"/>
      <point x="391.0" y="2.0" type="line"/>
      <point x="389.0" y="-1.0"/>
      <point x="382.33333333333337" y="-4.0"/>
    </contour>
  </outline>
</glyph>
<glyph name="Schwa" format="2">
  <advance width="795"/>
  <unicode hex="018F"/>
  <outline>
    <contour>
      <point x="740.0" y="344.0" type="qcurve" smooth="yes"/>
      <point x="740.0" y="189.0"/>
      <point x="542.0" y="-10.0"/>
      <point x="395.0" y="-10.0" type="qcurve" smooth="yes"/>
      <point x="245.0" y="-10.0"/>
      <point x="52.0" y="199.0"/>
      <point x="55.0" y="353.0" type="qcurve"/>
      <point x="55.0" y="365.0" type="line"/>
      <point x="728.0" y="365.0" type="line"/>
      <point x="728.0" y="343.0" type="line"/>
      <point x="77.0" y="343.0" type="line"/>
      <point x="77.0" y="206.0"/>
      <point x="251.0" y="12.0"/>
      <point x="396.0" y="12.0" type="qcurve" smooth="yes"/>
      <point x="533.0" y="12.0"/>
      <point x="717.0" y="202.0"/>
      <point x="717.0" y="348.0" type="qcurve" smooth="yes"/>
      <point x="717.0" y="494.0"/>
      <point x="518.0" y="688.0"/>
      <point x="370.0" y="688.0" type="qcurve" smooth="yes"/>
      <point x="305.0" y="688.0"/>
      <point x="186.0" y="634.0"/>
      <point x="143.0" y="593.0" type="qcurve"/>
      <point x="128.0" y="609.0" type="line"/>
      <point x="172.0" y="653.0"/>
      <point x="304.0" y="710.0"/>
      <point x="372.0" y="710.0" type="qcurve" smooth="yes"/>
      <point x="529.0" y="710.0"/>
      <point x="740.0" y="501.0"/>
    </contour>
  </outline>
</glyph>
<glyph name="florin" format="2">
  <advance width="519"/>
  <unicode hex="0192"/>
  <note>
florin
</note>
  <outline>
    <contour>
      <point x="96.0" y="-30.0" type="qcurve" smooth="yes"/>
      <point x="70.0" y="-30.0"/>
      <point x="23.0" y="-12.0"/>
      <point x="4.0" y="2.0" type="qcurve"/>
      <point x="14.0" y="22.0" type="line"/>
      <point x="40.0" y="4.0"/>
      <point x="75.58024691358025" y="-8.0"/>
      <point x="100.0" y="-8.0" type="qcurve" smooth="yes"/>
      <point x="146.0" y="-8.0"/>
      <point x="187.07070893955398" y="61.00052851877176"/>
      <point x="194.0" y="100.0" type="qcurve"/>
      <point x="272.0" y="539.0" type="line" smooth="yes"/>
      <point x="286.0" y="616.0"/>
      <point x="349.0" y="693.0"/>
      <point x="407.0" y="693.0" type="qcurve" smooth="yes"/>
      <point x="438.0" y="693.0"/>
      <point x="491.0" y="675.0"/>
      <point x="516.0" y="658.0" type="qcurve"/>
      <point x="505.0" y="638.0" type="line"/>
      <point x="480.0" y="655.0"/>
      <point x="430.0" y="671.0"/>
      <point x="402.0" y="671.0" type="qcurve" smooth="yes"/>
      <point x="359.0" y="671.0"/>
      <point x="306.0" y="601.0"/>
      <point x="293.0" y="528.0" type="qcurve"/>
      <point x="221.0" y="120.0" type="line" smooth="yes"/>
      <point x="207.60349728250372" y="44.08648460085439"/>
      <point x="148.16535433070865" y="-30.0"/>
    </contour>
    <contour>
      <point x="449.0" y="422.0" type="line"/>
      <point x="80.0" y="422.0" type="line"/>
      <point x="80.0" y="444.0" type="line"/>
      <point x="449.0" y="444.0" type="line"/>
    </contour>
  </outline>
</glyph>
<glyph name="Nhookleft" format="2">
  <advance width="730"/>
  <unicode hex="019D"/>
  <outline>
    <contour>
      <point x="132.0" y="470.0" type="qcurve"/>
      <point x="132.0" y="-60.0" type="line" smooth="yes"/>
      <point x="132.0" y="-125.0"/>
      <point x="66.0" y="-194.0"/>
      <point x="6.0" y="-194.0" type="qcurve"/>
      <point x="-2.0" y="-173.0" type="line"/>
      <point x="60.0" y="-173.0"/>
      <point x="110.0" y="-108.0"/>
      <point x="110.0" y="-56.0" type="qcurve"/>
      <point x="110.0" y="700.0" type="line"/>
      <point x="132.0" y="700.0" type="line"/>
      <point x="605.0" y="31.0" type="line"/>
      <point x="601.0" y="31.0" type="line"/>
      <point x="601.0" y="75.0"/>
      <point x="599.0" y="177.0"/>
      <point x="598.0" y="241.0" type="qcurve"/>
      <point x="598.0" y="700.0" type="line"/>
      <point x="620.0" y="700.0" type="line"/>
      <point x="620.0" y="0.0" type="line"/>
      <point x="600.0" y="0.0" type="line"/>
      <point x="115.0" y="686.0" type="line"/>
      <point x="130.0" y="686.0" type="line"/>
      <point x="131.0" y="672.0"/>
      <point x="132.0" y="611.0"/>
      <point x="132.0" y="575.0" type="qcurve" smooth="yes"/>
      <point x="132.0" y="549.0"/>
      <point x="132.0" y="494.0"/>
    </contour>
  </outline>
</glyph>
<glyph name="oogonek" format="2">
  <advance width="615"/>
  <unicode hex="01EB"/>
  <outline>
    <contour>
      <point x="62.0" y="263.0" type="qcurve"/>
      <point x="62.0" y="153.0"/>
      <point x="201.0" y="12.0"/>
      <point x="308.0" y="12.0" type="qcurve"/>
      <point x="414.0" y="12.0"/>
      <point x="553.0" y="153.0"/>
      <point x="553.0" y="263.0" type="qcurve"/>
      <point x="553.0" y="369.0"/>
      <point x="414.0" y="508.0"/>
      <point x="308.0" y="508.0" type="qcurve"/>
      <point x="201.0" y="508.0"/>
      <point x="62.0" y="369.0"/>
    </contour>
    <contour>
      <point x="307.0" y="-9.0" type="qcurve"/>
      <point x="190.0" y="-9.0"/>
      <point x="40.0" y="140.09629629629632"/>
      <point x="40.0" y="263.0" type="qcurve"/>
      <point x="40.0" y="380.0"/>
      <point x="190.0" y="530.0"/>
      <point x="308.0" y="530.0" type="qcurve"/>
      <point x="427.0" y="530.0"/>
      <point x="575.0" y="380.0"/>
      <point x="575.0" y="263.0" type="qcurve"/>
      <point x="575.0" y="144.66030534351142"/>
      <point x="437.0" y="9.0"/>
      <point x="371.0" y="-2.0" type="qcurve"/>
      <point x="325.0" y="-10.0"/>
      <point x="265.0" y="-87.0"/>
      <point x="265.0" y="-130.0" type="qcurve"/>
      <point x="265.0" y="-163.0"/>
      <point x="307.0" y="-208.0"/>
      <point x="338.0" y="-208.0" type="qcurve"/>
      <point x="362.0" y="-208.0"/>
      <point x="397.0" y="-183.0"/>
      <point x="408.0" y="-163.0" type="qcurve"/>
      <point x="423.0" y="-176.0" type="line"/>
      <point x="411.0" y="-200.0"/>
      <point x="366.0" y="-230.0"/>
      <point x="338.0" y="-230.0" type="qcurve"/>
      <point x="296.0" y="-230.0"/>
      <point x="243.0" y="-173.0"/>
      <point x="243.0" y="-130.0" type="qcurve"/>
      <point x="243.0" y="-91.0"/>
      <point x="281.0" y="-29.0"/>
      <point x="326.0" y="5.0" type="qcurve"/>
      <point x="323.0" y="-7.0" type="line"/>
      <point x="319.0" y="-7.0"/>
      <point x="311.0" y="-9.0"/>
    </contour>
  </outline>
</glyph>
<glyph name="jdotless" format="2">
  <advance width="226"/>
  <unicode hex="0237"/>
  <note>
dotlessj
</note>
  <outline>
    <contour>
      <point x="150.0" y="525.0" type="line"/>
      <point x="150.0" y="-60.0" type="line" smooth="yes"/>
      <point x="150.0" y="-125.0"/>
      <point x="84.0" y="-194.0"/>
      <point x="24.0" y="-194.0" type="qcurve"/>
      <point x="16.0" y="-173.0" type="line"/>
      <point x="78.0" y="-173.0"/>
      <point x="128.0" y="-107.5593220338983"/>
      <point x="128.0" y="-56.0" type="qcurve"/>
      <point x="128.0" y="525.0" type="line"/>
    </contour>
  </outline>
</glyph>
<glyph name="nhookleft" format="2">
  <advance width="541"/>
  <unicode hex="0272"/>
  <outline>
    <contour>
      <point x="288.0" y="530.0" type="qcurve"/>
      <point x="376.0" y="530.0"/>
      <point x="473.0" y="434.0"/>
      <point x="473.0" y="328.0" type="qcurve"/>
      <point x="473.0" y="0.0" type="line"/>
      <point x="451.0" y="0.0" type="line"/>
      <point x="451.0" y="328.0" type="line"/>
      <point x="451.0" y="423.0"/>
      <point x="365.0" y="508.0"/>
      <point x="286.0" y="508.0" type="qcurve"/>
      <point x="201.0" y="508.0"/>
      <point x="92.0" y="407.0"/>
      <point x="92.0" y="376.0" type="qcurve"/>
      <point x="92.0" y="0.0" type="line"/>
      <point x="84.0" y="0.0"/>
      <point x="77.0" y="0.0"/>
      <point x="70.0" y="0.0" type="qcurve"/>
      <point x="70.0" y="525.0" type="line"/>
      <point x="90.0" y="525.0" type="line"/>
      <point x="92.0" y="404.0" type="line"/>
      <point x="83.0" y="401.0" type="line"/>
      <point x="99.0" y="453.0"/>
      <point x="215.0" y="530.0"/>
    </contour>
    <contour>
      <point x="70.0" y="5.0" type="line"/>
      <point x="92.0" y="10.0" type="line"/>
      <point x="92.0" y="-60.0" type="line" smooth="yes"/>
      <point x="92.0" y="-125.0"/>
      <point x="26.0" y="-194.0"/>
      <point x="-34.0" y="-194.0" type="qcurve"/>
      <point x="-42.0" y="-173.0" type="line"/>
      <point x="20.0" y="-173.0"/>
      <point x="70.0" y="-108.0"/>
      <point x="70.0" y="-56.0" type="qcurve"/>
    </contour>
  </outline>
</glyph>
<glyph name="ringhalfright" format="2">
  <advance width="212"/>
  <unicode hex="02BE"/>
  <outline>
    <contour>
      <point x="52.0" y="543.0" type="qcurve"/>
      <point x="52.0" y="565.0" type="line"/>
      <point x="85.0" y="565.0"/>
      <point x="133.0" y="610.0"/>
      <point x="133.0" y="641.0" type="qcurve"/>
      <point x="133.0" y="676.0"/>
      <point x="85.0" y="719.0"/>
      <point x="52.0" y="719.0" type="qcurve"/>
      <point x="52.0" y="740.0" type="line"/>
      <point x="93.0" y="740.0"/>
      <point x="155.0" y="681.0"/>
      <point x="155.0" y="641.0" type="qcurve"/>
      <point x="155.0" y="602.0"/>
      <point x="93.0" y="543.0"/>
    </contour>
  </outline>
</glyph>
<glyph name="ringhalfleft" format="2">
  <advance width="254"/>
  <unicode hex="02BF"/>
  <outline>
    <contour>
      <point x="170.0" y="565.0" type="qcurve"/>
      <point x="170.0" y="543.0" type="line"/>
      <point x="129.0" y="543.0"/>
      <point x="67.0" y="602.0"/>
      <point x="67.0" y="641.0" type="qcurve"/>
      <point x="67.0" y="681.0"/>
      <point x="129.0" y="740.0"/>
      <point x="170.0" y="740.0" type="qcurve"/>
      <point x="170.0" y="719.0" type="line"/>
      <point x="137.0" y="719.0"/>
      <point x="89.0" y="676.0"/>
      <point x="89.0" y="641.0" type="qcurve"/>
      <point x="89.0" y="610.0"/>
      <point x="137.0" y="565.0"/>
    </contour>
  </outline>
</glyph>
<glyph name="circumflex" format="2">
  <advance width="362"/>
  <unicode hex="02C6"/>
  <outline>
    <contour>
      <point x="290.0" y="625.0" type="line"/>
      <point x="174.0" y="717.0" type="line"/>
      <point x="189.0" y="717.0" type="line"/>
      <point x="72.0" y="625.0" type="line"/>
      <point x="60.0" y="638.0" type="line"/>
      <point x="167.0" y="730.0" type="line"/>
      <point x="195.0" y="730.0" type="line"/>
      <point x="302.0" y="638.0" type="line"/>
    </contour>
  </outline>
</glyph>
<glyph name="caron" format="2">
  <advance width="362"/>
  <unicode hex="02C7"/>
  <outline>
    <contour>
      <point x="189.0" y="649.0" type="line"/>
      <point x="174.0" y="649.0" type="line"/>
      <point x="290.0" y="741.0" type="line"/>
      <point x="302.0" y="728.0" type="line"/>
      <point x="195.0" y="636.0" type="line"/>
      <point x="167.0" y="636.0" type="line"/>
      <point x="60.0" y="728.0" type="line"/>
      <point x="72.0" y="741.0" type="line"/>
    </contour>
  </outline>
</glyph>
<glyph name="firsttonechinese" format="2">
  <advance width="424"/>
  <unicode hex="02C9"/>
  <outline>
    <contour>
      <point x="347.0" y="629.0" type="line"/>
      <point x="77.0" y="629.0" type="line"/>
      <point x="77.0" y="651.0" type="line"/>
      <point x="347.0" y="651.0" type="line"/>
    </contour>
  </outline>
</glyph>
<glyph name="breve" format="2">
  <advance width="344"/>
  <unicode hex="02D8"/>
  <outline>
    <contour>
      <point x="172.0" y="615.0" type="qcurve" smooth="yes"/>
      <point x="121.0" y="615.0"/>
      <point x="52.0" y="679.0"/>
      <point x="40.0" y="735.0" type="qcurve"/>
      <point x="62.0" y="737.0" type="line"/>
      <point x="72.0" y="689.0"/>
      <point x="132.0" y="636.0"/>
      <point x="172.0" y="636.0" type="qcurve" smooth="yes"/>
      <point x="211.0" y="636.0"/>
      <point x="273.0" y="689.0"/>
      <point x="282.0" y="737.0" type="qcurve"/>
      <point x="304.0" y="735.0" type="line"/>
      <point x="293.0" y="679.0"/>
      <point x="222.0" y="615.0"/>
    </contour>
  </outline>
</glyph>
<glyph name="ogonek" format="2">
  <advance width="295"/>
  <unicode hex="02DB"/>
  <outline>
    <contour>
      <point x="151.0" y="-230.0" type="qcurve" smooth="yes"/>
      <point x="109.0" y="-230.0"/>
      <point x="56.0" y="-173.0"/>
      <point x="56.0" y="-130.0" type="qcurve" smooth="yes"/>
      <point x="56.0" y="-70.0"/>
      <point x="148.84921766539534" y="8.31342672294836"/>
      <point x="206.0" y="18.0" type="qcurve"/>
      <point x="211.0" y="8.0" type="line"/>
      <point x="211.0" y="0.0" type="line"/>
      <point x="155.0396776844515" y="-9.648331433715256"/>
      <point x="78.0" y="-77.0"/>
      <point x="78.0" y="-130.0" type="qcurve" smooth="yes"/>
      <point x="78.0" y="-163.0"/>
      <point x="120.0" y="-208.0"/>
      <point x="151.0" y="-208.0" type="qcurve" smooth="yes"/>
      <point x="175.0" y="-208.0"/>
      <point x="210.0" y="-183.0"/>
      <point x="221.0" y="-163.0" type="qcurve"/>
      <point x="236.0" y="-176.0" type="line"/>
      <point x="224.0" y="-200.0"/>
      <point x="179.0" y="-230.0"/>
    </contour>
  </outline>
</glyph>
<glyph name="tildecomb" format="2">
  <advance width="332"/>
  <unicode hex="0303"/>
  <outline>
    <contour>
      <point x="60.0" y="647.0" type="qcurve"/>
      <point x="40.0" y="650.0" type="line"/>
      <point x="40.0" y="680.0"/>
      <point x="78.0" y="722.0"/>
      <point x="102.0" y="722.0" type="qcurve" smooth="yes"/>
      <point x="123.0" y="722.0"/>
      <point x="161.0" y="699.0"/>
      <point x="179.0" y="686.0" type="qcurve" smooth="yes"/>
      <point x="186.0" y="681.0"/>
      <point x="218.0" y="661.0"/>
      <point x="232.0" y="661.0" type="qcurve"/>
      <point x="247.0" y="661.0"/>
      <point x="271.0" y="686.0"/>
      <point x="272.0" y="716.0" type="qcurve"/>
      <point x="292.0" y="713.0" type="line"/>
      <point x="292.0" y="680.0"/>
      <point x="255.0" y="641.0"/>
      <point x="233.0" y="641.0" type="qcurve"/>
      <point x="210.0" y="641.0"/>
      <point x="172.0" y="665.0"/>
      <point x="155.0" y="677.0" type="qcurve" smooth="yes"/>
      <point x="147.0" y="682.0"/>
      <point x="118.0" y="702.0"/>
      <point x="102.0" y="702.0" type="qcurve" smooth="yes"/>
      <point x="87.0" y="702.0"/>
      <point x="60.0" y="673.0"/>
    </contour>
  </outline>
</glyph>
<glyph name="dotaccentcomb" format="2">
  <unicode hex="0307"/>
  <outline>
    <contour>
      <point x="144.0" y="684.0" type="qcurve" smooth="yes"/>
      <point x="144.0" y="671.0"/>
      <point x="130.0" y="655.0"/>
      <point x="116.0" y="655.0" type="qcurve" smooth="yes"/>
      <point x="102.0" y="655.0"/>
      <point x="88.0" y="671.0"/>
      <point x="88.0" y="684.0" type="qcurve" smooth="yes"/>
      <point x="88.0" y="696.0"/>
      <point x="102.0" y="713.0"/>
      <point x="116.0" y="713.0" type="qcurve" smooth="yes"/>
      <point x="129.0" y="713.0"/>
      <point x="144.0" y="697.0"/>
    </contour>
  </outline>
</glyph>
<glyph name="ringcomb" format="2">
  <advance width="264"/>
  <unicode hex="030A"/>
  <outline>
    <contour>
      <point x="224.0" y="676.0" type="qcurve"/>
      <point x="224.0" y="641.0"/>
      <point x="169.0" y="588.0"/>
      <point x="132.0" y="588.0" type="qcurve"/>
      <point x="95.0" y="588.0"/>
      <point x="40.0" y="640.0"/>
      <point x="40.0" y="676.0" type="qcurve"/>
      <point x="40.0" y="713.0"/>
      <point x="94.0" y="766.0"/>
      <point x="132.0" y="766.0" type="qcurve"/>
      <point x="170.0" y="766.0"/>
      <point x="224.0" y="713.0"/>
    </contour>
    <contour>
      <point x="61.0" y="676.0" type="qcurve"/>
      <point x="61.0" y="649.0"/>
      <point x="103.0" y="608.0"/>
      <point x="132.0" y="608.0" type="qcurve"/>
      <point x="162.0" y="608.0"/>
      <point x="203.0" y="649.0"/>
      <point x="203.0" y="676.0" type="qcurve"/>
      <point x="203.0" y="708.0"/>
      <point x="162.0" y="746.0"/>
      <point x="132.0" y="746.0" type="qcurve"/>
      <point x="101.0" y="746.0"/>
      <point x="61.0" y="707.0"/>
    </contour>
  </outline>
</glyph>
<glyph name="hungarumlautcomb" format="2">
  <advance width="412"/>
  <unicode hex="030B"/>
  <outline>
    <contour>
      <point x="211.0" y="677.0" type="line"/>
      <point x="67.0" y="573.0" type="line"/>
      <point x="57.0" y="588.0" type="line"/>
      <point x="197.0" y="698.0" type="line"/>
    </contour>
    <contour>
      <point x="331.0" y="677.0" type="line"/>
      <point x="187.0" y="573.0" type="line"/>
      <point x="177.0" y="588.0" type="line"/>
      <point x="317.0" y="698.0" type="line"/>
    </contour>
  </outline>
</glyph>
<glyph name="caroncomb" format="2">
  <advance width="362"/>
  <unicode hex="030C"/>
  <outline>
    <contour>
      <point x="189.0" y="649.0" type="line"/>
      <point x="174.0" y="649.0" type="line"/>
      <point x="290.0" y="741.0" type="line"/>
      <point x="302.0" y="728.0" type="line"/>
      <point x="195.0" y="636.0" type="line"/>
      <point x="167.0" y="636.0" type="line"/>
      <point x="60.0" y="728.0" type="line"/>
      <point x="72.0" y="741.0" type="line"/>
    </contour>
  </outline>
</glyph>
<glyph name="horncomb" format="2">
  <unicode hex="031B"/>
  <outline>
    <contour>
      <point x="-37.0" y="504.0" type="qcurve"/>
      <point x="-37.0" y="525.0" type="line"/>
      <point x="12.0" y="525.0"/>
      <point x="59.0" y="574.0"/>
      <point x="59.0" y="624.0" type="qcurve"/>
      <point x="81.0" y="624.0" type="line"/>
      <point x="81.0" y="568.5378151260504"/>
      <point x="19.0" y="504.0"/>
    </contour>
  </outline>
</glyph>
<glyph name="dotbelowcomb" format="2">
  <unicode hex="0323"/>
  <outline>
    <contour>
      <point x="135.0" y="-105.0" type="qcurve" smooth="yes"/>
      <point x="135.0" y="-118.0"/>
      <point x="121.0" y="-134.0"/>
      <point x="107.0" y="-134.0" type="qcurve" smooth="yes"/>
      <point x="93.0" y="-134.0"/>
      <point x="79.0" y="-118.0"/>
      <point x="79.0" y="-105.0" type="qcurve" smooth="yes"/>
      <point x="79.0" y="-93.0"/>
      <point x="93.0" y="-76.0"/>
      <point x="107.0" y="-76.0" type="qcurve" smooth="yes"/>
      <point x="120.0" y="-76.0"/>
      <point x="135.0" y="-92.0"/>
    </contour>
  </outline>
</glyph>
<glyph name="commaaccentcomb" format="2">
  <unicode hex="0326"/>
  <outline>
    <contour>
      <point x="87.0" y="-152.0" type="qcurve"/>
      <point x="74.0" y="-139.0" type="line"/>
      <point x="96.0" y="-120.0"/>
      <point x="108.0" y="-101.0"/>
      <point x="108.0" y="-92.0" type="qcurve" smooth="yes"/>
      <point x="108.0" y="-84.0"/>
      <point x="102.0" y="-74.0"/>
      <point x="91.0" y="-69.0" type="qcurve" smooth="yes"/>
      <point x="81.0" y="-64.0"/>
      <point x="71.0" y="-50.0"/>
      <point x="71.0" y="-40.0" type="qcurve"/>
      <point x="71.0" y="-31.0"/>
      <point x="85.0" y="-16.0"/>
      <point x="98.0" y="-16.0" type="qcurve"/>
      <point x="115.0" y="-16.0"/>
      <point x="134.0" y="-41.0"/>
      <point x="134.0" y="-62.0" type="qcurve" smooth="yes"/>
      <point x="134.0" y="-88.0"/>
      <point x="116.0" y="-129.0"/>
    </contour>
  </outline>
</glyph>
<glyph name="pi" format="2">
  <advance width="614"/>
  <unicode hex="03C0"/>
  <note>
pi
</note>
  <outline>
    <contour>
      <point x="136.0" y="0.0" type="line"/>
      <point x="114.0" y="0.0" type="line"/>
      <point x="114.0" y="502.0" type="line"/>
      <point x="123.0" y="495.0" type="line"/>
      <point x="40.0" y="495.0" type="line"/>
      <point x="40.0" y="517.0" type="line"/>
      <point x="574.0" y="517.0" type="line"/>
      <point x="574.0" y="495.0" type="line"/>
      <point x="493.0" y="495.0" type="line"/>
      <point x="500.0" y="502.0" type="line"/>
      <point x="500.0" y="0.0" type="line"/>
      <point x="478.0" y="0.0" type="line"/>
      <point x="478.0" y="502.0" type="line"/>
      <point x="484.0" y="495.0" type="line"/>
      <point x="127.0" y="495.0" type="line"/>
      <point x="136.0" y="502.0" type="line"/>
    </contour>
  </outline>
</glyph>
<glyph name="Germandbls" format="2">
  <advance width="725"/>
  <unicode hex="1E9E"/>
  <outline>
    <contour>
      <point x="602.0" y="609.0" type="line"/>
      <point x="502.0" y="596.0"/>
      <point x="390.0" y="532.0"/>
      <point x="390.0" y="486.0" type="qcurve" smooth="yes"/>
      <point x="390.0" y="453.0"/>
      <point x="438.0" y="408.0"/>
      <point x="489.0" y="384.0" type="qcurve" smooth="yes"/>
      <point x="512.0" y="373.0"/>
      <point x="561.0" y="349.0"/>
      <point x="577.0" y="340.0" type="qcurve" smooth="yes"/>
      <point x="632.0" y="309.0"/>
      <point x="663.0" y="230.0"/>
      <point x="663.0" y="188.0" type="qcurve" smooth="yes"/>
      <point x="663.0" y="90.0"/>
      <point x="539.0" y="-10.0"/>
      <point x="436.0" y="-10.0" type="qcurve" smooth="yes"/>
      <point x="378.0" y="-10.0"/>
      <point x="272.0" y="38.0"/>
      <point x="241.0" y="78.0" type="qcurve"/>
      <point x="258.0" y="93.0" type="line"/>
      <point x="294.0" y="52.0"/>
      <point x="388.0" y="12.0"/>
      <point x="437.0" y="12.0" type="qcurve" smooth="yes"/>
      <point x="530.0" y="12.0"/>
      <point x="640.0" y="103.0"/>
      <point x="640.0" y="183.0" type="qcurve" smooth="yes"/>
      <point x="640.0" y="235.0"/>
      <point x="599.0" y="305.0"/>
      <point x="557.0" y="326.0" type="qcurve" smooth="yes"/>
      <point x="533.0" y="338.0"/>
      <point x="480.0" y="364.0"/>
      <point x="450.0" y="378.0" type="qcurve" smooth="yes"/>
      <point x="405.0" y="400.0"/>
      <point x="368.0" y="450.0"/>
      <point x="368.0" y="485.0" type="qcurve" smooth="yes"/>
      <point x="368.0" y="544.0"/>
      <point x="490.99985120875766" y="612.9999812053167"/>
      <point x="586.0" y="625.0" type="qcurve"/>
      <point x="586.0" y="620.0" type="line"/>
      <point x="552.9161837011902" y="645.5218011447961"/>
      <point x="451.00000000000006" y="688.0"/>
      <point x="381.0" y="688.0" type="qcurve"/>
      <point x="246.34351145038167" y="688.0"/>
      <point x="129.0" y="553.0"/>
      <point x="129.0" y="391.0" type="qcurve"/>
      <point x="129.0" y="0.0" type="line"/>
      <point x="106.0" y="0.0" type="line"/>
      <point x="106.0" y="402.0" type="line" smooth="yes"/>
      <point x="106.0" y="557.0"/>
      <point x="232.41958041958043" y="710.0"/>
      <point x="382.0" y="710.0" type="qcurve" smooth="yes"/>
      <point x="455.0" y="710.0"/>
      <point x="561.86736831168" y="667.3660527272799"/>
      <point x="600.0" y="634.0" type="qcurve"/>
    </contour>
  </outline>
</glyph>
<glyph name="quoteleft" format="2">
  <advance width="236"/>
  <unicode hex="2018"/>
  <note>
quoteleft
</note>
  <outline>
    <contour>
      <point x="126.0" y="512.0" type="qcurve"/>
      <point x="104.0" y="512.0"/>
      <point x="80.0" y="543.0"/>
      <point x="80.0" y="573.0" type="qcurve" smooth="yes"/>
      <point x="80.0" y="601.0"/>
      <point x="102.0" y="652.0"/>
      <point x="144.0" y="688.0" type="qcurve"/>
      <point x="153.0" y="676.0" type="line"/>
      <point x="134.0" y="655.0"/>
      <point x="108.0" y="615.0"/>
      <point x="108.0" y="602.0" type="qcurve" smooth="yes"/>
      <point x="108.0" y="586.0"/>
      <point x="123.0" y="574.0"/>
      <point x="137.0" y="569.0" type="qcurve" smooth="yes"/>
      <point x="145.0" y="566.0"/>
      <point x="156.0" y="551.0"/>
      <point x="156.0" y="540.0" type="qcurve"/>
      <point x="156.0" y="528.0"/>
      <point x="141.0" y="512.0"/>
    </contour>
  </outline>
</glyph>
<glyph name="dagger" format="2">
  <advance width="438"/>
  <unicode hex="2020"/>
  <note>
dagger
</note>
  <outline>
    <contour>
      <point x="208.0" y="216.0" type="line"/>
      <point x="208.0" y="721.0" type="line"/>
      <point x="230.0" y="721.0" type="line"/>
      <point x="230.0" y="216.0" type="line"/>
    </contour>
    <contour>
      <point x="378.0" y="556.0" type="line"/>
      <point x="60.0" y="556.0" type="line"/>
      <point x="60.0" y="578.0" type="line"/>
      <point x="378.0" y="578.0" type="line"/>
    </contour>
  </outline>
</glyph>
<glyph name="daggerdbl" format="2">
  <advance width="432"/>
  <unicode hex="2021"/>
  <note>
daggerdbl
</note>
  <outline>
    <contour>
      <point x="205.0" y="197.0" type="line"/>
      <point x="205.0" y="720.0" type="line"/>
      <point x="227.0" y="720.0" type="line"/>
      <point x="227.0" y="197.0" type="line"/>
    </contour>
    <contour>
      <point x="372.0" y="552.0" type="line"/>
      <point x="60.0" y="552.0" type="line"/>
      <point x="60.0" y="574.0" type="line"/>
      <point x="372.0" y="574.0" type="line"/>
    </contour>
    <contour>
      <point x="372.0" y="393.0" type="line"/>
      <point x="60.0" y="393.0" type="line"/>
      <point x="60.0" y="415.0" type="line"/>
      <point x="372.0" y="415.0" type="line"/>
    </contour>
  </outline>
</glyph>
<glyph name="bullet" format="2">
  <advance width="347"/>
  <unicode hex="2022"/>
  <note>
bullet
</note>
  <outline>
    <contour>
      <point x="245.0" y="344.0" type="qcurve" smooth="yes"/>
      <point x="245.0" y="315.0"/>
      <point x="202.0" y="274.0"/>
      <point x="172.0" y="274.0" type="qcurve" smooth="yes"/>
      <point x="145.0" y="274.0"/>
      <point x="102.0" y="315.0"/>
      <point x="102.0" y="344.0" type="qcurve" smooth="yes"/>
      <point x="102.0" y="373.0"/>
      <point x="144.0" y="415.0"/>
      <point x="172.0" y="415.0" type="qcurve" smooth="yes"/>
      <point x="202.0" y="415.0"/>
      <point x="245.0" y="373.0"/>
    </contour>
  </outline>
</glyph>
<glyph name="perthousand" format="2">
  <advance width="1199"/>
  <unicode hex="2030"/>
  <note>
perthousand
</note>
  <outline>
    <contour>
      <point x="350.0" y="518.0" type="qcurve"/>
      <point x="350.0" y="438.0"/>
      <point x="262.0" y="329.0"/>
      <point x="196.0" y="329.0" type="qcurve"/>
      <point x="128.0" y="329.0"/>
      <point x="43.0" y="436.0"/>
      <point x="43.0" y="518.0" type="qcurve"/>
      <point x="43.0" y="601.0"/>
      <point x="128.0" y="709.0"/>
      <point x="196.0" y="709.0" type="qcurve"/>
      <point x="263.0" y="709.0"/>
      <point x="350.0" y="601.0"/>
    </contour>
    <contour>
      <point x="65.0" y="518.0" type="qcurve"/>
      <point x="65.0" y="443.0"/>
      <point x="139.0" y="350.0"/>
      <point x="196.0" y="350.0" type="qcurve"/>
      <point x="252.0" y="350.0"/>
      <point x="328.0" y="443.0"/>
      <point x="328.0" y="518.0" type="qcurve"/>
      <point x="328.0" y="594.0"/>
      <point x="254.0" y="688.0"/>
      <point x="196.0" y="688.0" type="qcurve"/>
      <point x="139.0" y="688.0"/>
      <point x="65.0" y="593.0"/>
    </contour>
    <contour>
      <point x="794.0" y="180.0" type="qcurve"/>
      <point x="794.0" y="100.0"/>
      <point x="706.0" y="-9.0"/>
      <point x="640.0" y="-9.0" type="qcurve"/>
      <point x="572.0" y="-9.0"/>
      <point x="487.0" y="98.0"/>
      <point x="487.0" y="180.0" type="qcurve"/>
      <point x="487.0" y="263.0"/>
      <point x="572.0" y="371.0"/>
      <point x="640.0" y="371.0" type="qcurve"/>
      <point x="707.0" y="371.0"/>
      <point x="794.0" y="263.0"/>
    </contour>
    <contour>
      <point x="509.0" y="180.0" type="qcurve"/>
      <point x="509.0" y="105.0"/>
      <point x="583.0" y="12.0"/>
      <point x="640.0" y="12.0" type="qcurve"/>
      <point x="696.0" y="12.0"/>
      <point x="772.0" y="105.0"/>
      <point x="772.0" y="180.0" type="qcurve"/>
      <point x="772.0" y="256.0"/>
      <point x="698.0" y="350.0"/>
      <point x="640.0" y="350.0" type="qcurve"/>
      <point x="583.0" y="350.0"/>
      <point x="509.0" y="255.0"/>
    </contour>
    <contour>
      <point x="1149.0" y="175.0" type="qcurve"/>
      <point x="1149.0" y="96.0"/>
      <point x="1064.0" y="-9.0"/>
      <point x="998.0" y="-9.0" type="qcurve"/>
      <point x="931.0" y="-9.0"/>
      <point x="845.0" y="96.0"/>
      <point x="845.0" y="175.0" type="qcurve"/>
      <point x="845.0" y="256.0"/>
      <point x="930.0" y="360.0"/>
      <point x="998.0" y="360.0" type="qcurve"/>
      <point x="1065.0" y="360.0"/>
      <point x="1149.0" y="256.0"/>
    </contour>
    <contour>
      <point x="868.0" y="175.0" type="qcurve"/>
      <point x="868.0" y="102.0"/>
      <point x="940.0" y="13.0"/>
      <point x="998.0" y="13.0" type="qcurve"/>
      <point x="1055.0" y="13.0"/>
      <point x="1126.0" y="104.0"/>
      <point x="1126.0" y="175.0" type="qcurve"/>
      <point x="1126.0" y="248.0"/>
      <point x="1057.0" y="338.0"/>
      <point x="998.0" y="338.0" type="qcurve"/>
      <point x="939.0" y="338.0"/>
      <point x="868.0" y="249.0"/>
    </contour>
    <contour>
      <point x="202.0" y="0.0" type="line"/>
      <point x="175.0" y="0.0" type="line"/>
      <point x="423.0" y="379.0" type="line"/>
      <point x="640.0" y="700.0" type="line"/>
      <point x="667.0" y="700.0" type="line"/>
      <point x="420.0" y="333.0" type="line"/>
    </contour>
  </outline>
</glyph>
<glyph name="guilsinglleft" format="2">
  <advance width="268"/>
  <unicode hex="2039"/>
  <note>
guilsinglleft
</note>
  <outline>
    <contour>
      <point x="57.0" y="261.0" type="line"/>
      <point x="57.0" y="281.0" type="line"/>
      <point x="228.0" y="86.0" type="line"/>
      <point x="209.0" y="73.0" type="line"/>
      <point x="40.0" y="268.0" type="line"/>
      <point x="40.0" y="274.0" type="line"/>
      <point x="209.0" y="457.0" type="line"/>
      <point x="228.0" y="444.0" type="line"/>
    </contour>
  </outline>
</glyph>
<glyph name="fraction" format="2">
  <advance width="606"/>
  <unicode hex="2044"/>
  <note>
fraction
</note>
  <outline>
    <contour>
      <point x="79.0" y="0.0" type="line"/>
      <point x="52.0" y="0.0" type="line"/>
      <point x="311.0" y="388.0" type="line"/>
      <point x="520.0" y="700.0" type="line"/>
      <point x="547.0" y="700.0" type="line"/>
      <point x="331.0" y="377.0" type="line"/>
    </contour>
  </outline>
</glyph>
<glyph name="lira" format="2">
  <advance width="610"/>
  <unicode hex="20A4"/>
  <outline>
    <contour>
      <point x="230.0" y="202.0" type="qcurve"/>
      <point x="230.0" y="161.0"/>
      <point x="199.0" y="75.0"/>
      <point x="157.0" y="47.0" type="qcurve"/>
      <point x="141.0" y="62.0" type="line"/>
      <point x="171.0" y="74.0"/>
      <point x="207.0" y="152.99999999999997"/>
      <point x="207.0" y="201.0" type="qcurve"/>
      <point x="207.0" y="229.0"/>
      <point x="193.0" y="292.0"/>
      <point x="173.0" y="352.0" type="qcurve" smooth="yes"/>
      <point x="153.0" y="414.0"/>
      <point x="144.0" y="475.0"/>
      <point x="144.0" y="502.0" type="qcurve"/>
      <point x="144.0" y="588.0"/>
      <point x="250.0" y="695.0"/>
      <point x="340.0" y="695.0" type="qcurve"/>
      <point x="400.0" y="695.0"/>
      <point x="480.0" y="652.0"/>
      <point x="509.0" y="611.0" type="qcurve"/>
      <point x="491.0" y="597.0" type="line"/>
      <point x="454.0" y="643.0"/>
      <point x="384.0" y="673.0"/>
      <point x="340.0" y="673.0" type="qcurve"/>
      <point x="264.0" y="673.0"/>
      <point x="167.0" y="576.0"/>
      <point x="167.0" y="501.0" type="qcurve"/>
      <point x="167.0" y="477.0"/>
      <point x="179.0" y="416.0"/>
      <point x="200.0" y="353.0" type="qcurve" smooth="yes"/>
      <point x="222.0" y="288.0"/>
      <point x="230.0" y="225.0"/>
    </contour>
    <contour>
      <point x="199.0" y="69.0" type="qcurve"/>
      <point x="223.0" y="69.0"/>
      <point x="280.0" y="56.0"/>
      <point x="334.0" y="39.0" type="qcurve" smooth="yes"/>
      <point x="383.0" y="24.0"/>
      <point x="429.0" y="17.0"/>
      <point x="447.0" y="17.0" type="qcurve"/>
      <point x="471.0" y="17.0"/>
      <point x="522.0" y="33.0"/>
      <point x="548.0" y="49.0" type="qcurve"/>
      <point x="562.0" y="31.0" type="line"/>
      <point x="535.0" y="15.0"/>
      <point x="478.0" y="-5.0"/>
      <point x="447.0" y="-5.0" type="qcurve"/>
      <point x="428.0" y="-5.0"/>
      <point x="372.0" y="3.0"/>
      <point x="313.0" y="20.0" type="qcurve" smooth="yes"/>
      <point x="260.0" y="36.0"/>
      <point x="214.0" y="47.0"/>
      <point x="199.0" y="47.0" type="qcurve"/>
      <point x="171.0" y="47.0"/>
      <point x="106.0" y="28.0"/>
      <point x="73.0" y="13.0" type="qcurve"/>
      <point x="62.0" y="32.0" type="line"/>
      <point x="93.0" y="46.0"/>
      <point x="159.0" y="69.0"/>
    </contour>
    <contour>
      <point x="437.0" y="236.0" type="line"/>
      <point x="59.0" y="236.0" type="line"/>
      <point x="59.0" y="258.0" type="line"/>
      <point x="437.0" y="258.0" type="line"/>
    </contour>
    <contour>
      <point x="437.0" y="353.0" type="line"/>
      <point x="59.0" y="353.0" type="line"/>
      <point x="59.0" y="375.0" type="line"/>
      <point x="437.0" y="375.0" type="line"/>
    </contour>
  </outline>
</glyph>
<glyph name="naira" format="2">
  <advance width="790"/>
  <unicode hex="20A6"/>
  <outline>
    <contour>
      <point x="140.0" y="337.0" type="line"/>
      <point x="40.0" y="337.0" type="line"/>
      <point x="40.0" y="359.0" type="line"/>
      <point x="140.0" y="359.0" type="line"/>
      <point x="162.0" y="359.0" type="line"/>
      <point x="632.0" y="359.0" type="line"/>
      <point x="650.0" y="359.0" type="line"/>
      <point x="750.0" y="359.0" type="line"/>
      <point x="750.0" y="337.0" type="line"/>
      <point x="650.0" y="337.0" type="line"/>
      <point x="632.0" y="337.0" type="line"/>
      <point x="162.0" y="337.0" type="line"/>
    </contour>
    <contour>
      <point x="628.0" y="241.0" type="qcurve"/>
      <point x="628.0" y="700.0" type="line"/>
      <point x="650.0" y="700.0" type="line"/>
      <point x="650.0" y="0.0" type="line"/>
      <point x="630.0" y="0.0" type="line"/>
      <point x="145.0" y="686.0" type="line"/>
      <point x="160.0" y="686.0" type="line"/>
      <point x="161.0" y="661.0"/>
      <point x="163.0" y="525.0"/>
      <point x="162.0" y="470.0" type="qcurve"/>
      <point x="162.0" y="0.0" type="line"/>
      <point x="140.0" y="0.0" type="line"/>
      <point x="140.0" y="700.0" type="line"/>
      <point x="162.0" y="700.0" type="line"/>
      <point x="635.0" y="31.0" type="line"/>
      <point x="631.0" y="31.0" type="line"/>
      <point x="631.0" y="75.0"/>
      <point x="629.0" y="177.0"/>
    </contour>
  </outline>
</glyph>
<glyph name="peseta" format="2">
  <advance width="791"/>
  <unicode hex="20A7"/>
  <outline>
    <contour>
      <point x="728.0" y="496.0" type="line"/>
      <point x="93.0" y="496.0" type="line"/>
      <point x="93.0" y="518.0" type="line"/>
      <point x="728.0" y="518.0" type="line"/>
    </contour>
    <contour>
      <point x="193.0" y="700.0" type="line"/>
      <point x="444.0" y="700.0" type="line" smooth="yes"/>
      <point x="527.0" y="700.0"/>
      <point x="628.0" y="593.0"/>
      <point x="628.0" y="507.0" type="qcurve" smooth="yes"/>
      <point x="628.0" y="411.0"/>
      <point x="527.0" y="291.0"/>
      <point x="444.0" y="291.0" type="qcurve"/>
      <point x="201.0" y="291.0" type="line"/>
      <point x="215.0" y="300.0" type="line"/>
      <point x="215.0" y="0.0" type="line"/>
      <point x="193.0" y="0.0" type="line"/>
    </contour>
    <contour>
      <point x="200.0" y="313.0" type="line"/>
      <point x="450.0" y="313.0" type="line" smooth="yes"/>
      <point x="520.0" y="313.0"/>
      <point x="605.0" y="421.0"/>
      <point x="605.0" y="507.0" type="qcurve" smooth="yes"/>
      <point x="605.0" y="582.0"/>
      <point x="520.0" y="678.0"/>
      <point x="450.0" y="678.0" type="qcurve"/>
      <point x="202.0" y="678.0" type="line"/>
      <point x="215.0" y="690.0" type="line"/>
      <point x="215.0" y="305.0" type="line"/>
    </contour>
  </outline>
</glyph>
<glyph name="won" format="2">
  <advance width="951"/>
  <unicode hex="20A9"/>
  <outline>
    <contour>
      <point x="170.0" y="336.0" type="line"/>
      <point x="42.0" y="336.0" type="line"/>
      <point x="42.0" y="357.0" type="line"/>
      <point x="162.0" y="357.0" type="line"/>
      <point x="182.0" y="357.0" type="line"/>
      <point x="764.0" y="357.0" type="line"/>
      <point x="779.0" y="357.0" type="line"/>
      <point x="899.0" y="357.0" type="line"/>
      <point x="899.0" y="336.0" type="line"/>
      <point x="775.0" y="336.0" type="line"/>
      <point x="758.0" y="336.0" type="line"/>
      <point x="189.0" y="336.0" type="line"/>
    </contour>
    <contour>
      <point x="262.0" y="0.0" type="line"/>
      <point x="66.0" y="700.0" type="line"/>
      <point x="90.0" y="700.0" type="line"/>
      <point x="232.0" y="193.0" type="line" smooth="yes"/>
      <point x="253.0" y="117.0"/>
      <point x="259.0" y="91.0"/>
      <point x="282.0" y="15.0" type="qcurve"/>
      <point x="270.0" y="15.0" type="line"/>
      <point x="300.0" y="88.0"/>
      <point x="330.0" y="167.0"/>
      <point x="343.0" y="202.0" type="qcurve"/>
      <point x="463.0" y="520.0" type="line"/>
      <point x="478.0" y="520.0" type="line"/>
      <point x="597.0" y="202.0" type="line" smooth="yes"/>
      <point x="610.0" y="167.0"/>
      <point x="641.0" y="88.0"/>
      <point x="671.0" y="15.0" type="qcurve"/>
      <point x="658.0" y="15.0" type="line"/>
      <point x="681.0" y="91.0"/>
      <point x="688.0" y="117.0"/>
      <point x="709.0" y="193.0" type="qcurve"/>
      <point x="851.0" y="700.0" type="line"/>
      <point x="875.0" y="700.0" type="line"/>
      <point x="679.0" y="0.0" type="line"/>
      <point x="653.0" y="0.0" type="line"/>
      <point x="461.0" y="499.0" type="line"/>
      <point x="480.0" y="499.0" type="line"/>
      <point x="288.0" y="0.0" type="line"/>
    </contour>
  </outline>
</glyph>
<glyph name="dong" format="2">
  <advance width="491"/>
  <unicode hex="20AB"/>
  <outline>
    <contour>
      <point x="212.0" y="146.0" type="qcurve"/>
      <point x="143.0" y="146.0"/>
      <point x="40.0" y="242.0"/>
      <point x="40.0" y="321.0" type="qcurve"/>
      <point x="40.0" y="395.0"/>
      <point x="144.0" y="497.0"/>
      <point x="217.0" y="497.0" type="qcurve"/>
      <point x="273.0" y="497.0"/>
      <point x="365.0" y="431.0"/>
      <point x="374.0" y="384.0" type="qcurve"/>
      <point x="367.0" y="390.0" type="line"/>
      <point x="367.0" y="700.0" type="line"/>
      <point x="389.0" y="700.0" type="line"/>
      <point x="389.0" y="156.0" type="line"/>
      <point x="367.0" y="156.0" type="line"/>
      <point x="367.0" y="284.0" type="line"/>
      <point x="372.0" y="266.0" type="line"/>
      <point x="372.0" y="225.6551724137931"/>
      <point x="276.0" y="146.0"/>
    </contour>
    <contour>
      <point x="62.0" y="321.0" type="qcurve"/>
      <point x="62.0" y="256.0"/>
      <point x="148.67763157894737" y="168.0"/>
      <point x="217.0" y="168.0" type="qcurve"/>
      <point x="280.0" y="168.0"/>
      <point x="368.9986010385411" y="259.48110542699055"/>
      <point x="368.9986010385411" y="321.0" type="qcurve"/>
      <point x="368.9986010385411" y="384.6315216303078"/>
      <point x="284.0" y="475.0"/>
      <point x="219.0" y="475.0" type="qcurve"/>
      <point x="149.67532467532467" y="475.0"/>
      <point x="62.0" y="388.0"/>
    </contour>
    <contour>
      <point x="409.0" y="0.0" type="line"/>
      <point x="45.0" y="0.0" type="line"/>
      <point x="45.0" y="22.0" type="line"/>
      <point x="409.0" y="22.0" type="line"/>
    </contour>
    <contour>
      <point x="466.0" y="592.0" type="line"/>
      <point x="203.0" y="592.0" type="line"/>
      <point x="203.0" y="614.0" type="line"/>
      <point x="466.0" y="614.0" type="line"/>
    </contour>
  </outline>
</glyph>
<glyph name="euro" format="2">
  <advance width="646"/>
  <unicode hex="20AC"/>
  <note>
Euro
</note>
  <outline>
    <contour>
      <point x="467.0" y="259.0" type="line"/>
      <point x="15.0" y="259.0" type="line"/>
      <point x="15.0" y="281.0" type="line"/>
      <point x="467.0" y="281.0" type="line"/>
    </contour>
    <contour>
      <point x="467.0" y="400.0" type="line"/>
      <point x="15.0" y="400.0" type="line"/>
      <point x="15.0" y="422.0" type="line"/>
      <point x="467.0" y="422.0" type="line"/>
    </contour>
    <contour>
      <point x="439.0" y="-10.0" type="qcurve"/>
      <point x="288.0" y="-10.0"/>
      <point x="95.0" y="189.0"/>
      <point x="95.0" y="346.0" type="qcurve"/>
      <point x="95.0" y="505.0"/>
      <point x="288.0" y="710.0"/>
      <point x="439.0" y="710.0" type="qcurve"/>
      <point x="484.0" y="710.0"/>
      <point x="565.0" y="689.0"/>
      <point x="600.0" y="670.0" type="qcurve"/>
      <point x="585.0" y="652.0" type="line"/>
      <point x="553.0" y="669.0"/>
      <point x="479.0" y="688.0"/>
      <point x="439.0" y="688.0" type="qcurve"/>
      <point x="300.0" y="688.0"/>
      <point x="118.0" y="494.0"/>
      <point x="118.0" y="346.0" type="qcurve"/>
      <point x="118.0" y="200.0"/>
      <point x="300.0" y="12.0"/>
      <point x="439.0" y="12.0" type="qcurve"/>
      <point x="479.0" y="12.0"/>
      <point x="552.0" y="28.0"/>
      <point x="584.0" y="43.0" type="qcurve"/>
      <point x="599.0" y="25.0" type="line"/>
      <point x="564.0" y="8.0"/>
      <point x="483.0" y="-10.0"/>
    </contour>
  </outline>
</glyph>
<glyph name="kip" format="2">
  <advance width="759"/>
  <unicode hex="20AD"/>
  <outline>
    <contour>
      <point x="332.0" y="400.0" type="line"/>
      <point x="332.0" y="422.0" type="line"/>
      <point x="599.0" y="422.0" type="line"/>
      <point x="599.0" y="400.0" type="line"/>
    </contour>
    <contour>
      <point x="150.0" y="422.0" type="line"/>
      <point x="150.0" y="400.0" type="line"/>
      <point x="50.0" y="400.0" type="line"/>
      <point x="50.0" y="422.0" type="line"/>
    </contour>
    <contour>
      <point x="140.0" y="0.0" type="line"/>
      <point x="140.0" y="700.0" type="line"/>
      <point x="162.0" y="700.0" type="line"/>
      <point x="162.0" y="0.0" type="line"/>
    </contour>
    <contour>
      <point x="150.0" y="234.0" type="line"/>
      <point x="150.0" y="265.0" type="line"/>
      <point x="596.0" y="700.0" type="line"/>
      <point x="628.0" y="700.0" type="line"/>
    </contour>
    <contour>
      <point x="617.0" y="0.0" type="line"/>
      <point x="312.0" y="404.0" type="line"/>
      <point x="329.0" y="420.0" type="line"/>
      <point x="646.0" y="0.0" type="line"/>
    </contour>
  </outline>
</glyph>
<glyph name="peso" format="2">
  <advance width="775"/>
  <unicode hex="20B1"/>
  <outline>
    <contour>
      <point x="193.0" y="417.0" type="line"/>
      <point x="93.0" y="417.0" type="line"/>
      <point x="93.0" y="438.0" type="line"/>
      <point x="193.0" y="438.0" type="line"/>
      <point x="215.0" y="438.0" type="line"/>
      <point x="600.0" y="438.0" type="line"/>
      <point x="623.0" y="438.0" type="line"/>
      <point x="720.0" y="438.0" type="line"/>
      <point x="720.0" y="417.0" type="line"/>
      <point x="617.0" y="417.0" type="line"/>
      <point x="594.0" y="417.0" type="line"/>
      <point x="215.0" y="417.0" type="line"/>
    </contour>
    <contour>
      <point x="193.0" y="548.0" type="line"/>
      <point x="93.0" y="548.0" type="line"/>
      <point x="93.0" y="569.0" type="line"/>
      <point x="193.0" y="569.0" type="line"/>
      <point x="215.0" y="569.0" type="line"/>
      <point x="600.0" y="569.0" type="line"/>
      <point x="620.0" y="569.0" type="line"/>
      <point x="720.0" y="569.0" type="line"/>
      <point x="720.0" y="548.0" type="line"/>
      <point x="617.0" y="548.0" type="line"/>
      <point x="594.0" y="548.0" type="line"/>
      <point x="215.0" y="548.0" type="line"/>
    </contour>
    <contour>
      <point x="193.0" y="700.0" type="line"/>
      <point x="444.0" y="700.0" type="line" smooth="yes"/>
      <point x="527.0" y="700.0"/>
      <point x="628.0" y="593.0"/>
      <point x="628.0" y="507.0" type="qcurve" smooth="yes"/>
      <point x="628.0" y="411.0"/>
      <point x="527.0" y="291.0"/>
      <point x="444.0" y="291.0" type="qcurve"/>
      <point x="201.0" y="291.0" type="line"/>
      <point x="215.0" y="300.0" type="line"/>
      <point x="215.0" y="0.0" type="line"/>
      <point x="193.0" y="0.0" type="line"/>
    </contour>
    <contour>
      <point x="200.0" y="313.0" type="line"/>
      <point x="450.0" y="313.0" type="line" smooth="yes"/>
      <point x="520.0" y="313.0"/>
      <point x="605.0" y="421.0"/>
      <point x="605.0" y="507.0" type="qcurve" smooth="yes"/>
      <point x="605.0" y="582.0"/>
      <point x="520.0" y="678.0"/>
      <point x="450.0" y="678.0" type="qcurve"/>
      <point x="202.0" y="678.0" type="line"/>
      <point x="215.0" y="690.0" type="line"/>
      <point x="215.0" y="305.0" type="line"/>
    </contour>
  </outline>
</glyph>
<glyph name="guarani" format="2">
  <advance width="766"/>
  <unicode hex="20B2"/>
  <outline>
    <contour>
      <point x="51.0" y="346.0" type="qcurve"/>
      <point x="51.0" y="505.0"/>
      <point x="244.0" y="710.0"/>
      <point x="395.0" y="710.0" type="qcurve" smooth="yes"/>
      <point x="480.0" y="710.0"/>
      <point x="616.0" y="639.0"/>
      <point x="664.0" y="580.0" type="qcurve"/>
      <point x="647.0" y="564.0" type="line"/>
      <point x="604.0" y="621.0"/>
      <point x="474.0" y="688.0"/>
      <point x="395.0" y="688.0" type="qcurve" smooth="yes"/>
      <point x="256.0" y="688.0"/>
      <point x="74.0" y="494.0"/>
      <point x="74.0" y="346.0" type="qcurve"/>
      <point x="74.0" y="200.0"/>
      <point x="257.0" y="12.0"/>
      <point x="396.0" y="12.0" type="qcurve" smooth="yes"/>
      <point x="540.0" y="12.0"/>
      <point x="695.0" y="184.0"/>
      <point x="695.0" y="322.0" type="qcurve" smooth="yes"/>
      <point x="695.0" y="341.0" type="line"/>
      <point x="701.0" y="336.0" type="line"/>
      <point x="405.0" y="336.0" type="line"/>
      <point x="405.0" y="358.0" type="line"/>
      <point x="718.0" y="358.0" type="line"/>
      <point x="718.0" y="352.0"/>
      <point x="718.0" y="345.0"/>
      <point x="718.0" y="339.0" type="qcurve" smooth="yes"/>
      <point x="718.0" y="168.0"/>
      <point x="545.0" y="-10.0"/>
      <point x="396.0" y="-10.0" type="qcurve"/>
      <point x="245.0" y="-10.0"/>
      <point x="51.0" y="189.0"/>
    </contour>
    <contour>
      <point x="405.0" y="797.0" type="line"/>
      <point x="405.0" y="-136.0" type="line"/>
      <point x="383.0" y="-136.0" type="line"/>
      <point x="383.0" y="797.0" type="line"/>
    </contour>
  </outline>
</glyph>
<glyph name="cedi" format="2">
  <advance width="690"/>
  <unicode hex="20B5"/>
  <outline>
    <contour>
      <point x="400.0" y="-10.0" type="line"/>
      <point x="400.0" y="-85.0" type="line"/>
      <point x="379.0" y="-85.0" type="line"/>
      <point x="379.0" y="12.0" type="line"/>
      <point x="379.0" y="-10.0" type="line"/>
      <point x="379.0" y="687.0" type="line"/>
      <point x="379.0" y="710.0" type="line"/>
      <point x="379.0" y="785.0" type="line"/>
      <point x="400.0" y="785.0" type="line"/>
      <point x="400.0" y="710.0" type="line"/>
      <point x="400.0" y="687.0" type="line"/>
      <point x="400.0" y="12.0" type="line"/>
    </contour>
    <contour>
      <point x="624.0" y="99.0" type="qcurve"/>
      <point x="639.0" y="81.0" type="line"/>
      <point x="594.0" y="38.0"/>
      <point x="471.0" y="-10.0"/>
      <point x="399.0" y="-10.0" type="qcurve" smooth="yes"/>
      <point x="248.0" y="-10.0"/>
      <point x="55.0" y="189.0"/>
      <point x="55.0" y="346.0" type="qcurve" smooth="yes"/>
      <point x="55.0" y="505.0"/>
      <point x="248.0" y="710.0"/>
      <point x="399.0" y="710.0" type="qcurve" smooth="yes"/>
      <point x="478.0" y="710.0"/>
      <point x="608.0" y="647.0"/>
      <point x="655.0" y="594.0" type="qcurve"/>
      <point x="637.0" y="578.0" type="line"/>
      <point x="593.0" y="628.0"/>
      <point x="472.0" y="688.0"/>
      <point x="399.0" y="688.0" type="qcurve" smooth="yes"/>
      <point x="260.0" y="688.0"/>
      <point x="78.0" y="494.0"/>
      <point x="78.0" y="346.0" type="qcurve" smooth="yes"/>
      <point x="78.0" y="200.0"/>
      <point x="260.0" y="12.0"/>
      <point x="399.0" y="12.0" type="qcurve" smooth="yes"/>
      <point x="467.0" y="12.0"/>
      <point x="582.0" y="58.0"/>
    </contour>
  </outline>
</glyph>
<glyph name="rupeeIndian" format="2">
  <advance width="571"/>
  <unicode hex="20B9"/>
  <outline>
    <contour>
      <point x="288.0" y="678.0" type="line"/>
      <point x="282.0" y="692.0" type="line"/>
      <point x="353.0" y="669.0"/>
      <point x="409.0" y="566.0"/>
      <point x="409.0" y="507.0" type="qcurve"/>
      <point x="409.0" y="421.0"/>
      <point x="308.0" y="314.0"/>
      <point x="225.0" y="314.0" type="qcurve"/>
      <point x="126.0" y="314.0" type="line"/>
      <point x="126.0" y="326.0" type="line"/>
      <point x="126.0" y="336.0" type="line"/>
      <point x="231.0" y="336.0" type="line"/>
      <point x="301.0" y="336.0"/>
      <point x="386.0" y="432.0"/>
      <point x="386.0" y="507.0" type="qcurve"/>
      <point x="386.0" y="582.0"/>
      <point x="301.0" y="678.0"/>
      <point x="231.0" y="678.0" type="qcurve"/>
      <point x="80.0" y="678.0" type="line"/>
      <point x="80.0" y="700.0" type="line"/>
      <point x="509.0" y="700.0" type="line"/>
      <point x="509.0" y="678.0" type="line"/>
    </contour>
    <contour>
      <point x="106.0" y="336.0" type="line"/>
      <point x="133.0" y="336.0" type="line"/>
      <point x="396.0" y="0.0" type="line"/>
      <point x="369.0" y="0.0" type="line"/>
    </contour>
    <contour>
      <point x="509.0" y="496.0" type="line"/>
      <point x="241.0" y="496.0" type="line"/>
      <point x="241.0" y="518.0" type="line"/>
      <point x="509.0" y="518.0" type="line"/>
    </contour>
  </outline>
</glyph>
